<svg width="335" height="132" viewBox="0 0 335 132" fill="none" xmlns="http://www.w3.org/2000/svg">
<path d="M0 12C0 5.37258 5.37258 0 12 0H323C329.627 0 335 5.37258 335 12V120C335 126.627 329.627 132 323 132H12C5.37259 132 0 126.627 0 120V12Z" fill="#2E2E2E"/>
<path d="M14 26C14 19.3726 19.3726 14 26 14H132C138.627 14 144 19.3726 144 26V26C144 32.6274 138.627 38 132 38H26C19.3726 38 14 32.6274 14 26V26Z" fill="#1F1F1F"/>
<path d="M28.0977 22.0039V27.8281C29.1348 27.8164 30.0898 27.7402 31.168 27.5117L31.3555 28.6133C30.0078 28.9062 28.8477 28.9531 27.5117 28.9531H26.7969V22.0039H28.0977ZM35.4922 20.9492V31.543H34.25V20.9492H35.4922ZM33.2188 21.1719V31.0391H31.9883V25.4258H29.7734V24.3711H31.9883V21.1719H33.2188ZM45.0959 26.5039V27.5352H37.6663V21.7812H45.0022V22.8359H38.9905V24.1133H44.7561V25.1328H38.9905V26.5039H45.0959ZM46.1623 29.1875V30.2539H36.4827V29.1875H46.1623ZM55.5552 20.9609V31.5312H54.2309V29.1055H51.9809V28.1211H54.2309V20.9609H55.5552ZM46.5669 26.3984C48.5591 26.3984 51.2075 26.3867 53.5044 26.0703L53.5864 27.0312C52.6138 27.2012 51.6118 27.3008 50.6333 27.3594V31.2148H49.3208V27.4297C48.395 27.459 47.5161 27.4648 46.7309 27.4648L46.5669 26.3984ZM50.0473 21.418C51.6059 21.418 52.7427 22.2969 52.7427 23.5625C52.7427 24.8516 51.6059 25.6953 50.0473 25.6953C48.4536 25.6953 47.3286 24.8516 47.3286 23.5625C47.3286 22.2969 48.4536 21.418 50.0473 21.418ZM50.0473 22.4141C49.1567 22.4141 48.5591 22.8711 48.5591 23.5625C48.5591 24.2773 49.1567 24.6992 50.0473 24.6992C50.8911 24.6992 51.5005 24.2773 51.5005 23.5625C51.5005 22.8711 50.8911 22.4141 50.0473 22.4141ZM62.4402 21.6172C62.4284 24.4766 60.9753 26.4219 57.4597 27.4414L56.9792 26.3984C58.6023 25.9531 59.657 25.3203 60.2839 24.5352L57.1316 24.7695L56.9323 23.7383L60.823 23.5859C60.9343 23.2988 61.0046 22.9883 61.0456 22.6602H57.4714V21.6172H62.4402ZM65.5691 20.9609V27.2422H64.2566V20.9609H65.5691ZM62.0066 27.3945C64.2097 27.3945 65.6042 28.1562 65.6042 29.4688C65.6042 30.7812 64.2097 31.5195 62.0066 31.5195C59.7566 31.5195 58.362 30.7812 58.362 29.4688C58.362 28.1562 59.7566 27.3945 62.0066 27.3945ZM62.0066 28.4258C60.4948 28.4258 59.6745 28.7891 59.6745 29.4688C59.6745 30.1367 60.4948 30.5117 62.0066 30.5117C63.4597 30.5117 64.3034 30.1367 64.3034 29.4688C64.3034 28.7891 63.4597 28.4258 62.0066 28.4258ZM76.5556 29.1875V30.2539H66.8759V29.1875H69.1142V26.5039C68.2705 26.0234 67.7607 25.2676 67.7666 24.3242C67.7548 22.6367 69.4189 21.5234 71.6923 21.5234C73.9775 21.5234 75.6416 22.6367 75.6416 24.3242C75.6416 25.25 75.1494 25.9941 74.3291 26.4805V29.1875H76.5556ZM71.6923 22.5547C70.1103 22.5547 69.0322 23.2227 69.0439 24.3242C69.0322 25.4141 70.1103 26.0938 71.6923 26.0938C73.2744 26.0938 74.3642 25.4141 74.3642 24.3242C74.3642 23.2227 73.2744 22.5547 71.6923 22.5547ZM70.4033 29.1875H73.0048V26.9727C72.6005 27.0664 72.1611 27.1133 71.6923 27.1133C71.2353 27.1133 70.8017 27.0664 70.4033 26.9844V29.1875ZM80.8156 23.2109C80.8156 24.3711 81.718 25.5195 83.382 25.9648L82.7727 26.9727C81.548 26.6387 80.6691 25.9238 80.1828 25.0039C79.7258 26.0469 78.841 26.8672 77.5812 27.2422L76.9719 26.2344C78.6242 25.7305 79.5148 24.4883 79.5148 23.2109V23.1523H77.3V22.1211H79.5148V20.9023H80.8273V22.1211H83.0305V23.1523H80.8156V23.2109ZM85.8781 20.9492V27.3594H84.5773V24.9102H82.7141V23.8555H84.5773V20.9492H85.8781ZM82.2922 27.5703C84.5305 27.5703 85.9133 28.2852 85.9133 29.5391C85.9133 30.8047 84.5305 31.5312 82.2922 31.5312C80.0656 31.5312 78.6828 30.8047 78.6945 29.5391C78.6828 28.2852 80.0656 27.5703 82.2922 27.5703ZM82.2922 28.5664C80.8156 28.5781 79.9836 28.9062 79.9836 29.5391C79.9836 30.1719 80.8156 30.5234 82.2922 30.5234C83.7922 30.5234 84.6125 30.1719 84.6125 29.5391C84.6125 28.9062 83.7922 28.5781 82.2922 28.5664Z" fill="#FEFEFE"/>
<path d="M111.518 22.0156V30.5H110.158L106.139 24.6992H106.069V30.5H104.545V22.0156H105.928L109.924 27.8164H110.006V22.0156H111.518ZM113.704 29.4453C113.2 29.4453 112.79 29.0352 112.79 28.5312C112.79 28.0391 113.2 27.6289 113.704 27.6289C114.184 27.6289 114.606 28.0391 114.606 28.5312C114.606 29.0352 114.184 29.4453 113.704 29.4453ZM113.704 24.8984C113.2 24.8984 112.79 24.4883 112.79 23.9844C112.79 23.4922 113.2 23.082 113.704 23.082C114.184 23.082 114.606 23.4922 114.606 23.9844C114.606 24.4883 114.184 24.8984 113.704 24.8984ZM122.85 22.0156V30.5H121.491L117.471 24.6992H117.401V30.5H115.878V22.0156H117.26L121.257 27.8164H121.339V22.0156H122.85ZM131.153 22.0156V30.5H129.794L125.774 24.6992H125.704V30.5H124.181V22.0156H125.563L129.56 27.8164H129.642V22.0156H131.153Z" fill="#FF6F22"/>
<g clip-path="url(#clip0_6104_4140)">
<path d="M307 31L312 26" stroke="#FEFEFE" stroke-width="1.5" stroke-linecap="round" stroke-linejoin="round"/>
<path d="M312 26L307 21" stroke="#FEFEFE" stroke-width="1.5" stroke-linecap="round" stroke-linejoin="round"/>
</g>
<path d="M14 66C14 56.0589 22.0589 48 32 48C41.9411 48 50 56.0589 50 66C50 75.9411 41.9411 84 32 84C22.0589 84 14 75.9411 14 66Z" fill="#1F1F1F"/>
<path d="M23.0086 73.4621C23.0086 73.0812 23.0086 72.7298 23.0086 72.3621C22.6441 72.326 22.2894 72.3654 21.915 72.3391C21.915 71.6167 21.915 70.9042 21.915 70.172C21.5472 70.172 21.1991 70.172 20.8576 70.172C20.8182 70.0209 20.8083 66.0215 20.8444 65.7818C21.1892 65.7818 21.5406 65.7818 21.9052 65.7818C21.9052 63.2141 21.9052 60.666 21.9052 58.0917C22.273 58.0785 22.6276 58.0917 23.0053 58.0851C23.0053 57.7239 23.0053 57.3693 23.0053 56.9983C23.383 56.9983 23.7376 56.9983 24.1087 56.9983C24.1087 56.6305 24.1087 56.2824 24.1087 55.918C27.7704 55.918 31.4156 55.918 35.0773 55.918C35.0773 56.2726 35.0773 56.6239 35.0773 56.995C35.4484 56.995 35.8031 56.995 36.1741 56.995C36.1741 57.3693 36.1741 57.7174 36.1741 58.0818C36.542 58.0818 36.8901 58.0818 37.2612 58.0818C37.2612 58.4594 37.2612 58.8174 37.2612 59.1917C37.6388 59.1917 37.9935 59.1917 38.3711 59.1917C38.3711 61.3917 38.3711 63.5752 38.3711 65.7752C40.2036 65.7752 42.0131 65.7752 43.8357 65.7752C43.8357 66.143 43.8357 66.4976 43.8357 66.872C43.481 66.872 43.1297 66.872 42.7651 66.872C42.7651 67.2397 42.7651 67.5911 42.7651 67.9588C42.394 67.9588 42.0394 67.9588 41.6683 67.9588C41.6683 68.6976 41.6683 69.4167 41.6683 70.1621C41.2939 70.1621 40.9327 70.1621 40.555 70.1621C40.555 70.5364 40.555 70.8845 40.555 71.2522C40.1872 71.2522 39.8391 71.2522 39.4746 71.2522C39.4746 71.62 39.4746 71.9681 39.4746 72.3424C39.1035 72.3424 38.7488 72.3424 38.3777 72.3424C38.3777 72.72 38.3777 73.0779 38.3777 73.4522C37.6421 73.4522 36.9229 73.4522 36.184 73.4522C36.184 73.82 36.184 74.168 36.184 74.5457C35.895 74.5457 35.6224 74.5489 35.3531 74.5489C35.0773 74.5489 34.8047 74.5489 34.5289 74.5489C34.2596 74.5489 33.9936 74.5489 33.7243 74.5489C33.4517 74.5489 33.1791 74.5489 32.8836 74.5489C32.8836 75.2812 32.8836 76.0003 32.8836 76.7292C32.1512 76.7292 31.4386 76.7292 30.7129 76.7292C30.7129 76.3713 30.7129 76.02 30.7129 75.6457C31.0675 75.6457 31.4189 75.6457 31.7769 75.6457C31.7769 75.2746 31.7769 74.9266 31.7769 74.5654C30.6899 74.5654 29.6029 74.5654 28.4994 74.5654C28.4994 75.2845 28.4994 75.997 28.4994 76.7063C28.3615 76.7489 26.5389 76.7588 26.309 76.7227C26.309 76.3746 26.309 76.0266 26.309 75.6522C26.6702 75.6424 27.0315 75.6555 27.3993 75.6457C27.3993 75.2779 27.3993 74.9298 27.3993 74.5588C26.6702 74.5588 25.9478 74.5588 25.2056 74.5588C25.2056 74.191 25.2056 73.8397 25.2056 73.4719C24.47 73.4621 23.7508 73.4621 23.0086 73.4621ZM32.8901 69.0752C32.8869 69.4331 32.8803 69.791 32.8934 70.1654C32.9722 70.1654 33.0314 70.1654 33.0905 70.1654C33.3203 70.1654 33.5535 70.1621 33.7834 70.1654C33.8392 70.1654 33.895 70.1851 33.9509 70.1949C33.9574 70.254 33.9706 70.3099 33.9706 70.369C33.9739 70.6119 33.9706 70.8582 33.9706 71.1012C33.9706 71.1472 33.9771 71.1931 33.9837 71.2391C34.7193 71.2391 35.4418 71.2391 36.1676 71.2391C36.1676 70.8779 36.1676 70.5299 36.1676 70.1785C36.1216 70.1719 36.0888 70.1654 36.0526 70.1654C35.4024 70.1654 34.7522 70.1654 34.1052 70.1654C34.0527 70.1654 34.0034 70.1851 33.9509 70.1949C33.9574 69.8272 33.9607 69.4627 33.9673 69.0949C33.9673 69.0851 33.9542 69.0752 33.941 69.0588C33.6093 69.0588 33.2711 69.0588 32.9328 69.0588C32.9164 69.0588 32.9 69.0719 32.8836 69.0785C32.8836 68.7108 32.8836 68.343 32.8836 67.972C32.5092 67.972 32.1578 67.972 31.7966 67.972C31.7966 68.3332 31.7966 68.6812 31.7966 69.0457C31.8623 69.049 31.9214 69.0555 31.9805 69.0555C32.2202 69.0555 32.4567 69.0555 32.6964 69.0555C32.7588 69.0555 32.8245 69.0687 32.8901 69.0752ZM28.4863 64.6588C28.4863 63.9266 28.4863 63.2141 28.4863 62.4917C27.7572 62.4917 27.0413 62.4917 26.3123 62.4917C26.3123 63.2173 26.3123 63.9332 26.3123 64.6588C27.0381 64.6588 27.7572 64.6588 28.4863 64.6588ZM30.6833 63.5654C30.7194 63.3224 30.7063 61.5066 30.6734 61.3851C30.3188 61.3851 29.9608 61.3851 29.6094 61.3851C29.5733 61.6478 29.5864 63.4373 29.6226 63.5654C29.9772 63.5654 30.3319 63.5654 30.6833 63.5654ZM24.1317 61.3818C24.0989 61.6576 24.1087 63.4373 24.1448 63.5654C24.493 63.5654 24.8411 63.5654 25.1859 63.5654C25.2187 63.3093 25.2056 61.5132 25.1727 61.3818C24.8312 61.3818 24.4897 61.3818 24.1317 61.3818Z" fill="white"/>
<path d="M61.4355 65.7891V52.6777H64.9219V54.0176H63.1035V64.4492H64.9219V65.7891H61.4355ZM75.5214 59.4863V64.2305H73.9902V60.7305H67.0859V59.4863H75.5214ZM75.5214 51.8848V58.9395H73.9902V51.8848H75.5214ZM67.4823 52.541V56.916C69.164 56.8887 70.955 56.7451 72.828 56.3828L73.0195 57.6133C70.8866 58.0371 68.8905 58.1738 67.0038 58.1738H65.9511V52.541H67.4823ZM78.9432 53.0879V59.8828C80.1532 59.8691 81.2674 59.7803 82.5252 59.5137L82.744 60.7988C81.1717 61.1406 79.8182 61.1953 78.2596 61.1953H77.4256V53.0879H78.9432ZM87.5702 51.8574V64.2168H86.1209V51.8574H87.5702ZM84.9178 52.1172V63.6289H83.4823V57.0801H80.8983V55.8496H83.4823V52.1172H84.9178ZM98.8806 51.8711V58.8711H97.3494V51.8711H98.8806ZM98.8806 59.4727V64.0664H90.6775V59.4727H98.8806ZM92.1814 60.6758V62.8359H97.3904V60.6758H92.1814ZM92.1404 52.459C94.0408 52.459 95.4627 53.6621 95.4627 55.4121C95.4627 57.1074 94.0408 58.3379 92.1404 58.3379C90.2263 58.3379 88.8045 57.1074 88.8045 55.4121C88.8045 53.6621 90.2263 52.459 92.1404 52.459ZM92.1404 53.7441C91.0603 53.7441 90.281 54.3867 90.2947 55.4121C90.281 56.4102 91.0603 57.0527 92.1404 57.0527C93.2068 57.0527 93.9724 56.4102 93.9724 55.4121C93.9724 54.3867 93.2068 53.7441 92.1404 53.7441ZM103.656 65.7891H100.17V64.4492H101.988V54.0176H100.17V52.6777H103.656V65.7891ZM115.349 51.8574V58.8164H113.845V51.8574H115.349ZM107.338 52.582V56.8203C109.272 56.7998 110.94 56.6631 112.683 56.2871L112.875 57.5449C110.906 57.9414 109.046 58.0918 106.859 58.1055H105.806V52.582H107.338ZM115.349 59.3496V64.0527H107.187V59.3496H115.349ZM108.677 60.5391V62.8496H113.873V60.5391H108.677ZM127.042 51.8574V64.2305H125.511V51.8574H127.042ZM120.384 52.7598C122.244 52.7598 123.597 54.4551 123.611 57.1211C123.597 59.8145 122.244 61.4961 120.384 61.4961C118.511 61.4961 117.158 59.8145 117.158 57.1211C117.158 54.4551 118.511 52.7598 120.384 52.7598ZM120.384 54.127C119.332 54.127 118.621 55.2344 118.621 57.1211C118.621 59.0215 119.332 60.1289 120.384 60.1289C121.423 60.1289 122.134 59.0215 122.134 57.1211C122.134 55.2344 121.423 54.127 120.384 54.127ZM133.38 53.0879V59.8828C134.59 59.8691 135.704 59.7803 136.962 59.5137L137.181 60.7988C135.609 61.1406 134.255 61.1953 132.697 61.1953H131.863V53.0879H133.38ZM142.007 51.8574V64.2168H140.558V51.8574H142.007ZM139.355 52.1172V63.6289H137.919V57.0801H135.335V55.8496H137.919V52.1172H139.355ZM153.072 58.3379V59.541H144.404V52.8281H152.962V54.0586H145.949V55.5488H152.675V56.7383H145.949V58.3379H153.072ZM154.316 61.4688V62.7129H143.023V61.4688H154.316ZM165.134 51.8711V64.2031H163.589V61.373H160.964V60.2246H163.589V51.8711H165.134ZM154.648 58.2148C156.972 58.2148 160.062 58.2012 162.741 57.832L162.837 58.9531C161.702 59.1514 160.533 59.2676 159.392 59.3359V63.834H157.861V59.418C156.78 59.4521 155.755 59.459 154.839 59.459L154.648 58.2148ZM158.708 52.4043C160.527 52.4043 161.853 53.4297 161.853 54.9062C161.853 56.4102 160.527 57.3945 158.708 57.3945C156.849 57.3945 155.536 56.4102 155.536 54.9062C155.536 53.4297 156.849 52.4043 158.708 52.4043ZM158.708 53.5664C157.669 53.5664 156.972 54.0996 156.972 54.9062C156.972 55.7402 157.669 56.2324 158.708 56.2324C159.693 56.2324 160.404 55.7402 160.404 54.9062C160.404 54.0996 159.693 53.5664 158.708 53.5664ZM173.026 52.6367C173.013 55.9727 171.317 58.2422 167.216 59.4316L166.655 58.2148C168.549 57.6953 169.779 56.957 170.511 56.041L166.833 56.3145L166.601 55.1113L171.14 54.9336C171.27 54.5986 171.352 54.2363 171.4 53.8535H167.23V52.6367H173.026ZM176.677 51.8711V59.1992H175.146V51.8711H176.677ZM172.521 59.377C175.091 59.377 176.718 60.2656 176.718 61.7969C176.718 63.3281 175.091 64.1895 172.521 64.1895C169.896 64.1895 168.269 63.3281 168.269 61.7969C168.269 60.2656 169.896 59.377 172.521 59.377ZM172.521 60.5801C170.757 60.5801 169.8 61.0039 169.8 61.7969C169.8 62.5762 170.757 63.0137 172.521 63.0137C174.216 63.0137 175.2 62.5762 175.2 61.7969C175.2 61.0039 174.216 60.5801 172.521 60.5801ZM183.681 52.0488C186.497 52.0488 188.124 52.8008 188.138 54.168C188.124 55.5488 186.497 56.2871 183.681 56.3008C180.864 56.2871 179.224 55.5488 179.224 54.168C179.224 52.8008 180.864 52.0488 183.681 52.0488ZM183.681 53.1699C181.794 53.1699 180.81 53.5254 180.823 54.168C180.81 54.8516 181.794 55.166 183.681 55.166C185.595 55.166 186.565 54.8516 186.565 54.168C186.565 53.5254 185.595 53.1699 183.681 53.1699ZM189.327 56.957V58.1738H178.062V56.957H189.327ZM187.919 59.0078V62.0293H180.892V62.9453H188.261V64.1074H179.401V60.9492H186.429V60.1289H179.388V59.0078H187.919ZM202.938 51.8711V60.8945H201.407V51.8711H202.938ZM203.28 62.7402V63.9707H194.763V60.0332H196.294V62.7402H203.28ZM197.251 53.7578C197.251 55.4805 198.263 57.1074 200.218 57.7637L199.438 58.9668C198.03 58.4746 197.025 57.4902 196.485 56.2324C195.925 57.5791 194.906 58.6592 193.45 59.1855L192.657 57.9824C194.667 57.2715 195.679 55.5352 195.679 53.7578V52.5547H197.251V53.7578ZM208.766 54.4961C208.766 55.8496 209.819 57.1895 211.761 57.709L211.05 58.8848C209.621 58.4951 208.596 57.6611 208.028 56.5879C207.495 57.8047 206.463 58.7617 204.993 59.1992L204.282 58.0234C206.21 57.4355 207.249 55.9863 207.249 54.4961V54.4277H204.665V53.2246H207.249V51.8027H208.78V53.2246H211.35V54.4277H208.766V54.4961ZM214.673 51.8574V59.3359H213.155V56.4785H210.981V55.248H213.155V51.8574H214.673ZM210.489 59.582C213.1 59.582 214.714 60.416 214.714 61.8789C214.714 63.3555 213.1 64.2031 210.489 64.2031C207.891 64.2031 206.278 63.3555 206.292 61.8789C206.278 60.416 207.891 59.582 210.489 59.582ZM210.489 60.7441C208.766 60.7578 207.796 61.1406 207.796 61.8789C207.796 62.6172 208.766 63.0273 210.489 63.0273C212.239 63.0273 213.196 62.6172 213.196 61.8789C213.196 61.1406 212.239 60.7578 210.489 60.7441ZM226.571 51.8711V59.4863H225.122V56.3555H223.946V59.3359H222.524V52.0488H223.946V55.1113H225.122V51.8711H226.571ZM222.087 53.1289V54.332H215.934V53.1289H218.272V51.9258H219.776V53.1289H222.087ZM219.024 54.7969C220.596 54.8105 221.704 55.6582 221.717 56.9434C221.704 58.2148 220.596 59.0898 219.024 59.0898C217.479 59.0898 216.358 58.2148 216.372 56.9434C216.358 55.6582 217.479 54.8105 219.024 54.7969ZM219.024 55.9043C218.259 55.9043 217.725 56.2734 217.725 56.9434C217.725 57.5859 218.245 57.9824 219.024 57.9824C219.803 57.9824 220.337 57.5859 220.337 56.9434C220.337 56.2734 219.803 55.9043 219.024 55.9043ZM220.61 60.1699C220.61 61.127 221.068 62.1113 222.1 62.7266C223.146 62.0703 223.632 61.0312 223.645 60.1699V59.8691H225.149V60.1699C225.149 61.3457 225.928 62.4805 227.542 62.918L226.831 64.0664C225.621 63.6836 224.814 62.918 224.384 61.9609C223.994 62.9043 223.269 63.7451 222.128 64.1758C220.966 63.7656 220.234 62.9727 219.844 62.0293C219.393 62.9316 218.587 63.6768 217.438 64.0664L216.727 62.918C218.313 62.4395 219.106 61.2773 219.106 60.1699V59.8691H220.61V60.1699ZM230.54 59.2676V60.4434H235.981V59.2676H237.499V64.0664H229.036V59.2676H230.54ZM230.54 62.8633H235.981V61.6055H230.54V62.8633ZM238.948 57.3262V58.5703H227.682V57.3262H238.948ZM234.094 52.459C234.094 53.7852 235.79 55.1797 238.346 55.4805L237.813 56.6836C235.742 56.4033 234.108 55.4873 233.315 54.2363C232.515 55.4941 230.875 56.4033 228.817 56.6836L228.256 55.4805C230.84 55.166 232.522 53.8262 232.536 52.459V51.9941H234.094V52.459ZM249.67 51.8574V64.2168H248.167V51.8574H249.67ZM241.577 53.0605V59.8145C243.313 59.7871 245.159 59.6299 247.059 59.2539L247.251 60.5254C245.077 60.9766 243.053 61.1133 241.139 61.1133H240.073V53.0605H241.577ZM260.721 51.8574V56.5469H262.622V57.791H260.721V64.2305H259.204V51.8574H260.721ZM257.331 53.0332V54.2637H253.065V59.9375C254.986 59.9375 256.503 59.8418 258.206 59.541L258.383 60.8262C256.469 61.1543 254.801 61.209 252.573 61.209H251.547V53.0332H257.331ZM265.264 53.1016L265.114 60.0879H263.569L263.405 53.1016H265.264ZM264.348 63.1094C263.76 63.1094 263.282 62.6309 263.282 62.043C263.282 61.4688 263.76 60.9902 264.348 60.9902C264.909 60.9902 265.401 61.4688 265.401 62.043C265.401 62.6309 264.909 63.1094 264.348 63.1094Z" fill="#FEFEFE"/>
<path d="M63.7266 85.1172C62.0391 85.1172 60.832 84.2148 60.7734 82.8672H61.8398C61.8984 83.6758 62.707 84.1797 63.7148 84.1797C64.8281 84.1797 65.6484 83.5703 65.6484 82.6914C65.6484 81.7656 64.9102 81.1094 63.5859 81.1094H62.8945V80.1836H63.5859C64.6172 80.1836 65.332 79.6094 65.332 78.7305C65.332 77.8867 64.7109 77.3125 63.75 77.3125C62.8477 77.3125 62.0156 77.8164 61.9688 78.6484H60.9492C61.0078 77.3008 62.25 76.3984 63.7617 76.3984C65.3789 76.3984 66.3633 77.4531 66.3516 78.6719C66.3633 79.6328 65.8008 80.3477 64.9102 80.5938V80.6523C66.0117 80.8281 66.6914 81.6133 66.6797 82.6914C66.6914 84.0859 65.4141 85.1172 63.7266 85.1172ZM77.1155 81.0508V81.8008H72.8733V83.8398H71.9592V81.8008H67.5764V81.0508H77.1155ZM76.0491 84.9531V85.7266H68.7952V82.8789H69.7092V84.9531H76.0491ZM69.7678 75.8711V77.207H74.9241V75.8711H75.8381V80.0312H68.8538V75.8711H69.7678ZM69.7678 79.2812H74.9241V77.9102H69.7678V79.2812ZM89.3855 75.5312V85.9492H88.4831V80.5586H86.9831V85.4102H86.1159V75.7656H86.9831V79.7734H88.4831V75.5312H89.3855ZM81.9323 76.8086V82.4336C82.9695 82.4219 84.071 82.3516 85.3425 82.0938L85.4597 82.9141C84.0066 83.1719 82.8113 83.2539 81.6628 83.2539H81.0183V76.8086H81.9323ZM102.886 80.6055V81.3555H93.3937V80.6055H102.886ZM98.1398 82.2461C100.378 82.2344 101.714 82.8906 101.726 84.0859C101.714 85.293 100.378 85.9492 98.1398 85.9492C95.8781 85.9492 94.5422 85.293 94.5422 84.0859C94.5422 82.8906 95.8781 82.2344 98.1398 82.2461ZM98.1398 82.9492C96.4641 82.9492 95.468 83.3594 95.4797 84.0859C95.468 84.8125 96.4641 85.2227 98.1398 85.2109C99.7922 85.2227 100.8 84.8125 100.8 84.0859C100.8 83.3594 99.7922 82.9492 98.1398 82.9492ZM98.1398 75.8008C100.402 75.8008 101.82 76.5508 101.82 77.7812C101.82 79.0234 100.402 79.75 98.1398 79.75C95.8781 79.75 94.4484 79.0234 94.4484 77.7812C94.4484 76.5508 95.8781 75.8008 98.1398 75.8008ZM98.1398 76.5508C96.4523 76.5391 95.3859 77.0078 95.3977 77.7812C95.3859 78.5664 96.4523 79.0234 98.1398 79.0234C99.8039 79.0234 100.882 78.5664 100.882 77.7812C100.882 77.0078 99.8039 76.5391 98.1398 76.5508ZM111.669 75.5312V77.9805H113.24V78.7539H111.669V81.0859H110.755V75.5312H111.669ZM108.634 76.2227V76.9844H104.931V79.9609C107.023 79.9609 108.212 79.8965 109.607 79.6094L109.724 80.3711C108.259 80.6641 107.017 80.7344 104.826 80.7344H104.017V76.2227H108.634ZM105.986 81.6484V82.9492H110.755V81.6484H111.669V85.7734H105.072V81.6484H105.986ZM105.986 85.0117H110.755V83.6875H105.986V85.0117ZM121.718 75.5312V79.832H123.465V80.5938H121.718V85.9492H120.804V75.5312H121.718ZM119.797 77.207V77.9688H113.597V77.207H116.281V75.6602H117.195V77.207H119.797ZM116.75 78.8359C118.226 78.8359 119.293 79.8203 119.304 81.2266C119.293 82.6328 118.226 83.6172 116.75 83.6172C115.261 83.6172 114.183 82.6328 114.195 81.2266C114.183 79.8203 115.261 78.8359 116.75 78.8359ZM116.75 79.6094C115.777 79.6094 115.062 80.2891 115.074 81.2266C115.062 82.1758 115.777 82.8438 116.75 82.832C117.711 82.8438 118.414 82.1758 118.425 81.2266C118.414 80.2891 117.711 79.6094 116.75 79.6094ZM127.514 78.7305C127.514 80.5 128.803 82.293 130.338 82.9609L129.822 83.6875C128.603 83.1309 127.549 81.9297 127.068 80.4883C126.576 82.0176 125.527 83.3477 124.338 83.9453L123.787 83.2188C125.275 82.5039 126.576 80.5352 126.588 78.7305V77.3711H124.127V76.6094H129.998V77.3711H127.514V78.7305ZM132.377 75.5312V85.9492H131.451V75.5312H132.377ZM139.596 76.1289C141.155 76.1289 142.303 77.125 142.303 78.5312C142.303 79.9492 141.155 80.9336 139.596 80.9453C138.037 80.9336 136.877 79.9492 136.889 78.5312C136.877 77.125 138.037 76.1289 139.596 76.1289ZM139.596 76.9023C138.577 76.9023 137.78 77.5938 137.791 78.5312C137.78 79.4922 138.577 80.1836 139.596 80.1836C140.627 80.1836 141.401 79.4922 141.401 78.5312C141.401 77.5938 140.627 76.9023 139.596 76.9023ZM144.834 75.5312V77.8867H146.405V78.6484H144.834V80.7461H143.92V75.5312H144.834ZM138.694 81.8711V84.9062C139.297 84.8887 140.1 84.8008 140.838 84.5547L140.979 85.293C139.959 85.6328 138.975 85.668 138.295 85.668H137.803V81.8711H138.694ZM145.877 81.918V82.6328H140.616V81.918H142.807V80.9922H143.709V81.918H145.877ZM143.241 82.9844C144.377 82.9844 145.186 83.5586 145.198 84.4609C145.186 85.3633 144.377 85.9258 143.241 85.9258C142.092 85.9258 141.295 85.3633 141.307 84.4609C141.295 83.5586 142.092 82.9844 143.241 82.9844ZM143.241 83.6523C142.596 83.6523 142.127 83.9805 142.127 84.4609C142.127 84.9531 142.596 85.2695 143.241 85.2695C143.897 85.2695 144.354 84.9531 144.354 84.4609C144.354 83.9805 143.897 83.6523 143.241 83.6523ZM151.567 76.2109C153.747 76.2109 155.376 77.3477 155.376 79.0703C155.376 80.8047 153.747 81.9414 151.567 81.9297C149.387 81.9414 147.758 80.8047 147.758 79.0703C147.758 77.3477 149.387 76.2109 151.567 76.2109ZM151.567 76.9609C149.891 76.9492 148.626 77.8281 148.637 79.0703C148.626 80.3359 149.891 81.1797 151.567 81.1797C153.231 81.1797 154.485 80.3359 154.485 79.0703C154.485 77.8281 153.231 76.9492 151.567 76.9609ZM156.36 83.793V84.5664H146.821V83.793H156.36ZM162.225 76.4453V77.3711H164.663V75.543H165.589V83.1484H164.663V80.3711H162.225V81.3086H157.444V76.4453H162.225ZM158.358 77.207V80.5703H161.323V77.207H158.358ZM165.823 84.9531V85.7266H158.85V82.4688H159.776V84.9531H165.823ZM162.225 79.6094H164.663V78.1445H162.225V79.6094ZM173.382 78.7305C173.37 80.4062 174.577 82.2461 176.089 82.9609L175.562 83.6875C174.39 83.1191 173.4 81.877 172.937 80.4648C172.456 82 171.408 83.3477 170.242 83.9453L169.679 83.2188C171.179 82.4922 172.468 80.5117 172.48 78.7305V77.3711H170.054V76.6094H175.726V77.3711H173.382V78.7305ZM177.917 75.5312V79.75H179.663V80.5352H177.917V85.9492H177.003V75.5312H177.917ZM189.49 80.6875V81.4258H179.986V80.6875H184.287V79.4688H181.193V76.0234H188.306V76.7617H182.095V78.7188H188.377V79.4688H185.177V80.6875H189.49ZM184.732 82.1875C186.97 82.1875 188.306 82.8672 188.318 84.0625C188.306 85.2695 186.97 85.9375 184.732 85.9492C182.482 85.9375 181.134 85.2695 181.134 84.0625C181.134 82.8672 182.482 82.1875 184.732 82.1875ZM184.732 82.9141C183.056 82.9141 182.06 83.3477 182.072 84.0625C182.06 84.7891 183.056 85.2109 184.732 85.2109C186.384 85.2109 187.392 84.7891 187.392 84.0625C187.392 83.3477 186.384 82.9141 184.732 82.9141ZM196.815 77.5C196.815 78.5547 197.857 79.4453 199.334 79.7734L198.959 80.5117C197.758 80.2188 196.832 79.5801 196.381 78.7305C195.93 79.6504 194.992 80.3477 193.756 80.6523L193.357 79.9141C194.857 79.5859 195.9 78.6133 195.9 77.5V77.4531H193.58V76.7266H195.9V75.5664H196.815V76.7266H199.135V77.4531H196.815V77.5ZM201.479 75.543V85.9609H200.576V75.543H201.479ZM192.865 81.3906C194.857 81.3906 197.506 81.3672 199.815 81.0742L199.873 81.7422C198.877 81.9062 197.846 82.0059 196.838 82.0586V85.6445H195.924V82.1055C194.869 82.1582 193.867 82.1641 192.994 82.1641L192.865 81.3906ZM212.559 83.8281V84.5898H203.02V83.8281H207.285V81.2734H208.188V83.8281H212.559ZM208.211 77.043C208.211 78.7891 210.274 80.3125 212.09 80.6289L211.68 81.3906C210.092 81.0684 208.416 79.9902 207.742 78.4844C207.057 79.9844 205.393 81.0684 203.805 81.3906L203.395 80.6289C205.211 80.3125 207.25 78.7891 207.25 77.043V76.2461H208.211V77.043ZM221.753 75.543V81.5312H220.827V75.543H221.753ZM213.186 80.5117C214.071 80.5117 215.102 80.5059 216.174 80.4648V79.3516H214.135V76.0586H219.081V76.8203H215.061V78.6133H219.174V79.3516H217.1V80.4297C218.067 80.3887 219.045 80.3066 219.96 80.1836L220.018 80.8516C217.733 81.2383 215.202 81.2734 213.327 81.2734L213.186 80.5117ZM215.799 82V83.1133H220.85V82H221.753V85.8086H214.885V82H215.799ZM215.799 85.0586H220.85V83.8281H215.799V85.0586ZM231.872 75.5312V85.9492H230.958V75.5312H231.872ZM224.864 76.5625V82.4688C226.452 82.4629 228.098 82.334 229.845 81.9648L229.973 82.75C228.122 83.1367 226.47 83.2656 224.805 83.2656H223.962V76.5625H224.864ZM241.476 75.5312V79.6562H243.222V80.4297H241.476V85.9727H240.562V75.5312H241.476ZM238.733 76.5508V77.3125H234.784V82.5859C236.671 82.5859 238.007 82.498 239.554 82.2109L239.671 83.0078C238.042 83.3008 236.671 83.3594 234.69 83.3594H233.87V76.5508H238.733ZM244.646 85.0703C244.236 85.0703 243.884 84.7305 243.896 84.3086C243.884 83.8984 244.236 83.5586 244.646 83.5586C245.056 83.5586 245.396 83.8984 245.396 84.3086C245.396 84.7305 245.056 85.0703 244.646 85.0703Z" fill="#A6A6A6"/>
<path d="M21.6892 105.516V114H20.6814L16.0877 107.391H16.0056V114H14.9509V105.516H15.9705L20.5642 112.137H20.6462V105.516H21.6892ZM30.0625 105.516V114H29.0547L24.4609 107.391H24.3789V114H23.3242V105.516H24.3438L28.9375 112.137H29.0195V105.516H30.0625Z" fill="#A6A6A6"/>
<path d="M41.447 110.051V110.801H37.2048V112.84H36.2908V110.801H31.908V110.051H41.447ZM40.3806 113.953V114.727H33.1267V111.879H34.0408V113.953H40.3806ZM34.0994 104.871V106.207H39.2556V104.871H40.1697V109.031H33.1853V104.871H34.0994ZM34.0994 108.281H39.2556V106.91H34.0994V108.281ZM50.6875 104.543V112.184H49.7617V108.188H47.6172V107.426H49.7617V104.543H50.6875ZM50.9805 113.953V114.727H43.9961V111.492H44.9219V113.953H50.9805ZM45.6719 106.688C45.6719 108.035 46.7148 109.348 48.2383 109.863L47.7578 110.602C46.5801 110.18 45.6719 109.301 45.2266 108.223C44.7754 109.424 43.8145 110.385 42.5781 110.848L42.0977 110.098C43.6328 109.559 44.7461 108.188 44.7461 106.688V106.148H42.3906V105.387H48.0039V106.148H45.6719V106.688Z" fill="#A6A6A6"/>
<defs>
<clipPath id="clip0_6104_4140">
<rect width="24" height="24" fill="white" transform="translate(297 14)"/>
</clipPath>
</defs>
</svg>
