<svg width="335" height="98" viewBox="0 0 335 98" fill="none" xmlns="http://www.w3.org/2000/svg">
<path d="M0 12C0 5.37258 5.37258 0 12 0H323C329.627 0 335 5.37258 335 12V86C335 92.6274 329.627 98 323 98H12C5.37259 98 0 92.6274 0 86V12Z" fill="#2E2E2E"/>
<path d="M15.4355 31.7891V18.6777H18.9219V20.0176H17.1035V30.4492H18.9219V31.7891H15.4355ZM29.5214 25.4863V30.2305H27.9902V26.7305H21.0859V25.4863H29.5214ZM29.5214 17.8848V24.9395H27.9902V17.8848H29.5214ZM21.4823 18.541V22.916C23.164 22.8887 24.955 22.7451 26.828 22.3828L27.0195 23.6133C24.8866 24.0371 22.8905 24.1738 21.0038 24.1738H19.9511V18.541H21.4823ZM32.9432 19.0879V25.8828C34.1532 25.8691 35.2674 25.7803 36.5252 25.5137L36.744 26.7988C35.1717 27.1406 33.8182 27.1953 32.2596 27.1953H31.4256V19.0879H32.9432ZM41.5702 17.8574V30.2168H40.1209V17.8574H41.5702ZM38.9178 18.1172V29.6289H37.4823V23.0801H34.8983V21.8496H37.4823V18.1172H38.9178ZM52.8806 17.8711V24.8711H51.3494V17.8711H52.8806ZM52.8806 25.4727V30.0664H44.6775V25.4727H52.8806ZM46.1814 26.6758V28.8359H51.3904V26.6758H46.1814ZM46.1404 18.459C48.0408 18.459 49.4627 19.6621 49.4627 21.4121C49.4627 23.1074 48.0408 24.3379 46.1404 24.3379C44.2263 24.3379 42.8045 23.1074 42.8045 21.4121C42.8045 19.6621 44.2263 18.459 46.1404 18.459ZM46.1404 19.7441C45.0603 19.7441 44.281 20.3867 44.2947 21.4121C44.281 22.4102 45.0603 23.0527 46.1404 23.0527C47.2068 23.0527 47.9724 22.4102 47.9724 21.4121C47.9724 20.3867 47.2068 19.7441 46.1404 19.7441ZM57.6559 31.7891H54.1696V30.4492H55.988V20.0176H54.1696V18.6777H57.6559V31.7891ZM69.3492 17.8574V24.8164H67.8453V17.8574H69.3492ZM61.3375 18.582V22.8203C63.2721 22.7998 64.94 22.6631 66.6832 22.2871L66.8746 23.5449C64.9059 23.9414 63.0465 24.0918 60.859 24.1055H59.8063V18.582H61.3375ZM69.3492 25.3496V30.0527H61.1871V25.3496H69.3492ZM62.6773 26.5391V28.8496H67.8727V26.5391H62.6773ZM81.0425 17.8574V30.2305H79.5112V17.8574H81.0425ZM74.3843 18.7598C76.2437 18.7598 77.5972 20.4551 77.6109 23.1211C77.5972 25.8145 76.2437 27.4961 74.3843 27.4961C72.5112 27.4961 71.1577 25.8145 71.1577 23.1211C71.1577 20.4551 72.5112 18.7598 74.3843 18.7598ZM74.3843 20.127C73.3316 20.127 72.6206 21.2344 72.6206 23.1211C72.6206 25.0215 73.3316 26.1289 74.3843 26.1289C75.4234 26.1289 76.1343 25.0215 76.1343 23.1211C76.1343 21.2344 75.4234 20.127 74.3843 20.127ZM87.3802 19.0879V25.8828C88.5902 25.8691 89.7045 25.7803 90.9623 25.5137L91.181 26.7988C89.6087 27.1406 88.2552 27.1953 86.6966 27.1953H85.8627V19.0879H87.3802ZM96.0072 17.8574V30.2168H94.558V17.8574H96.0072ZM93.3548 18.1172V29.6289H91.9193V23.0801H89.3353V21.8496H91.9193V18.1172H93.3548ZM107.072 24.3379V25.541H98.4036V18.8281H106.962V20.0586H99.9485V21.5488H106.675V22.7383H99.9485V24.3379H107.072ZM108.316 27.4688V28.7129H97.0227V27.4688H108.316ZM119.134 17.8711V30.2031H117.589V27.373H114.964V26.2246H117.589V17.8711H119.134ZM108.648 24.2148C110.972 24.2148 114.062 24.2012 116.741 23.832L116.837 24.9531C115.702 25.1514 114.533 25.2676 113.392 25.3359V29.834H111.861V25.418C110.78 25.4521 109.755 25.459 108.839 25.459L108.648 24.2148ZM112.708 18.4043C114.527 18.4043 115.853 19.4297 115.853 20.9062C115.853 22.4102 114.527 23.3945 112.708 23.3945C110.849 23.3945 109.536 22.4102 109.536 20.9062C109.536 19.4297 110.849 18.4043 112.708 18.4043ZM112.708 19.5664C111.669 19.5664 110.972 20.0996 110.972 20.9062C110.972 21.7402 111.669 22.2324 112.708 22.2324C113.693 22.2324 114.404 21.7402 114.404 20.9062C114.404 20.0996 113.693 19.5664 112.708 19.5664ZM127.026 18.6367C127.013 21.9727 125.317 24.2422 121.216 25.4316L120.655 24.2148C122.549 23.6953 123.779 22.957 124.511 22.041L120.833 22.3145L120.601 21.1113L125.14 20.9336C125.27 20.5986 125.352 20.2363 125.4 19.8535H121.23V18.6367H127.026ZM130.677 17.8711V25.1992H129.146V17.8711H130.677ZM126.521 25.377C129.091 25.377 130.718 26.2656 130.718 27.7969C130.718 29.3281 129.091 30.1895 126.521 30.1895C123.896 30.1895 122.269 29.3281 122.269 27.7969C122.269 26.2656 123.896 25.377 126.521 25.377ZM126.521 26.5801C124.757 26.5801 123.8 27.0039 123.8 27.7969C123.8 28.5762 124.757 29.0137 126.521 29.0137C128.216 29.0137 129.2 28.5762 129.2 27.7969C129.2 27.0039 128.216 26.5801 126.521 26.5801ZM137.681 18.0488C140.497 18.0488 142.124 18.8008 142.138 20.168C142.124 21.5488 140.497 22.2871 137.681 22.3008C134.864 22.2871 133.224 21.5488 133.224 20.168C133.224 18.8008 134.864 18.0488 137.681 18.0488ZM137.681 19.1699C135.794 19.1699 134.81 19.5254 134.823 20.168C134.81 20.8516 135.794 21.166 137.681 21.166C139.595 21.166 140.565 20.8516 140.565 20.168C140.565 19.5254 139.595 19.1699 137.681 19.1699ZM143.327 22.957V24.1738H132.062V22.957H143.327ZM141.919 25.0078V28.0293H134.892V28.9453H142.261V30.1074H133.401V26.9492H140.429V26.1289H133.388V25.0078H141.919ZM156.938 17.8711V26.8945H155.407V17.8711H156.938ZM157.28 28.7402V29.9707H148.763V26.0332H150.294V28.7402H157.28ZM151.251 19.7578C151.251 21.4805 152.263 23.1074 154.218 23.7637L153.438 24.9668C152.03 24.4746 151.025 23.4902 150.485 22.2324C149.925 23.5791 148.906 24.6592 147.45 25.1855L146.657 23.9824C148.667 23.2715 149.679 21.5352 149.679 19.7578V18.5547H151.251V19.7578ZM162.766 20.4961C162.766 21.8496 163.819 23.1895 165.761 23.709L165.05 24.8848C163.621 24.4951 162.596 23.6611 162.028 22.5879C161.495 23.8047 160.463 24.7617 158.993 25.1992L158.282 24.0234C160.21 23.4355 161.249 21.9863 161.249 20.4961V20.4277H158.665V19.2246H161.249V17.8027H162.78V19.2246H165.35V20.4277H162.766V20.4961ZM168.673 17.8574V25.3359H167.155V22.4785H164.981V21.248H167.155V17.8574H168.673ZM164.489 25.582C167.1 25.582 168.714 26.416 168.714 27.8789C168.714 29.3555 167.1 30.2031 164.489 30.2031C161.891 30.2031 160.278 29.3555 160.292 27.8789C160.278 26.416 161.891 25.582 164.489 25.582ZM164.489 26.7441C162.766 26.7578 161.796 27.1406 161.796 27.8789C161.796 28.6172 162.766 29.0273 164.489 29.0273C166.239 29.0273 167.196 28.6172 167.196 27.8789C167.196 27.1406 166.239 26.7578 164.489 26.7441ZM180.571 17.8711V25.4863H179.122V22.3555H177.946V25.3359H176.524V18.0488H177.946V21.1113H179.122V17.8711H180.571ZM176.087 19.1289V20.332H169.934V19.1289H172.272V17.9258H173.776V19.1289H176.087ZM173.024 20.7969C174.596 20.8105 175.704 21.6582 175.717 22.9434C175.704 24.2148 174.596 25.0898 173.024 25.0898C171.479 25.0898 170.358 24.2148 170.372 22.9434C170.358 21.6582 171.479 20.8105 173.024 20.7969ZM173.024 21.9043C172.259 21.9043 171.725 22.2734 171.725 22.9434C171.725 23.5859 172.245 23.9824 173.024 23.9824C173.803 23.9824 174.337 23.5859 174.337 22.9434C174.337 22.2734 173.803 21.9043 173.024 21.9043ZM174.61 26.1699C174.61 27.127 175.068 28.1113 176.1 28.7266C177.146 28.0703 177.632 27.0312 177.645 26.1699V25.8691H179.149V26.1699C179.149 27.3457 179.928 28.4805 181.542 28.918L180.831 30.0664C179.621 29.6836 178.814 28.918 178.384 27.9609C177.994 28.9043 177.269 29.7451 176.128 30.1758C174.966 29.7656 174.234 28.9727 173.844 28.0293C173.393 28.9316 172.587 29.6768 171.438 30.0664L170.727 28.918C172.313 28.4395 173.106 27.2773 173.106 26.1699V25.8691H174.61V26.1699ZM184.54 25.2676V26.4434H189.981V25.2676H191.499V30.0664H183.036V25.2676H184.54ZM184.54 28.8633H189.981V27.6055H184.54V28.8633ZM192.948 23.3262V24.5703H181.682V23.3262H192.948ZM188.094 18.459C188.094 19.7852 189.79 21.1797 192.346 21.4805L191.813 22.6836C189.742 22.4033 188.108 21.4873 187.315 20.2363C186.515 21.4941 184.875 22.4033 182.817 22.6836L182.256 21.4805C184.84 21.166 186.522 19.8262 186.536 18.459V17.9941H188.094V18.459ZM203.67 17.8574V30.2168H202.167V17.8574H203.67ZM195.577 19.0605V25.8145C197.313 25.7871 199.159 25.6299 201.059 25.2539L201.251 26.5254C199.077 26.9766 197.053 27.1133 195.139 27.1133H194.073V19.0605H195.577ZM214.721 17.8574V22.5469H216.622V23.791H214.721V30.2305H213.204V17.8574H214.721ZM211.331 19.0332V20.2637H207.065V25.9375C208.986 25.9375 210.503 25.8418 212.206 25.541L212.383 26.8262C210.469 27.1543 208.801 27.209 206.573 27.209H205.547V19.0332H211.331ZM219.264 19.1016L219.114 26.0879H217.569L217.405 19.1016H219.264ZM218.348 29.1094C217.76 29.1094 217.282 28.6309 217.282 28.043C217.282 27.4688 217.76 26.9902 218.348 26.9902C218.909 26.9902 219.401 27.4688 219.401 28.043C219.401 28.6309 218.909 29.1094 218.348 29.1094Z" fill="#FEFEFE"/>
<path d="M18.125 44.332C18.1133 46.2305 19.4141 48.1523 20.9492 48.8438L20.3867 49.5703C19.2031 48.9902 18.1777 47.7656 17.6797 46.2773C17.1934 47.8535 16.168 49.166 14.9492 49.7812L14.3633 49.0078C15.9102 48.293 17.1992 46.3125 17.2109 44.332V42.4336H18.125V44.332ZM23.0117 41.5312V51.9727H22.0859V41.5312H23.0117ZM32.6975 41.5312V44.707H34.2678V45.4805H32.6975V49.1602H31.7717V41.5312H32.6975ZM29.885 42.3398C29.885 45.0234 27.9631 47.0156 24.9631 47.9531L24.5647 47.2148C27.0608 46.4355 28.6897 44.9473 28.8889 43.1133H24.9983V42.3398H29.885ZM33.178 50.9531V51.7266H26.1702V48.3867H27.0842V50.9531H33.178ZM46.3503 41.5312V51.9492H45.448V46.5586H43.948V51.4102H43.0808V41.7656H43.948V45.7734H45.448V41.5312H46.3503ZM38.8972 42.8086V48.4336C39.9343 48.4219 41.0359 48.3516 42.3073 48.0938L42.4245 48.9141C40.9714 49.1719 39.7761 49.2539 38.6277 49.2539H37.9831V42.8086H38.8972ZM59.8508 46.6055V47.3555H50.3586V46.6055H59.8508ZM55.1047 48.2461C57.343 48.2344 58.6789 48.8906 58.6906 50.0859C58.6789 51.293 57.343 51.9492 55.1047 51.9492C52.843 51.9492 51.507 51.293 51.507 50.0859C51.507 48.8906 52.843 48.2344 55.1047 48.2461ZM55.1047 48.9492C53.4289 48.9492 52.4328 49.3594 52.4445 50.0859C52.4328 50.8125 53.4289 51.2227 55.1047 51.2109C56.757 51.2227 57.7648 50.8125 57.7648 50.0859C57.7648 49.3594 56.757 48.9492 55.1047 48.9492ZM55.1047 41.8008C57.3664 41.8008 58.7844 42.5508 58.7844 43.7812C58.7844 45.0234 57.3664 45.75 55.1047 45.75C52.843 45.75 51.4133 45.0234 51.4133 43.7812C51.4133 42.5508 52.843 41.8008 55.1047 41.8008ZM55.1047 42.5508C53.4172 42.5391 52.3508 43.0078 52.3625 43.7812C52.3508 44.5664 53.4172 45.0234 55.1047 45.0234C56.7687 45.0234 57.8469 44.5664 57.8469 43.7812C57.8469 43.0078 56.7687 42.5391 55.1047 42.5508ZM68.6342 41.5312V43.9805H70.2045V44.7539H68.6342V47.0859H67.7202V41.5312H68.6342ZM65.5991 42.2227V42.9844H61.8959V45.9609C63.9877 45.9609 65.1772 45.8965 66.5717 45.6094L66.6889 46.3711C65.2241 46.6641 63.9819 46.7344 61.7905 46.7344H60.9819V42.2227H65.5991ZM62.9506 47.6484V48.9492H67.7202V47.6484H68.6342V51.7734H62.0366V47.6484H62.9506ZM62.9506 51.0117H67.7202V49.6875H62.9506V51.0117ZM78.6833 41.5312V45.832H80.4294V46.5938H78.6833V51.9492H77.7692V41.5312H78.6833ZM76.7614 43.207V43.9688H70.5622V43.207H73.2458V41.6602H74.1598V43.207H76.7614ZM73.7145 44.8359C75.1911 44.8359 76.2575 45.8203 76.2692 47.2266C76.2575 48.6328 75.1911 49.6172 73.7145 49.6172C72.2262 49.6172 71.1481 48.6328 71.1598 47.2266C71.1481 45.8203 72.2262 44.8359 73.7145 44.8359ZM73.7145 45.6094C72.7419 45.6094 72.027 46.2891 72.0387 47.2266C72.027 48.1758 72.7419 48.8438 73.7145 48.832C74.6755 48.8438 75.3786 48.1758 75.3903 47.2266C75.3786 46.2891 74.6755 45.6094 73.7145 45.6094ZM84.4784 44.7305C84.4784 46.5 85.7675 48.293 87.3027 48.9609L86.787 49.6875C85.5683 49.1309 84.5136 47.9297 84.0331 46.4883C83.5409 48.0176 82.4921 49.3477 81.3027 49.9453L80.7519 49.2188C82.2402 48.5039 83.5409 46.5352 83.5527 44.7305V43.3711H81.0917V42.6094H86.9628V43.3711H84.4784V44.7305ZM89.3417 41.5312V51.9492H88.4159V41.5312H89.3417ZM96.5609 42.1289C98.1195 42.1289 99.268 43.125 99.268 44.5312C99.268 45.9492 98.1195 46.9336 96.5609 46.9453C95.0023 46.9336 93.8422 45.9492 93.8539 44.5312C93.8422 43.125 95.0023 42.1289 96.5609 42.1289ZM96.5609 42.9023C95.5414 42.9023 94.7445 43.5938 94.7562 44.5312C94.7445 45.4922 95.5414 46.1836 96.5609 46.1836C97.5922 46.1836 98.3656 45.4922 98.3656 44.5312C98.3656 43.5938 97.5922 42.9023 96.5609 42.9023ZM101.799 41.5312V43.8867H103.37V44.6484H101.799V46.7461H100.885V41.5312H101.799ZM95.6586 47.8711V50.9062C96.2621 50.8887 97.0648 50.8008 97.8031 50.5547L97.9437 51.293C96.9242 51.6328 95.9398 51.668 95.2602 51.668H94.768V47.8711H95.6586ZM102.842 47.918V48.6328H97.5805V47.918H99.7719V46.9922H100.674V47.918H102.842ZM100.205 48.9844C101.342 48.9844 102.151 49.5586 102.162 50.4609C102.151 51.3633 101.342 51.9258 100.205 51.9258C99.057 51.9258 98.2602 51.3633 98.2719 50.4609C98.2602 49.5586 99.057 48.9844 100.205 48.9844ZM100.205 49.6523C99.5609 49.6523 99.0922 49.9805 99.0922 50.4609C99.0922 50.9531 99.5609 51.2695 100.205 51.2695C100.862 51.2695 101.319 50.9531 101.319 50.4609C101.319 49.9805 100.862 49.6523 100.205 49.6523ZM106.575 42.3398C108.11 42.3516 109.2 43.7578 109.212 45.9727C109.2 48.1875 108.11 49.5938 106.575 49.5938C105.028 49.5938 103.95 48.1875 103.95 45.9727C103.95 43.7578 105.028 42.3516 106.575 42.3398ZM106.575 43.1602C105.544 43.1719 104.817 44.2734 104.817 45.9727C104.817 47.6719 105.544 48.7734 106.575 48.7734C107.618 48.7734 108.321 47.6719 108.321 45.9727C108.321 44.2734 107.618 43.1719 106.575 43.1602ZM111.848 41.5312V45.6914H113.594V46.4883H111.848V51.9492H110.934V41.5312H111.848ZM118.118 42.668V48.5039C119.243 48.4922 120.31 48.4277 121.564 48.1641L121.692 48.9609C120.298 49.2539 119.138 49.3125 117.86 49.3125H117.204V42.668H118.118ZM125.607 41.5312V51.9492H124.728V41.5312H125.607ZM123.38 41.7891V51.4219H122.501V45.8086H120.122V45.0469H122.501V41.7891H123.38ZM135.257 47.168V47.918H128.05V42.4336H135.14V43.207H128.988V44.7539H134.917V45.4922H128.988V47.168H135.257ZM136.359 49.8281V50.5898H126.82V49.8281H136.359ZM145.576 41.543V51.9609H144.638V49.3711H142.236V48.668H144.638V41.543H145.576ZM136.904 47.0273C138.896 47.0273 141.533 47.0156 143.83 46.6875L143.888 47.3789C142.857 47.5547 141.785 47.6602 140.748 47.7188V51.6328H139.822V47.7656C138.82 47.8066 137.871 47.8125 137.033 47.8125L136.904 47.0273ZM140.338 42.0586C141.884 42.0586 142.963 42.8906 142.963 44.1094C142.963 45.3516 141.884 46.1484 140.338 46.1484C138.779 46.1484 137.701 45.3516 137.701 44.1094C137.701 42.8906 138.779 42.0586 140.338 42.0586ZM140.338 42.7734C139.283 42.7734 138.556 43.3242 138.568 44.1094C138.556 44.9062 139.283 45.4336 140.338 45.4336C141.357 45.4336 142.095 44.9062 142.095 44.1094C142.095 43.3242 141.357 42.7734 140.338 42.7734ZM152.625 42.2578C152.613 44.918 151.09 46.8633 147.738 47.8477L147.387 47.0977C149.168 46.5879 150.34 45.8203 150.996 44.8477L147.469 45.1289L147.305 44.3672L151.359 44.168C151.512 43.8047 151.599 43.418 151.64 43.0078H147.832V42.2578H152.625ZM155.683 41.543V47.8125H154.769V41.543H155.683ZM152.226 47.9531C154.383 47.9531 155.73 48.6797 155.73 49.9336C155.73 51.2109 154.383 51.9258 152.226 51.9258C150.047 51.9258 148.699 51.2109 148.699 49.9336C148.699 48.6797 150.047 47.9531 152.226 47.9531ZM152.226 48.6797C150.609 48.6797 149.613 49.1602 149.613 49.9336C149.613 50.7188 150.609 51.1992 152.226 51.1992C153.82 51.1992 154.828 50.7188 154.828 49.9336C154.828 49.1602 153.82 48.6797 152.226 48.6797ZM169.524 49.8398V50.6133H159.985V49.8398H162.352V47.0273C161.461 46.5645 160.922 45.8145 160.922 44.8711C160.922 43.2539 162.504 42.1992 164.731 42.1875C166.957 42.1992 168.539 43.2539 168.539 44.8711C168.539 45.7969 168.018 46.541 167.157 47.0039V49.8398H169.524ZM164.731 42.9492C163.02 42.9375 161.813 43.7109 161.813 44.8711C161.813 46.0312 163.02 46.8164 164.731 46.8164C166.43 46.8164 167.649 46.0312 167.649 44.8711C167.649 43.7109 166.43 42.9375 164.731 42.9492ZM163.254 49.8398H166.231V47.3555C165.78 47.4785 165.276 47.543 164.731 47.543C164.198 47.543 163.7 47.4844 163.254 47.3672V49.8398ZM173.667 43.7695C173.667 45.0703 174.792 46.2305 176.327 46.6875L175.881 47.4023C174.674 47.0449 173.708 46.2539 173.245 45.2227C172.788 46.3652 171.838 47.2617 170.596 47.6719L170.151 46.9688C171.686 46.4531 172.764 45.1875 172.764 43.7695V43.5469H170.409V42.8086H172.764V41.4844H173.69V42.8086H176.022V43.5469H173.667V43.7695ZM178.753 41.5312V47.8477H177.827V45.2812H175.694V44.5195H177.827V41.5312H178.753ZM175.295 48.1289C177.463 48.1289 178.788 48.8086 178.788 50.0273C178.788 51.2344 177.463 51.9258 175.295 51.9258C173.128 51.9258 171.803 51.2344 171.803 50.0273C171.803 48.8086 173.128 48.1289 175.295 48.1289ZM175.295 48.8438C173.702 48.8555 172.706 49.2891 172.717 50.0273C172.706 50.7539 173.702 51.1992 175.295 51.1992C176.901 51.1992 177.874 50.7539 177.874 50.0273C177.874 49.2891 176.901 48.8555 175.295 48.8438ZM188.837 41.5312V51.9727H187.911V41.5312H188.837ZM183.294 42.3398C184.841 42.3516 185.954 43.7578 185.954 45.9727C185.954 48.1875 184.841 49.5938 183.294 49.5938C181.735 49.5938 180.634 48.1875 180.634 45.9727C180.634 43.7578 181.735 42.3516 183.294 42.3398ZM183.294 43.1602C182.251 43.1719 181.524 44.2734 181.524 45.9727C181.524 47.6719 182.251 48.7734 183.294 48.7734C184.337 48.7734 185.063 47.6719 185.063 45.9727C185.063 44.2734 184.337 43.1719 183.294 43.1602ZM197.075 43.5C197.075 44.5547 198.118 45.4453 199.595 45.7734L199.22 46.5117C198.019 46.2188 197.093 45.5801 196.642 44.7305C196.191 45.6504 195.253 46.3477 194.017 46.6523L193.618 45.9141C195.118 45.5859 196.161 44.6133 196.161 43.5V43.4531H193.841V42.7266H196.161V41.5664H197.075V42.7266H199.396V43.4531H197.075V43.5ZM201.74 41.543V51.9609H200.837V41.543H201.74ZM193.126 47.3906C195.118 47.3906 197.767 47.3672 200.075 47.0742L200.134 47.7422C199.138 47.9062 198.107 48.0059 197.099 48.0586V51.6445H196.185V48.1055C195.13 48.1582 194.128 48.1641 193.255 48.1641L193.126 47.3906ZM212.82 49.8281V50.5898H203.281V49.8281H207.546V47.2734H208.449V49.8281H212.82ZM208.472 43.043C208.472 44.7891 210.535 46.3125 212.351 46.6289L211.941 47.3906C210.353 47.0684 208.677 45.9902 208.003 44.4844C207.318 45.9844 205.654 47.0684 204.066 47.3906L203.656 46.6289C205.472 46.3125 207.511 44.7891 207.511 43.043V42.2461H208.472V43.043ZM219.623 46.0312V46.793H217.338V48.8438C218.357 48.8027 219.383 48.7324 220.349 48.6211L220.42 49.3125C218.111 49.6523 215.592 49.6875 213.599 49.6875L213.47 48.9141C214.379 48.9141 215.386 48.9082 216.424 48.8789V46.793H214.267V42.5273H219.576V43.2773H215.17V46.0312H219.623ZM221.955 41.5312V51.9727H221.041V41.5312H221.955ZM227.129 48.5156C227.129 49.4473 227.621 50.4316 228.617 51C229.613 50.3789 230.129 49.3184 230.129 48.5156V47.8828H231.031V48.5156C231.031 49.5938 231.805 50.6719 233.164 51.1289L232.684 51.8203C231.646 51.4453 230.92 50.7129 230.574 49.8281C230.24 50.6836 229.602 51.4863 228.629 51.9023C227.627 51.5215 226.988 50.748 226.672 49.875C226.297 50.7129 225.582 51.4395 224.586 51.8203L224.129 51.1289C225.453 50.6484 226.238 49.5234 226.25 48.5156V47.8828H227.129V48.5156ZM226.414 42.1289C227.785 42.1289 228.857 42.9492 229.062 44.1562H231.254V41.5312H232.18V47.4844H231.254V44.918H229.074C228.893 46.166 227.809 47.0039 226.414 47.0039C224.855 47.0039 223.719 46.0078 223.719 44.5664C223.719 43.1367 224.855 42.1289 226.414 42.1289ZM226.414 42.9141C225.371 42.9023 224.598 43.5938 224.609 44.5664C224.598 45.5273 225.371 46.2305 226.414 46.2422C227.434 46.2305 228.207 45.5273 228.207 44.5664C228.207 43.5938 227.434 42.9023 226.414 42.9141ZM235.795 47.7891V49.0078H240.998V47.7891H241.924V51.8086H234.881V47.7891H235.795ZM235.795 51.0703H240.998V49.7344H235.795V51.0703ZM243.166 46.2891V47.0508H233.674V46.2891H243.166ZM238.901 42.1406C238.901 43.4297 240.799 44.5781 242.627 44.8125L242.287 45.5508C240.67 45.3105 239.088 44.4844 238.432 43.3125C237.764 44.4902 236.17 45.3105 234.565 45.5508L234.213 44.8125C236.065 44.5664 237.951 43.4648 237.951 42.1406V41.6484H238.901V42.1406ZM252.395 41.5312V51.9492H251.481V41.5312H252.395ZM245.387 42.5625V48.4688C246.975 48.4629 248.622 48.334 250.368 47.9648L250.497 48.75C248.645 49.1367 246.993 49.2656 245.329 49.2656H244.485V42.5625H245.387ZM261.999 41.5312V45.6562H263.745V46.4297H261.999V51.9727H261.085V41.5312H261.999ZM259.257 42.5508V43.3125H255.307V48.5859C257.194 48.5859 258.53 48.498 260.077 48.2109L260.194 49.0078C258.565 49.3008 257.194 49.3594 255.214 49.3594H254.393V42.5508H259.257ZM265.169 51.0703C264.759 51.0703 264.407 50.7305 264.419 50.3086C264.407 49.8984 264.759 49.5586 265.169 49.5586C265.579 49.5586 265.919 49.8984 265.919 50.3086C265.919 50.7305 265.579 51.0703 265.169 51.0703Z" fill="#A6A6A6"/>
<path d="M21.6892 71.5156V80H20.6814L16.0877 73.3906H16.0056V80H14.9509V71.5156H15.9705L20.5642 78.1367H20.6462V71.5156H21.6892ZM30.0625 71.5156V80H29.0547L24.4609 73.3906H24.3789V80H23.3242V71.5156H24.3438L28.9375 78.1367H29.0195V71.5156H30.0625Z" fill="#A6A6A6"/>
<path d="M41.447 76.0508V76.8008H37.2048V78.8398H36.2908V76.8008H31.908V76.0508H41.447ZM40.3806 79.9531V80.7266H33.1267V77.8789H34.0408V79.9531H40.3806ZM34.0994 70.8711V72.207H39.2556V70.8711H40.1697V75.0312H33.1853V70.8711H34.0994ZM34.0994 74.2812H39.2556V72.9102H34.0994V74.2812ZM50.6875 70.543V78.1836H49.7617V74.1875H47.6172V73.4258H49.7617V70.543H50.6875ZM50.9805 79.9531V80.7266H43.9961V77.4922H44.9219V79.9531H50.9805ZM45.6719 72.6875C45.6719 74.0352 46.7148 75.3477 48.2383 75.8633L47.7578 76.6016C46.5801 76.1797 45.6719 75.3008 45.2266 74.2227C44.7754 75.4238 43.8145 76.3848 42.5781 76.8477L42.0977 76.0977C43.6328 75.5586 44.7461 74.1875 44.7461 72.6875V72.1484H42.3906V71.3867H48.0039V72.1484H45.6719V72.6875Z" fill="#A6A6A6"/>
</svg>
