<svg width="335" height="77" viewBox="0 0 335 77" fill="none" xmlns="http://www.w3.org/2000/svg">
<path d="M0 12C0 5.37258 5.37258 0 12 0H323C329.627 0 335 5.37258 335 12V65C335 71.6274 329.627 77 323 77H12C5.37259 77 0 71.6274 0 65V12Z" fill="#3A3A3A"/>
<path d="M25.0742 17.8574V30.2168H23.6113V23.8867H22.2988V29.6152H20.8633V18.0762H22.2988V22.6289H23.6113V17.8574H25.0742ZM19.6465 19.1973V27.0312H14.793V19.1973H19.6465ZM16.2148 20.4004V25.8281H18.2246V20.4004H16.2148ZM33.4179 19.2383V20.4414H30.7792C30.7861 21.8154 31.8661 23.1621 33.8417 23.6816L33.1308 24.8574C31.6952 24.4814 30.6425 23.6338 30.0683 22.5469C29.5077 23.7568 28.455 24.707 26.9784 25.1445L26.2402 23.9688C28.2021 23.3945 29.2548 21.9248 29.2616 20.4414H26.623V19.2383H29.2616V17.8711H30.7929V19.2383H33.4179ZM36.3847 17.8711V25.3633H34.8534V17.8711H36.3847ZM32.2011 25.582C34.7987 25.582 36.412 26.4297 36.412 27.8926C36.412 29.3555 34.7987 30.2031 32.2011 30.2031C29.5761 30.2031 27.9765 29.3555 27.9765 27.8926C27.9765 26.4297 29.5761 25.582 32.2011 25.582ZM32.2011 26.7578C30.4511 26.7578 29.5077 27.168 29.5077 27.8926C29.5077 28.6309 30.4511 29.0273 32.2011 29.0273C33.9374 29.0273 34.9081 28.6309 34.9218 27.8926C34.9081 27.168 33.9374 26.7578 32.2011 26.7578ZM51.9373 23.7227V24.9258H40.6716V23.7227H51.9373ZM46.2908 25.7324C48.9568 25.7188 50.5564 26.5254 50.5701 27.9746C50.5564 29.4102 48.9568 30.2168 46.2908 30.2168C43.5974 30.2168 41.9841 29.4102 41.9841 27.9746C41.9841 26.5254 43.5974 25.7188 46.2908 25.7324ZM46.2908 26.8809C44.4861 26.8809 43.5154 27.25 43.5291 27.9746C43.5154 28.6855 44.4861 29.041 46.2908 29.041C48.0545 29.041 49.0388 28.6855 49.0525 27.9746C49.0388 27.25 48.0545 26.8809 46.2908 26.8809ZM46.2908 18.1445C48.9978 18.1445 50.7341 19.0605 50.7478 20.5371C50.7341 22.041 48.9978 22.9297 46.2908 22.9297C43.5837 22.9297 41.8337 22.041 41.8337 20.5371C41.8337 19.0605 43.5837 18.1445 46.2908 18.1445ZM46.2908 19.334C44.4861 19.334 43.406 19.7441 43.4197 20.5371C43.406 21.3301 44.4861 21.7402 46.2908 21.7402C48.0955 21.7402 49.1755 21.3301 49.1755 20.5371C49.1755 19.7441 48.0955 19.334 46.2908 19.334ZM62.0993 17.8574V20.6055H63.822V21.8633H62.0993V24.4609H60.5817V17.8574H62.0993ZM58.3669 18.623V19.8535H54.3747V22.8887C56.6989 22.8818 57.9909 22.8135 59.4606 22.4922L59.6247 23.7227C58.0114 24.0645 56.5622 24.1328 53.8688 24.1328H52.8708V18.623H58.3669ZM55.6052 25.0762V26.3477H60.5817V25.0762H62.0993V30.0391H54.0876V25.0762H55.6052ZM55.6052 28.8086H60.5817V27.5508H55.6052V28.8086ZM71.6089 20.8242C71.5952 23.0938 72.7847 25.3633 74.7945 26.2246L73.8921 27.4414C72.4702 26.7852 71.4243 25.4727 70.857 23.8594C70.2896 25.6025 69.23 27.0244 67.7261 27.7285L66.7964 26.457C68.8609 25.5684 70.064 23.2031 70.064 20.8242V18.8555H71.6089V20.8242ZM77.2144 17.8574V30.2305H75.6831V17.8574H77.2144ZM88.3608 17.8574V21.4121H90.0834V22.6836H88.3608V26.7715H86.8159V17.8574H88.3608ZM84.9975 18.8008C84.9975 22.082 82.8647 24.4199 79.2006 25.4863L78.5717 24.2832C81.395 23.4697 83.0766 21.9316 83.3432 20.0449H79.0912V18.8008H84.9975ZM88.8256 28.7402V29.9707H80.4174V25.8555H81.9623V28.7402H88.8256ZM100.574 17.8574V30.2305H99.0423V17.8574H100.574ZM93.9154 18.7598C95.7748 18.7598 97.1283 20.4551 97.142 23.1211C97.1283 25.8145 95.7748 27.4961 93.9154 27.4961C92.0423 27.4961 90.6888 25.8145 90.6888 23.1211C90.6888 20.4551 92.0423 18.7598 93.9154 18.7598ZM93.9154 20.127C92.8627 20.127 92.1517 21.2344 92.1517 23.1211C92.1517 25.0215 92.8627 26.1289 93.9154 26.1289C94.9545 26.1289 95.6654 25.0215 95.6654 23.1211C95.6654 21.2344 94.9545 20.127 93.9154 20.127ZM116.167 27.5098V28.7539H104.874V27.5098H109.755V24.9531H111.259V27.5098H116.167ZM115.155 19.6484V20.8789H111.3C111.403 22.417 113.009 23.832 115.675 24.1875L115.114 25.377C112.975 25.0762 111.327 24.126 110.507 22.7656C109.687 24.126 108.053 25.0762 105.913 25.377L105.339 24.1875C108.019 23.832 109.618 22.417 109.741 20.8789H105.872V19.6484H109.755V18.0488H111.259V19.6484H115.155ZM123.458 19.1426V20.0176C123.458 21.125 123.458 22.6699 123.116 24.8027L121.612 24.6797C121.906 22.8066 121.941 21.4258 121.954 20.3594H117.101V19.1426H123.458ZM120.341 22.6699V26.3203C121.599 26.2725 122.891 26.1836 124.073 26.0332L124.155 27.168C121.599 27.5781 118.769 27.6328 116.595 27.6191L116.444 26.4023C117.176 26.3955 117.989 26.3887 118.837 26.3613V22.6699H120.341ZM126.247 17.8574V22.8887H128.038V24.1738H126.247V30.2168H124.716V17.8574H126.247ZM135.589 22.9844V24.2148H133.087V26.375C134.167 26.3271 135.247 26.252 136.272 26.1426L136.396 27.2637C133.675 27.6738 130.817 27.7012 128.48 27.7012L128.288 26.4434C129.307 26.4502 130.421 26.4502 131.569 26.416V24.2148H129.149V18.9922H135.534V20.1953H130.653V22.9844H135.589ZM138.528 17.8574V30.2305H137.011V17.8574H138.528ZM143.29 18.7598C144.965 18.7598 146.202 20.1543 146.421 22.4102H148.772V17.8574H150.276V30.2305H148.772V23.6406H146.435C146.27 26.0264 145.013 27.4961 143.29 27.4961C141.431 27.4961 140.118 25.8145 140.118 23.1211C140.118 20.4551 141.431 18.7598 143.29 18.7598ZM143.29 20.127C142.265 20.127 141.567 21.2344 141.581 23.1211C141.567 25.0215 142.265 26.1289 143.29 26.1289C144.315 26.1289 144.999 25.0215 145.013 23.1211C144.999 21.2344 144.315 20.127 143.29 20.127ZM158.925 21.3711C158.925 23.2852 160.059 25.459 162.014 26.3613L161.167 27.5645C159.772 26.9082 158.74 25.582 158.186 24.0371C157.626 25.7324 156.546 27.1816 155.124 27.8652L154.235 26.6758C156.204 25.7461 157.393 23.4219 157.407 21.3711V20.332H154.714V19.0742H161.509V20.332H158.925V21.3711ZM164.175 17.8574V22.6699H166.075V23.9414H164.175V30.2168H162.657V17.8574H164.175ZM177.454 23.7773V24.9941H166.175V23.7773H171.069V22.6016H167.555V18.418H176.087V19.6074H169.073V21.3984H176.155V22.6016H172.559V23.7773H177.454ZM171.794 25.7051C174.46 25.7051 176.059 26.5117 176.073 27.9609C176.059 29.3965 174.46 30.2168 171.794 30.2168C169.1 30.2168 167.487 29.3965 167.487 27.9609C167.487 26.5117 169.1 25.7051 171.794 25.7051ZM171.794 26.8672C169.989 26.8672 169.018 27.25 169.032 27.9609C169.018 28.6719 169.989 29.041 171.794 29.041C173.557 29.041 174.542 28.6719 174.555 27.9609C174.542 27.25 173.557 26.8672 171.794 26.8672ZM188.18 19.1562V20.3457H185.624C185.651 21.4121 186.628 22.3623 188.454 22.7246L187.852 23.9004C186.437 23.6064 185.432 22.9434 184.885 22.0547C184.345 23.0254 183.334 23.7568 181.878 24.0645L181.235 22.8887C183.087 22.5264 184.072 21.4805 184.092 20.3457H181.549V19.1562H184.106V17.8848H185.624V19.1562H188.18ZM191.092 17.8711V30.2031H189.588V17.8711H191.092ZM180.77 24.707C183.067 24.707 186.143 24.6934 188.782 24.3652L188.891 25.459C187.825 25.6436 186.717 25.7598 185.637 25.8281V29.834H184.106V25.9102C182.978 25.958 181.905 25.9648 180.961 25.9648L180.77 24.707ZM203.729 27.4551V28.6855H192.436V27.4551H197.276V24.5977H198.78V27.4551H203.729ZM198.821 19.5117C198.821 21.3848 200.694 23.2305 203.291 23.6406L202.635 24.8984C200.543 24.502 198.834 23.3057 198.014 21.6855C197.194 23.2988 195.499 24.5156 193.42 24.8984L192.764 23.6406C195.348 23.2305 197.194 21.3711 197.208 19.5117V18.6094H198.821V19.5117ZM211.471 22.9844V24.2148H208.969V26.375C210.049 26.3271 211.129 26.252 212.155 26.1426L212.278 27.2637C209.557 27.6738 206.7 27.7012 204.362 27.7012L204.17 26.4434C205.189 26.4502 206.303 26.4502 207.452 26.416V24.2148H205.032V18.9922H211.416V20.1953H206.536V22.9844H211.471ZM214.411 17.8574V30.2305H212.893V17.8574H214.411ZM220.321 25.8691C220.307 26.915 220.785 27.9951 221.852 28.6855C222.918 27.9404 223.397 26.7988 223.41 25.8691V25.2949H224.901V25.8691C224.901 27.1543 225.653 28.3984 227.307 28.918L226.541 30.0527C225.345 29.6289 224.552 28.8359 224.135 27.8379C223.725 28.8223 222.987 29.6973 221.852 30.1484C220.703 29.7178 219.972 28.877 219.569 27.8789C219.131 28.8359 218.345 29.6221 217.203 30.0527L216.465 28.918C218.065 28.3711 218.83 27.0859 218.844 25.8691V25.2949H220.321V25.8691ZM219.227 18.5137C220.806 18.5137 222.077 19.4434 222.399 20.8105H224.627V17.8574H226.145V24.8301H224.627V22.041H222.412C222.118 23.4492 220.833 24.3926 219.227 24.3926C217.354 24.3926 215.959 23.1758 215.959 21.4531C215.959 19.7441 217.354 18.5137 219.227 18.5137ZM219.227 19.7852C218.188 19.7852 217.422 20.4414 217.422 21.4531C217.422 22.4512 218.188 23.1348 219.227 23.1348C220.239 23.1348 221.004 22.4512 221.004 21.4531C221.004 20.4414 220.239 19.7852 219.227 19.7852ZM230.852 18.7598C232.527 18.7598 233.764 20.1543 233.983 22.4102H236.334V17.8574H237.838V30.2305H236.334V23.6406H233.996C233.832 26.0264 232.574 27.4961 230.852 27.4961C228.992 27.4961 227.68 25.8145 227.68 23.1211C227.68 20.4551 228.992 18.7598 230.852 18.7598ZM230.852 20.127C229.826 20.127 229.129 21.2344 229.143 23.1211C229.129 25.0215 229.826 26.1289 230.852 26.1289C231.877 26.1289 232.561 25.0215 232.574 23.1211C232.561 21.2344 231.877 20.127 230.852 20.127ZM250.447 27.4688V28.7129H239.154V27.4688H241.766V24.3379C240.781 23.7773 240.187 22.8955 240.194 21.7949C240.18 19.8262 242.121 18.5273 244.774 18.5273C247.44 18.5273 249.381 19.8262 249.381 21.7949C249.381 22.875 248.807 23.7432 247.85 24.3105V27.4688H250.447ZM244.774 19.7305C242.928 19.7305 241.67 20.5098 241.684 21.7949C241.67 23.0664 242.928 23.8594 244.774 23.8594C246.619 23.8594 247.891 23.0664 247.891 21.7949C247.891 20.5098 246.619 19.7305 244.774 19.7305ZM243.27 27.4688H246.305V24.8848C245.833 24.9941 245.32 25.0488 244.774 25.0488C244.24 25.0488 243.735 24.9941 243.27 24.8984V27.4688Z" fill="white"/>
<path d="M17.7969 50.5156V59H16.7305V51.6172H16.6836L14.6211 52.9883V51.9219L16.7305 50.5156H17.7969ZM22.8186 50.5156V59H21.7522V51.6172H21.7053L19.6428 52.9883V51.9219L21.7522 50.5156H22.8186ZM33.9927 55.0508V55.8008H29.7505V57.8398H28.8364V55.8008H24.4536V55.0508H33.9927ZM32.9263 58.9531V59.7266H25.6723V56.8789H26.5864V58.9531H32.9263ZM26.645 49.8711V51.207H31.8013V49.8711H32.7153V54.0312H25.7309V49.8711H26.645ZM26.645 53.2812H31.8013V51.9102H26.645V53.2812ZM43.2331 49.543V57.1836H42.3073V53.1875H40.1628V52.4258H42.3073V49.543H43.2331ZM43.5261 58.9531V59.7266H36.5417V56.4922H37.4675V58.9531H43.5261ZM38.2175 51.6875C38.2175 53.0352 39.2605 54.3477 40.7839 54.8633L40.3034 55.6016C39.1257 55.1797 38.2175 54.3008 37.7722 53.2227C37.321 54.4238 36.3601 55.3848 35.1238 55.8477L34.6433 55.0977C36.1784 54.5586 37.2917 53.1875 37.2917 51.6875V51.1484H34.9363V50.3867H40.5495V51.1484H38.2175V51.6875Z" fill="#B0B0B0"/>
</svg>
