<svg width="375" height="812" viewBox="0 0 375 812" fill="none" xmlns="http://www.w3.org/2000/svg">
<g clip-path="url(#clip0_6104_4251)">
<rect width="375" height="812" fill="#1F1F1F"/>
<g clip-path="url(#clip1_6104_4251)">
<rect y="144" width="375" height="1" fill="#3A3A3A" fill-opacity="0.6"/>
<mask id="path-2-inside-1_6104_4251" fill="white">
<path d="M20 99H74V145H20V99Z"/>
</mask>
<path d="M74 143H20V147H74V143Z" fill="#07CA7F" mask="url(#path-2-inside-1_6104_4251)"/>
<path d="M42.2227 115.773V128.5H39.9199V118.006H39.8496L36.8789 119.904V117.812L40.0254 115.773H42.2227ZM46.7227 126.918C45.9668 126.918 45.3516 126.303 45.3516 125.547C45.3516 124.809 45.9668 124.193 46.7227 124.193C47.4434 124.193 48.0762 124.809 48.0762 125.547C48.0762 126.303 47.4434 126.918 46.7227 126.918ZM46.7227 120.098C45.9668 120.098 45.3516 119.482 45.3516 118.727C45.3516 117.988 45.9668 117.373 46.7227 117.373C47.4434 117.373 48.0762 117.988 48.0762 118.727C48.0762 119.482 47.4434 120.098 46.7227 120.098ZM55.3887 115.773V128.5H53.0859V118.006H53.0156L50.0449 119.904V117.812L53.1914 115.773H55.3887Z" fill="#07CA7F"/>
<path d="M103.166 115.721V117.514C103.166 119.641 103.166 121.838 102.586 125.178L100.6 125.002C101.215 121.873 101.215 119.57 101.215 117.514V117.303H92.0566V115.721H103.166ZM105.012 126.285V127.885H90.5273V126.285H105.012ZM120.586 121.926V123.473H114.275V125.055H112.342V123.473H106.066V121.926H120.586ZM109.863 124.281V125.723H116.877V124.281H118.811V129.871H107.93V124.281H109.863ZM109.863 128.377H116.877V127.182H109.863V128.377ZM118.793 114.455V118.375H109.846V119.5H119.109V120.959H107.912V116.986H116.842V115.932H107.859V114.455H118.793Z" fill="#858585"/>
</g>
<path d="M36.25 166.266V173.547H34.5156V166.266H36.25ZM36.25 174.141V177.781H28.5312V178.891H36.7031V180.266H26.8125V176.516H34.5312V175.5H26.7812V174.141H36.25ZM32.75 167.172V168.516H31.4844V171.594C32.125 171.539 32.75 171.477 33.3438 171.406L33.4219 172.656C30.6094 173.094 27.3594 173.188 24.8906 173.188L24.7031 171.812C25.2109 171.812 25.75 171.805 26.3125 171.797V168.516H25.0781V167.172H32.75ZM27.9844 171.766C28.5938 171.75 29.2109 171.727 29.8281 171.688V168.516H27.9844V171.766ZM49.8206 166.266V180.406H48.1019V172.781H45.4456V171.375H48.1019V166.266H49.8206ZM45.2269 167.484V168.906H40.3675V171.438H44.6644V172.812H40.3675V175.719C42.5159 175.711 44.1253 175.641 45.9456 175.344L46.1175 176.75C44.055 177.062 42.2581 177.141 39.7269 177.156H38.6175V167.484H45.2269Z" fill="#FEFEFE"/>
<g clip-path="url(#clip2_6104_4251)">
<path d="M56.6666 170.333H62.6666" stroke="white" stroke-linecap="round" stroke-linejoin="round"/>
<path d="M65.3334 170.333H67.3334" stroke="white" stroke-linecap="round" stroke-linejoin="round"/>
<path d="M61.3334 175.667H67.3334" stroke="white" stroke-linecap="round" stroke-linejoin="round"/>
<path d="M56.6666 175.667H58.6666" stroke="white" stroke-linecap="round" stroke-linejoin="round"/>
<circle cx="60" cy="175.667" r="1.33333" stroke="white"/>
<ellipse cx="64" cy="170.333" rx="1.33333" ry="1.33333" stroke="white"/>
</g>
<rect x="80" y="158" width="1" height="30" fill="#3A3A3A"/>
<path d="M20 213C20 206.373 25.3726 201 32 201H343C349.627 201 355 206.373 355 213V325C355 331.627 349.627 337 343 337H32C25.3726 337 20 331.627 20 325V213Z" fill="#373734"/>
<path d="M36 241C36 227.745 46.7452 217 60 217C73.2548 217 84 227.745 84 241C84 254.255 73.2548 265 60 265C46.7452 265 36 254.255 36 241Z" fill="#1F1F1F"/>
<path d="M72.2514 236.781C72.4217 236.772 72.5919 236.758 72.7621 236.758C73.112 236.753 73.4667 236.758 73.8119 236.758C73.8686 236.947 73.8828 241.259 73.8308 241.599C73.3154 241.599 72.7952 241.599 72.2467 241.599C72.2467 242.966 72.2467 244.299 72.2467 245.637C72.2467 246.975 72.2467 248.313 72.2467 249.679C71.7171 249.679 71.2064 249.679 70.6579 249.679C70.6579 250.233 70.6579 250.757 70.6579 251.306C69.5608 251.306 68.5016 251.306 67.4235 251.306C67.4235 251.864 67.4235 252.398 67.4235 252.956C67.9484 252.956 68.4685 252.956 69.0029 252.956C69.0029 254.048 69.0029 255.117 69.0029 256.204C68.4732 256.204 67.9531 256.204 67.4093 256.204C67.4093 256.738 67.4093 257.249 67.4093 257.778C64.7093 257.778 62.0329 257.778 59.3234 257.778C59.3045 257.268 59.3281 256.752 59.3092 256.218C58.7654 256.218 58.2358 256.218 57.6873 256.218C57.6873 256.743 57.6873 257.254 57.6873 257.778C54.9872 257.778 52.3108 257.778 49.6061 257.778C49.5777 257.268 49.6108 256.748 49.5871 256.204C49.0528 256.204 48.5327 256.204 47.9983 256.204C47.9983 255.112 47.9983 254.043 47.9983 252.956C48.5327 252.956 49.0528 252.956 49.5966 252.956C49.5966 251.864 49.5966 250.795 49.5966 249.689C50.1498 249.689 50.6747 249.689 51.2138 249.689C51.2138 248.601 51.2138 247.552 51.2138 246.469C50.6795 246.469 50.1546 246.469 49.6013 246.469C49.6013 245.921 49.6013 245.401 49.6013 244.852C49.0575 244.852 48.5374 244.852 47.9889 244.852C47.9794 244.285 47.97 243.75 47.9936 243.211L47.9841 243.221C48.5137 243.221 49.0434 243.221 49.5919 243.221C49.5919 243.089 49.5919 242.989 49.5919 242.89C49.5919 240.441 49.5919 237.987 49.5919 235.538C49.5919 235.401 49.5871 235.264 49.5871 235.127L49.5777 235.131C50.1215 235.131 50.6653 235.127 51.2327 235.127C51.2327 234.569 51.2327 234.049 51.2327 233.528L51.228 233.533C51.3131 233.524 51.3982 233.51 51.4786 233.51C51.8522 233.505 52.2304 233.51 52.604 233.51C52.6749 233.51 52.7506 233.495 52.8263 233.491C52.8263 232.937 52.8263 232.408 52.8263 231.883L52.8168 231.888C54.434 231.888 56.0512 231.888 57.6684 231.888L57.6589 231.878C57.6684 232.413 57.6731 232.947 57.6825 233.51C58.2358 233.51 58.7607 233.519 59.3045 233.505C59.3045 233.368 59.3045 233.264 59.3045 233.164C59.3092 232.734 59.3139 232.309 59.3186 231.878L59.3092 231.888C60.9264 231.888 62.5436 231.888 64.1608 231.888L64.1513 231.883C64.1513 232.417 64.1513 232.952 64.1513 233.514C64.3452 233.514 64.5154 233.51 64.6809 233.514C65.0403 233.519 65.3949 233.528 65.7543 233.538L65.7496 233.533C65.7543 234.058 65.7638 234.588 65.7685 235.136C66.3312 235.136 66.8655 235.136 67.4046 235.136L67.3951 235.131C67.3951 235.164 67.3904 235.197 67.3904 235.235C67.3904 237.826 67.3904 240.417 67.3904 243.003C67.3904 243.07 67.3951 243.136 67.4046 243.235C67.9389 243.235 68.4638 243.235 68.9839 243.235C68.9934 243.656 68.9981 244.072 69.0076 244.493C69.0076 244.601 69.0076 244.71 69.0076 244.852C68.4638 244.852 67.9437 244.852 67.3904 244.852C67.3904 245.405 67.3904 245.93 67.3904 246.469C66.8277 246.483 66.3028 246.46 65.7779 246.483C65.7779 247.566 65.7779 248.62 65.7779 249.665C66.1042 249.722 68.8137 249.708 69.017 249.642C69.017 249.131 69.017 248.611 69.017 248.062C69.5703 248.062 70.0952 248.062 70.6248 248.062C70.6248 246.441 70.6248 244.847 70.6248 243.245C70.0668 243.245 69.5183 243.245 68.9745 243.245C68.9839 243.159 69.0029 243.079 69.0029 242.994C69.0076 242.625 69.0029 242.256 69.0029 241.888C69.0029 241.802 69.0029 241.722 69.0029 241.604C69.5608 241.604 70.0904 241.604 70.639 241.604C70.639 241.051 70.639 240.531 70.639 239.977C71.178 239.977 71.6982 239.977 72.2325 239.977C72.2325 239.859 72.2325 239.779 72.2325 239.694C72.2325 239.155 72.2325 238.611 72.2325 238.072C72.2325 237.642 72.242 237.216 72.242 236.786L72.2514 236.781ZM60.8933 252.937C61.3992 252.946 61.9052 252.951 62.4112 252.961C62.4537 252.961 62.4915 252.951 62.5577 252.942C62.5577 252.393 62.5577 251.859 62.5577 251.329C62.0849 251.282 61.1155 251.301 60.9264 251.358C60.9264 251.703 60.9311 252.058 60.9264 252.407C60.9264 252.587 60.9122 252.767 60.9027 252.946C60.3826 252.956 59.8624 252.961 59.3281 252.97C59.3281 253.514 59.3281 254.039 59.3281 254.568C59.8672 254.568 60.3873 254.568 60.9216 254.568C60.9216 254.043 60.9216 253.537 60.9216 253.036C60.9216 253.003 60.9027 252.97 60.8933 252.937ZM56.089 252.937C56.0795 252.979 56.0606 253.017 56.0606 253.06C56.0606 253.533 56.0606 254.005 56.0606 254.478C56.0606 254.507 56.0795 254.54 56.089 254.587C56.6186 254.587 57.134 254.596 57.6542 254.582C57.6542 254.029 57.6542 253.509 57.6542 252.961C57.5501 252.961 57.4556 252.961 57.3657 252.961C56.9354 252.956 56.5098 252.951 56.0795 252.946C56.0701 252.511 56.0606 252.072 56.0559 251.637C56.0559 251.537 56.0559 251.438 56.0559 251.329C55.4979 251.329 54.973 251.329 54.4387 251.329C54.4387 251.873 54.4387 252.403 54.4387 252.961C54.5853 252.961 54.7224 252.961 54.8548 252.961C55.2709 252.951 55.6823 252.946 56.089 252.937ZM51.2374 252.965C51.2374 254.057 51.2374 255.121 51.2374 256.185C51.7765 256.185 52.2966 256.185 52.8121 256.185C52.8593 255.793 52.8452 253.154 52.7931 252.965C52.2825 252.965 51.767 252.965 51.2374 252.965ZM64.1702 252.97C64.1702 254.057 64.1702 255.126 64.1702 256.19C64.7093 256.19 65.2247 256.19 65.7496 256.19C65.7496 255.107 65.7496 254.043 65.7496 252.97C65.2152 252.97 64.7045 252.97 64.1702 252.97ZM52.8452 238.37C52.8452 239.453 52.8452 240.512 52.8452 241.58C53.3748 241.58 53.8949 241.58 54.4151 241.58C54.4151 240.502 54.4151 239.443 54.4151 238.37C53.8902 238.37 53.3795 238.37 52.8452 238.37ZM64.1371 241.585C64.1371 240.502 64.1371 239.443 64.1371 238.389C63.8818 238.337 62.7705 238.342 62.5672 238.394C62.5672 239.453 62.5672 240.507 62.5672 241.585C63.0921 241.585 63.6028 241.585 64.1371 241.585ZM57.6825 239.987C57.6731 240.526 57.6731 241.051 57.6778 241.599C58.2405 241.599 58.7654 241.609 59.295 241.59C59.295 241.037 59.295 240.516 59.295 239.987C58.7607 239.987 58.2405 239.987 57.6825 239.987Z" fill="#30B6FD"/>
<path d="M47.9844 235.131C47.9797 234.909 47.9702 234.687 47.9702 234.465C47.9702 233.708 47.9702 232.956 47.9702 232.2C47.9702 232.105 47.9702 232.015 47.9702 231.897C48.5045 231.897 49.0247 231.897 49.5827 231.897C49.5827 231.349 49.5827 230.824 49.5827 230.261C50.1454 230.261 50.6703 230.261 51.2188 230.261C51.2188 229.722 51.2188 229.217 51.2188 228.678C51.7578 228.654 52.2874 228.682 52.836 228.663C52.836 228.12 52.836 227.6 52.836 227.061C56.6141 227.061 60.3687 227.061 64.1563 227.061C64.1563 227.59 64.1563 228.115 64.1563 228.673C64.7095 228.673 65.2249 228.673 65.7735 228.673C65.7735 229.212 65.7735 229.722 65.7735 230.271C66.3267 230.271 66.8516 230.271 67.4143 230.271C67.4143 231.387 67.4143 232.465 67.4143 233.543L67.419 233.533C66.8658 233.533 66.3173 233.533 65.764 233.533L65.7687 233.538C65.7687 232.994 65.7687 232.45 65.7687 231.883C65.2202 231.883 64.6906 231.883 64.1657 231.883L64.1752 231.888C64.1705 231.358 64.161 230.829 64.1563 230.285C62.5391 230.285 60.9408 230.285 59.3284 230.285C59.3284 230.829 59.3284 231.358 59.3284 231.888L59.3378 231.878C58.7846 231.878 58.2313 231.878 57.6781 231.878L57.6875 231.888C57.6875 231.623 57.6923 231.358 57.6923 231.089C57.6923 230.819 57.7017 230.545 57.6828 230.28C56.0562 230.28 54.4673 230.28 52.8454 230.28C52.8454 230.389 52.8454 230.484 52.8454 230.573C52.8407 231.008 52.836 231.448 52.8312 231.883L52.8407 231.878C52.3064 231.883 51.7768 231.888 51.2377 231.888C51.2377 232.46 51.2377 232.999 51.2377 233.533L51.2424 233.528C50.7034 233.491 50.1596 233.514 49.5969 233.514C49.5969 233.642 49.5969 233.736 49.5969 233.826C49.5921 234.261 49.5874 234.696 49.5827 235.131L49.5921 235.127C49.0578 235.127 48.5235 235.127 47.9891 235.127C47.9749 235.127 47.9844 235.131 47.9844 235.131Z" fill="#30B6FD"/>
<path d="M68.9981 235.136C69.5372 235.136 70.0763 235.136 70.6295 235.136C70.6295 231.893 70.6295 228.678 70.6295 225.444C70.0905 225.444 69.5656 225.444 69.0123 225.444C69.0123 225.978 69.0123 226.498 69.0123 227.032C68.4638 227.032 67.9484 227.032 67.4141 227.032C67.4141 225.964 67.4141 224.9 67.4141 223.822C69.0123 223.822 70.6059 223.822 72.2325 223.822C72.2372 223.917 72.242 224.011 72.242 224.11C72.242 225.846 72.242 227.581 72.242 229.316C72.242 231.694 72.242 234.072 72.242 236.451C72.242 236.564 72.2467 236.673 72.2467 236.786L72.2514 236.781C72.1474 236.777 72.0481 236.763 71.9441 236.763C71.0598 236.763 70.1803 236.763 69.2961 236.763C69.2062 236.763 69.1116 236.753 69.0029 236.748C69.0029 236.19 69.0029 235.661 69.0029 235.131L68.9981 235.136Z" fill="#30B6FD"/>
<path d="M47.9843 243.217C46.8967 243.217 45.8092 243.217 44.6932 243.217C44.6932 242.682 44.6932 242.162 44.6932 241.609C44.1589 241.609 43.6529 241.609 43.1233 241.609C43.1233 239.983 43.1233 238.394 43.1233 236.786C43.1658 236.777 43.2037 236.758 43.2415 236.758C43.686 236.758 44.1352 236.758 44.5797 236.758C44.6128 236.758 44.6459 236.772 44.679 236.782L44.6743 236.777C44.679 236.872 44.6837 236.966 44.6837 237.061C44.6837 237.935 44.6837 238.81 44.6837 239.689C44.6837 239.779 44.6837 239.869 44.6837 239.983C45.2512 239.983 45.7808 239.983 46.3293 239.983C46.3293 240.526 46.3293 241.046 46.3293 241.6C46.8778 241.6 47.4074 241.6 47.9701 241.6C47.9701 242.162 47.9701 242.696 47.9701 243.226L47.9843 243.217Z" fill="#30B6FD"/>
<path d="M44.6838 236.781C44.6838 236.507 44.6885 236.233 44.6885 235.958C44.6885 235.694 44.6885 235.429 44.6885 235.126C45.7998 235.126 46.8921 235.126 47.9844 235.126L47.9749 235.122C47.9702 235.656 47.9655 236.19 47.9655 236.753C47.8425 236.753 47.748 236.753 47.6581 236.753C46.7691 236.753 45.8754 236.753 44.9864 236.753C44.8824 236.753 44.7831 236.767 44.6791 236.772C44.6791 236.776 44.6838 236.781 44.6838 236.781Z" fill="#30B6FD"/>
<path d="M67.405 233.538C67.5422 233.529 67.6746 233.515 67.8117 233.515C68.1994 233.51 68.5825 233.515 68.9655 233.515C69.0222 233.708 69.0411 234.659 68.9986 235.136L69.008 235.127C68.4737 235.127 67.9394 235.127 67.405 235.127L67.4145 235.132C67.4145 234.597 67.4145 234.063 67.4145 233.529L67.405 233.538Z" fill="#30B6FD"/>
<path d="M106.234 242.984V248.406H104.484V244.406H96.5938V242.984H106.234ZM106.234 234.297V242.359H104.484V234.297H106.234ZM97.0469 235.047V240.047C98.9688 240.016 101.016 239.852 103.156 239.438L103.375 240.844C100.938 241.328 98.6562 241.484 96.5 241.484H95.2969V235.047H97.0469ZM110.305 235.672V243.438C111.688 243.422 112.961 243.32 114.399 243.016L114.649 244.484C112.852 244.875 111.305 244.938 109.524 244.938H108.571V235.672H110.305ZM120.164 234.266V248.391H118.508V234.266H120.164ZM117.133 234.562V247.719H115.493V240.234H112.539V238.828H115.493V234.562H117.133ZM133.251 234.281V242.281H131.501V234.281H133.251ZM133.251 242.969V248.219H123.876V242.969H133.251ZM125.594 244.344V246.812H131.548V244.344H125.594ZM125.548 234.953C127.719 234.953 129.344 236.328 129.344 238.328C129.344 240.266 127.719 241.672 125.548 241.672C123.36 241.672 121.735 240.266 121.735 238.328C121.735 236.328 123.36 234.953 125.548 234.953ZM125.548 236.422C124.313 236.422 123.423 237.156 123.438 238.328C123.423 239.469 124.313 240.203 125.548 240.203C126.766 240.203 127.641 239.469 127.641 238.328C127.641 237.156 126.766 236.422 125.548 236.422ZM146.321 234.859V235.797C146.321 236.727 146.321 237.883 146.04 239.359H147.899V240.734H134.993V239.359H144.29C144.54 238.078 144.579 237.07 144.587 236.234H136.587V234.859H146.321ZM146.306 241.859V245.688H138.228V246.891H146.665V248.25H136.493V244.359H144.571V243.219H136.478V241.859H146.306ZM153.564 238.281C153.564 240.469 154.861 242.953 157.095 243.984L156.126 245.359C154.533 244.609 153.353 243.094 152.72 241.328C152.079 243.266 150.845 244.922 149.22 245.703L148.204 244.344C150.454 243.281 151.814 240.625 151.829 238.281V237.094H148.751V235.656H156.517V237.094H153.564V238.281ZM159.564 234.266V239.766H161.736V241.219H159.564V248.391H157.829V234.266H159.564ZM169.369 235.438C169.369 237.219 171.353 239.016 174.369 239.406L173.681 240.812C171.283 240.453 169.377 239.273 168.463 237.672C167.533 239.273 165.634 240.453 163.259 240.812L162.572 239.406C165.556 239.016 167.541 237.219 167.541 235.438V234.719H169.369V235.438ZM174.884 242.031V243.469H169.275V248.391H167.556V243.469H162.009V242.031H174.884ZM182.268 247V248.594H174.955V247H182.268ZM185.698 235.688V247H183.651V237.672H183.588L180.948 239.359V237.5L183.744 235.688H185.698ZM188.128 247V245.531L192.128 241.672C193.268 240.531 193.862 239.859 193.862 238.906C193.862 237.859 193.034 237.188 191.924 237.188C190.753 237.188 190.003 237.922 190.018 239.062H188.081C188.065 236.922 189.674 235.531 191.94 235.531C194.253 235.531 195.815 236.906 195.815 238.812C195.815 240.094 195.19 241.125 192.971 243.219L190.956 245.219V245.297H195.987V247H188.128ZM201.558 247.156C199.136 247.156 197.417 245.844 197.37 243.938H199.417C199.479 244.844 200.386 245.438 201.558 245.438C202.808 245.438 203.698 244.75 203.698 243.75C203.698 242.734 202.823 242 201.354 242H200.339V240.438H201.354C202.558 240.438 203.401 239.766 203.386 238.781C203.401 237.828 202.683 237.188 201.573 237.188C200.511 237.188 199.589 237.781 199.558 238.734H197.604C197.651 236.828 199.37 235.531 201.589 235.531C203.886 235.531 205.37 236.938 205.354 238.672C205.37 239.938 204.526 240.859 203.292 241.109V241.203C204.886 241.422 205.792 242.438 205.776 243.859C205.792 245.766 204.011 247.156 201.558 247.156Z" fill="#FEFEFE"/>
<g clip-path="url(#clip3_6104_4251)">
<path d="M221 246L226 241" stroke="white" stroke-width="1.5" stroke-linecap="round" stroke-linejoin="round"/>
<path d="M226 241L221 236" stroke="white" stroke-width="1.5" stroke-linecap="round" stroke-linejoin="round"/>
</g>
<path d="M36 289C36 284.582 39.5817 281 44 281H331C335.418 281 339 284.582 339 289V313C339 317.418 335.418 321 331 321H44C39.5817 321 36 317.418 36 313V289Z" fill="#20201D"/>
<path d="M53.5 294C52.675 294 52 294.63 52 295.4V306.597C52 307.752 53.41 308.41 54.4 307.717L58 305.198L61.6 307.717C62.59 308.41 64 307.752 64 306.597V295.4C64 294.63 63.325 294 62.5 294H53.5Z" fill="#FF9257"/>
<path d="M74.2725 296.796V303.105C75.396 303.093 76.4307 303.01 77.5986 302.763L77.8018 303.956C76.3418 304.273 75.085 304.324 73.6377 304.324H72.8633V296.796H74.2725ZM82.2832 295.653V307.13H80.9375V295.653H82.2832ZM79.8203 295.895V306.584H78.4873V300.503H76.0879V299.36H78.4873V295.895H79.8203ZM92.6873 301.671V302.788H84.6384V296.555H92.5857V297.697H86.073V299.081H92.3191V300.186H86.073V301.671H92.6873ZM93.8425 304.578V305.733H83.3562V304.578H93.8425ZM104.018 295.666V307.117H102.584V304.489H100.146V303.423H102.584V295.666H104.018ZM94.2808 301.557C96.439 301.557 99.3081 301.544 101.796 301.201L101.885 302.242C100.832 302.426 99.7461 302.534 98.6861 302.598V306.774H97.2642V302.674C96.2612 302.706 95.3091 302.712 94.4585 302.712L94.2808 301.557ZM98.0513 296.161C99.7398 296.161 100.971 297.113 100.971 298.484C100.971 299.881 99.7398 300.795 98.0513 300.795C96.3247 300.795 95.106 299.881 95.106 298.484C95.106 297.113 96.3247 296.161 98.0513 296.161ZM98.0513 297.24C97.0864 297.24 96.439 297.735 96.439 298.484C96.439 299.259 97.0864 299.716 98.0513 299.716C98.9654 299.716 99.6255 299.259 99.6255 298.484C99.6255 297.735 98.9654 297.24 98.0513 297.24ZM111.477 296.377C111.464 299.475 109.89 301.582 106.081 302.687L105.561 301.557C107.319 301.074 108.462 300.389 109.141 299.538L105.726 299.792L105.51 298.675L109.725 298.51C109.845 298.199 109.922 297.862 109.966 297.507H106.094V296.377H111.477ZM114.866 295.666V302.471H113.445V295.666H114.866ZM111.007 302.636C113.394 302.636 114.905 303.461 114.905 304.883C114.905 306.305 113.394 307.104 111.007 307.104C108.57 307.104 107.059 306.305 107.059 304.883C107.059 303.461 108.57 302.636 111.007 302.636ZM111.007 303.753C109.369 303.753 108.481 304.146 108.481 304.883C108.481 305.606 109.369 306.013 111.007 306.013C112.581 306.013 113.495 305.606 113.495 304.883C113.495 304.146 112.581 303.753 111.007 303.753ZM120.421 296.377L117.463 307.384H116.041L119.012 296.377H120.421ZM130.241 295.666V303.956H128.819V295.666H130.241ZM130.558 305.759V306.901H122.649V303.118H124.071V305.759H130.558ZM123.982 296.415C125.721 296.415 127.067 297.621 127.067 299.284C127.067 300.985 125.721 302.166 123.982 302.166C122.23 302.166 120.885 300.985 120.885 299.284C120.885 297.621 122.23 296.415 123.982 296.415ZM123.982 297.646C123.005 297.646 122.256 298.294 122.268 299.284C122.256 300.3 123.005 300.935 123.982 300.935C124.934 300.935 125.683 300.3 125.683 299.284C125.683 298.294 124.934 297.646 123.982 297.646ZM141.47 295.666V302.509H140.125V299.64H138.982V302.433H137.662V295.882H138.982V298.51H140.125V295.666H141.47ZM141.47 303.055V307.13H140.061V304.185H133.612V303.055H141.47ZM136.621 296.644V301.76H132.101V296.644H136.621ZM133.434 297.735V300.681H135.313V297.735H133.434ZM154.547 295.666V299.005H156.096V300.173H154.547V303.423H153.138V295.666H154.547ZM145.356 302.052C146.219 302.052 147.215 302.045 148.25 302.014V301.315C146.974 301.157 146.168 300.541 146.168 299.64C146.168 298.586 147.273 297.926 148.936 297.938C150.611 297.926 151.703 298.586 151.703 299.64C151.703 300.535 150.916 301.144 149.659 301.303V301.963C150.637 301.918 151.621 301.842 152.541 301.722L152.655 302.699C150.205 303.131 147.526 303.156 145.508 303.156L145.356 302.052ZM154.547 303.918V307.13H153.138V305.022H146.803V303.918H154.547ZM152.236 296.567V297.608H145.648V296.567H148.25V295.564H149.659V296.567H152.236ZM148.936 298.891C148.047 298.878 147.514 299.145 147.526 299.64C147.514 300.109 148.047 300.414 148.936 300.401C149.824 300.414 150.357 300.109 150.357 299.64C150.357 299.145 149.824 298.878 148.936 298.891ZM160.546 297.723C160.546 299.132 161.46 300.452 163.25 300.998L162.577 302.103C161.288 301.703 160.374 300.884 159.873 299.843C159.365 301.049 158.394 302.007 157.016 302.471L156.306 301.354C158.159 300.744 159.124 299.259 159.124 297.735V297.596H156.699V296.453H162.932V297.596H160.546V297.723ZM165.484 295.653V298.408H167.084V299.563H165.484V302.496H164.075V295.653H165.484ZM161.752 302.75C164.126 302.75 165.586 303.55 165.598 304.921C165.586 306.305 164.126 307.117 161.752 307.117C159.352 307.117 157.867 306.305 157.867 304.921C157.867 303.55 159.352 302.75 161.752 302.75ZM161.752 303.854C160.178 303.854 159.276 304.223 159.276 304.921C159.276 305.632 160.178 306.013 161.752 306.013C163.326 306.013 164.202 305.632 164.202 304.921C164.202 304.223 163.326 303.854 161.752 303.854Z" fill="#FF6F22"/>
<path d="M20 361C20 354.373 25.3726 349 32 349H343C349.627 349 355 354.373 355 361V473C355 479.627 349.627 485 343 485H32C25.3726 485 20 479.627 20 473V361Z" fill="#373734"/>
<path d="M36 389C36 375.745 46.7452 365 60 365C73.2548 365 84 375.745 84 389C84 402.255 73.2548 413 60 413C46.7452 413 36 402.255 36 389Z" fill="#1F1F1F"/>
<path d="M47.6367 399.26C47.6367 398.736 47.6367 398.253 47.6367 397.748C47.1354 397.698 46.6478 397.752 46.133 397.716C46.133 396.723 46.133 395.743 46.133 394.736C45.6273 394.736 45.1486 394.736 44.679 394.736C44.6248 394.529 44.6113 389.029 44.6609 388.7C45.1351 388.7 45.6182 388.7 46.1194 388.7C46.1194 385.169 46.1194 381.666 46.1194 378.126C46.6252 378.108 47.1129 378.126 47.6321 378.117C47.6321 377.62 47.6321 377.133 47.6321 376.622C48.1514 376.622 48.6391 376.622 49.1493 376.622C49.1493 376.117 49.1493 375.638 49.1493 375.137C54.1841 375.137 59.1963 375.137 64.2311 375.137C64.2311 375.625 64.2311 376.108 64.2311 376.618C64.7414 376.618 65.229 376.618 65.7393 376.618C65.7393 377.133 65.7393 377.611 65.7393 378.112C66.245 378.112 66.7237 378.112 67.2339 378.112C67.2339 378.631 67.2339 379.124 67.2339 379.638C67.7532 379.638 68.2409 379.638 68.7602 379.638C68.7602 382.663 68.7602 385.666 68.7602 388.691C71.2798 388.691 73.7679 388.691 76.274 388.691C76.274 389.196 76.274 389.684 76.274 390.199C75.7863 390.199 75.3031 390.199 74.8019 390.199C74.8019 390.704 74.8019 391.187 74.8019 391.693C74.2917 391.693 73.804 391.693 73.2937 391.693C73.2937 392.709 73.2937 393.698 73.2937 394.723C72.779 394.723 72.2823 394.723 71.763 394.723C71.763 395.237 71.763 395.716 71.763 396.222C71.2572 396.222 70.7786 396.222 70.2774 396.222C70.2774 396.727 70.2774 397.206 70.2774 397.721C69.7671 397.721 69.2794 397.721 68.7692 397.721C68.7692 398.24 68.7692 398.732 68.7692 399.247C67.7577 399.247 66.7688 399.247 65.7528 399.247C65.7528 399.752 65.7528 400.231 65.7528 400.75C65.3555 400.75 64.9807 400.755 64.6104 400.755C64.2311 400.755 63.8563 400.755 63.477 400.755C63.1068 400.755 62.741 400.755 62.3707 400.755C61.9959 400.755 61.6212 400.755 61.2148 400.755C61.2148 401.761 61.2148 402.75 61.2148 403.752C60.2078 403.752 59.2279 403.752 58.23 403.752C58.23 403.26 58.23 402.777 58.23 402.263C58.7177 402.263 59.2008 402.263 59.693 402.263C59.693 401.752 59.693 401.274 59.693 400.777C58.1984 400.777 56.7038 400.777 55.1866 400.777C55.1866 401.766 55.1866 402.746 55.1866 403.721C54.9969 403.78 52.4908 403.793 52.1747 403.743C52.1747 403.265 52.1747 402.786 52.1747 402.272C52.6714 402.258 53.1681 402.276 53.6739 402.263C53.6739 401.757 53.6739 401.278 53.6739 400.768C52.6714 400.768 51.678 400.768 50.6575 400.768C50.6575 400.262 50.6575 399.779 50.6575 399.274C49.646 399.26 48.6572 399.26 47.6367 399.26ZM61.2238 393.228C61.2193 393.72 61.2102 394.212 61.2283 394.727C61.3367 394.727 61.418 394.727 61.4992 394.727C61.8153 394.727 62.1359 394.723 62.452 394.727C62.5288 394.727 62.6055 394.754 62.6823 394.768C62.6913 394.849 62.7094 394.926 62.7094 395.007C62.7139 395.341 62.7094 395.68 62.7094 396.014C62.7094 396.077 62.7184 396.14 62.7275 396.204C63.7389 396.204 64.7323 396.204 65.7303 396.204C65.7303 395.707 65.7303 395.228 65.7303 394.745C65.667 394.736 65.6219 394.727 65.5722 394.727C64.6782 394.727 63.7841 394.727 62.8945 394.727C62.8223 394.727 62.7546 394.754 62.6823 394.768C62.6913 394.262 62.6958 393.761 62.7049 393.255C62.7049 393.242 62.6868 393.228 62.6688 393.206C62.2127 393.206 61.7476 393.206 61.2825 393.206C61.2599 393.206 61.2373 393.224 61.2148 393.233C61.2148 392.727 61.2148 392.221 61.2148 391.711C60.7 391.711 60.2168 391.711 59.7201 391.711C59.7201 392.208 59.7201 392.686 59.7201 393.188C59.8104 393.192 59.8917 393.201 59.973 393.201C60.3026 393.201 60.6277 393.201 60.9574 393.201C61.0432 393.201 61.1335 393.219 61.2238 393.228ZM55.1685 387.156C55.1685 386.149 55.1685 385.169 55.1685 384.176C54.1661 384.176 53.1817 384.176 52.1792 384.176C52.1792 385.174 52.1792 386.158 52.1792 387.156C53.1772 387.156 54.1661 387.156 55.1685 387.156ZM58.1894 385.652C58.239 385.318 58.221 382.821 58.1758 382.654C57.6882 382.654 57.196 382.654 56.7128 382.654C56.6631 383.015 56.6812 385.476 56.7309 385.652C57.2185 385.652 57.7062 385.652 58.1894 385.652ZM49.181 382.65C49.1358 383.029 49.1493 385.476 49.199 385.652C49.6777 385.652 50.1563 385.652 50.6304 385.652C50.6756 385.3 50.6575 382.83 50.6124 382.65C50.1428 382.65 49.6731 382.65 49.181 382.65Z" fill="#FFF280"/>
<path d="M106.234 390.984V396.406H104.484V392.406H96.5938V390.984H106.234ZM106.234 382.297V390.359H104.484V382.297H106.234ZM97.0469 383.047V388.047C98.9688 388.016 101.016 387.852 103.156 387.438L103.375 388.844C100.938 389.328 98.6562 389.484 96.5 389.484H95.2969V383.047H97.0469ZM110.305 383.672V391.438C111.688 391.422 112.961 391.32 114.399 391.016L114.649 392.484C112.852 392.875 111.305 392.938 109.524 392.938H108.571V383.672H110.305ZM120.164 382.266V396.391H118.508V382.266H120.164ZM117.133 382.562V395.719H115.493V388.234H112.539V386.828H115.493V382.562H117.133ZM133.251 382.281V390.281H131.501V382.281H133.251ZM133.251 390.969V396.219H123.876V390.969H133.251ZM125.594 392.344V394.812H131.548V392.344H125.594ZM125.548 382.953C127.719 382.953 129.344 384.328 129.344 386.328C129.344 388.266 127.719 389.672 125.548 389.672C123.36 389.672 121.735 388.266 121.735 386.328C121.735 384.328 123.36 382.953 125.548 382.953ZM125.548 384.422C124.313 384.422 123.423 385.156 123.438 386.328C123.423 387.469 124.313 388.203 125.548 388.203C126.766 388.203 127.641 387.469 127.641 386.328C127.641 385.156 126.766 384.422 125.548 384.422ZM146.321 382.859V383.797C146.321 384.727 146.321 385.883 146.04 387.359H147.899V388.734H134.993V387.359H144.29C144.54 386.078 144.579 385.07 144.587 384.234H136.587V382.859H146.321ZM146.306 389.859V393.688H138.228V394.891H146.665V396.25H136.493V392.359H144.571V391.219H136.478V389.859H146.306ZM153.564 386.281C153.564 388.469 154.861 390.953 157.095 391.984L156.126 393.359C154.533 392.609 153.353 391.094 152.72 389.328C152.079 391.266 150.845 392.922 149.22 393.703L148.204 392.344C150.454 391.281 151.814 388.625 151.829 386.281V385.094H148.751V383.656H156.517V385.094H153.564V386.281ZM159.564 382.266V387.766H161.736V389.219H159.564V396.391H157.829V382.266H159.564ZM169.369 383.438C169.369 385.219 171.353 387.016 174.369 387.406L173.681 388.812C171.283 388.453 169.377 387.273 168.463 385.672C167.533 387.273 165.634 388.453 163.259 388.812L162.572 387.406C165.556 387.016 167.541 385.219 167.541 383.438V382.719H169.369V383.438ZM174.884 390.031V391.469H169.275V396.391H167.556V391.469H162.009V390.031H174.884ZM182.268 395V396.594H174.955V395H182.268ZM185.698 383.688V395H183.651V385.672H183.588L180.948 387.359V385.5L183.744 383.688H185.698ZM188.128 395V393.531L192.128 389.672C193.268 388.531 193.862 387.859 193.862 386.906C193.862 385.859 193.034 385.188 191.924 385.188C190.753 385.188 190.003 385.922 190.018 387.062H188.081C188.065 384.922 189.674 383.531 191.94 383.531C194.253 383.531 195.815 384.906 195.815 386.812C195.815 388.094 195.19 389.125 192.971 391.219L190.956 393.219V393.297H195.987V395H188.128ZM201.558 395.156C199.136 395.156 197.417 393.844 197.37 391.938H199.417C199.479 392.844 200.386 393.438 201.558 393.438C202.808 393.438 203.698 392.75 203.698 391.75C203.698 390.734 202.823 390 201.354 390H200.339V388.438H201.354C202.558 388.438 203.401 387.766 203.386 386.781C203.401 385.828 202.683 385.188 201.573 385.188C200.511 385.188 199.589 385.781 199.558 386.734H197.604C197.651 384.828 199.37 383.531 201.589 383.531C203.886 383.531 205.37 384.938 205.354 386.672C205.37 387.938 204.526 388.859 203.292 389.109V389.203C204.886 389.422 205.792 390.438 205.776 391.859C205.792 393.766 204.011 395.156 201.558 395.156Z" fill="#FEFEFE"/>
<g clip-path="url(#clip4_6104_4251)">
<path d="M221 394L226 389" stroke="white" stroke-width="1.5" stroke-linecap="round" stroke-linejoin="round"/>
<path d="M226 389L221 384" stroke="white" stroke-width="1.5" stroke-linecap="round" stroke-linejoin="round"/>
</g>
<path d="M36 437C36 432.582 39.5817 429 44 429H331C335.418 429 339 432.582 339 437V461C339 465.418 335.418 469 331 469H44C39.5817 469 36 465.418 36 461V437Z" fill="#20201D"/>
<path d="M53.5 442C52.675 442 52 442.63 52 443.4V454.597C52 455.752 53.41 456.41 54.4 455.717L58 453.198L61.6 455.717C62.59 456.41 64 455.752 64 454.597V443.4C64 442.63 63.325 442 62.5 442H53.5Z" fill="#FF9257"/>
<path d="M81.9912 443.653V450.471H80.582V447.665H78.627V446.51H80.582V443.653H81.9912ZM78.1064 450.763C80.5439 450.763 82.0293 451.562 82.0293 452.946C82.0293 454.33 80.5439 455.13 78.1064 455.13C75.6816 455.13 74.1963 454.33 74.209 452.946C74.1963 451.562 75.6816 450.763 78.1064 450.763ZM78.1064 451.842C76.5068 451.842 75.6055 452.223 75.6055 452.946C75.6055 453.657 76.5068 454.038 78.1064 454.038C79.7061 454.038 80.6201 453.657 80.6201 452.946C80.6201 452.223 79.7061 451.842 78.1064 451.842ZM76.5957 445.621C76.5957 447.018 77.5225 448.427 79.2998 449.023L78.5889 450.141C77.313 449.709 76.4053 448.833 75.9102 447.754C75.4023 448.979 74.4438 449.957 73.0791 450.445L72.3428 449.328C74.1836 448.693 75.1611 447.145 75.1611 445.634V445.545H72.7744V444.402H78.9697V445.545H76.5957V445.621ZM93.8425 452.591V453.746H83.3562V452.591H87.8757V450.356H84.5115V444.415H85.9207V446.294H91.24V444.415H92.6492V450.356H89.2722V452.591H93.8425ZM85.9207 449.214H91.24V447.424H85.9207V449.214ZM103.739 444.707V445.875C103.739 447.297 103.739 448.846 103.32 451.093L101.936 450.953C102.33 448.833 102.33 447.259 102.33 445.875V445.837H95.3853V444.707H103.739ZM104.792 452.489V453.645H94.3316V452.489H96.6802V448.833H98.0894V452.489H99.5493V448.833H100.933V452.489H104.792ZM115.781 450.433V451.537H113.254V455.13H111.832V451.537H109.255V455.13H107.846V451.537H105.294V450.433H115.781ZM114.562 444.034V447.246H107.973V448.338H114.816V449.48H106.551V446.192H113.115V445.189H106.526V444.034H114.562Z" fill="#FF6F22"/>
<path d="M20 509C20 502.373 25.3726 497 32 497H343C349.627 497 355 502.373 355 509V621C355 627.627 349.627 633 343 633H32C25.3726 633 20 627.627 20 621V509Z" fill="#373734"/>
<path d="M36 537C36 523.745 46.7452 513 60 513C73.2548 513 84 523.745 84 537C84 550.255 73.2548 561 60 561C46.7452 561 36 550.255 36 537Z" fill="#1F1F1F"/>
<path d="M72.5267 550.486C72.5267 550.882 72.5267 551.277 72.5267 551.7C72.1266 551.7 71.731 551.7 71.3081 551.7C71.2854 552.127 71.3081 552.527 71.2945 552.928C71.1172 552.978 49.0285 552.991 48.6875 552.941C48.6875 552.546 48.6875 552.146 48.6875 551.709C48.2555 551.709 47.8463 551.709 47.4144 551.709C47.4144 551.282 47.4144 550.891 47.4144 550.473C46.9869 550.473 46.5868 550.473 46.164 550.473C46.164 547.945 46.164 545.449 46.164 542.917C45.7411 542.917 45.3455 542.917 44.9318 542.917C44.9318 539.975 44.9318 537.066 44.9318 534.12C45.341 534.12 45.7411 534.12 46.1594 534.12C46.1594 533.269 46.1594 532.456 46.1594 531.619C46.5823 531.619 46.9824 531.619 47.4098 531.619C47.4098 531.196 47.4098 530.796 47.4098 530.373C47.7099 530.342 47.9873 530.36 48.2646 530.355C48.5374 530.351 48.8102 530.355 49.0831 530.355C49.3604 530.355 49.6423 530.355 49.9288 530.355C49.9288 528.255 49.9288 526.186 49.9288 524.091C49.5196 524.091 49.1194 524.091 48.692 524.091C48.692 523.668 48.692 523.268 48.692 522.84C48.2601 522.804 47.8509 522.84 47.428 522.818C47.428 522.399 47.428 521.999 47.428 521.581C48.6647 521.581 49.9015 521.581 51.1701 521.581C51.1837 521.849 51.1746 522.127 51.1746 522.404C51.1746 522.677 51.1746 522.949 51.1746 523.222C51.1746 523.5 51.1746 523.781 51.1746 524.077C51.602 524.077 52.0021 524.077 52.4386 524.077C52.4523 524.386 52.4432 524.682 52.4432 524.977C52.4432 525.273 52.4432 525.573 52.4432 525.868C52.4432 526.164 52.4432 526.464 52.4432 526.759C52.4432 527.055 52.4432 527.355 52.4432 527.65C52.4432 527.946 52.4432 528.246 52.4432 528.541C52.4432 528.837 52.4432 529.137 52.4432 529.432C52.4432 529.728 52.4432 530.023 52.4432 530.337C54.121 530.337 55.776 530.337 57.4493 530.337C57.4493 528.259 57.4493 526.191 57.4493 524.091C57.0492 524.091 56.6399 524.091 56.208 524.091C56.208 523.659 56.208 523.259 56.208 522.822C55.776 522.822 55.3668 522.822 54.9531 522.822C54.9531 522.386 54.9531 521.986 54.9531 521.572C56.2125 521.572 57.4538 521.572 58.7315 521.572C58.7406 522.399 58.7315 523.231 58.736 524.077C59.1544 524.077 59.5454 524.077 59.9728 524.077C59.9728 526.173 59.9728 528.25 59.9728 530.342C60.4002 530.342 60.7912 530.342 61.2186 530.342C61.2459 530.56 61.2277 530.764 61.2323 530.964C61.2368 531.169 61.2323 531.374 61.2323 531.606C61.6642 531.606 62.0735 531.606 62.5009 531.606C62.5009 533.292 62.5009 534.947 62.5009 536.634C62.9146 536.634 63.3102 536.634 63.7331 536.634C63.7558 537.052 63.7331 537.443 63.7512 537.87C64.165 537.888 64.5742 537.879 65.0062 537.875C65.0062 537.457 65.0062 537.066 65.0062 536.656C67.1114 536.656 69.1847 536.656 71.2899 536.656C71.2899 537.056 71.2899 537.447 71.2899 537.866C71.7083 537.866 72.0993 537.866 72.5312 537.866C72.5312 538.102 72.5358 538.311 72.5358 538.52C72.5358 538.725 72.5267 538.934 72.5221 539.139L72.5312 539.134C71.7083 539.134 70.8853 539.134 70.0396 539.134C70.0396 538.711 70.0396 538.307 70.0396 537.916C69.7622 537.861 66.4748 537.87 66.2702 537.929C66.2702 538.32 66.2702 538.725 66.2702 539.139C65.8383 539.148 65.429 539.134 65.0016 539.148C65.0016 540.002 65.0016 540.825 65.0016 541.671C64.5788 541.671 64.1786 541.671 63.7694 541.671C63.7694 542.935 63.7694 544.176 63.7694 545.44C64.1832 545.44 64.5879 545.44 65.0062 545.44C65.0062 546.276 65.0062 547.09 65.0062 547.922C66.2702 547.922 67.5115 547.922 68.7801 547.922C68.7801 547.517 68.7801 547.122 68.7801 546.722C69.2166 546.722 69.6258 546.722 70.035 546.722C70.0487 546.722 70.0623 546.74 70.0759 546.745L70.0714 546.74C70.0623 546.831 70.0441 546.917 70.0441 547.008C70.0441 547.645 70.0441 548.281 70.0441 548.913C70.0441 549 70.0441 549.09 70.0441 549.204C68.771 549.204 67.5297 549.204 66.2929 549.204C66.2929 549.636 66.2929 550.036 66.2929 550.463C66.7067 550.463 67.1068 550.463 67.5342 550.463C67.5342 550.882 67.5342 551.277 67.5342 551.682C68.38 551.682 69.1984 551.682 70.0532 551.682C70.0532 551.268 70.0532 550.873 70.0532 550.473C70.1259 550.468 70.1669 550.459 70.2078 550.459C70.9262 550.459 71.6446 550.459 72.363 550.459C72.4176 550.459 72.4767 550.473 72.5312 550.482C72.5312 550.491 72.5267 550.486 72.5267 550.486ZM54.9576 537.866C55.3759 537.866 55.7851 537.866 56.1989 537.866C56.1989 537.034 56.1989 536.215 56.1989 535.397C55.776 535.397 55.3668 535.397 54.9576 535.397C54.9576 536.225 54.9576 537.038 54.9576 537.866ZM49.9424 537.87C49.9424 537.025 49.9424 536.206 49.9424 535.393C49.5059 535.393 49.1058 535.393 48.7102 535.393C48.6647 535.765 48.6784 537.684 48.7329 537.87C49.1194 537.87 49.5105 537.87 49.9424 537.87ZM51.1928 539.13C52.0385 539.13 52.8615 539.13 53.689 539.13C53.689 538.711 53.689 538.307 53.689 537.898C52.8479 537.898 52.0294 537.898 51.1928 537.898C51.1928 538.311 51.1928 538.711 51.1928 539.13Z" fill="#FF84EF"/>
<path d="M72.5266 539.143C72.9449 539.143 73.3632 539.143 73.8043 539.143C73.8043 539.566 73.8043 539.966 73.8043 540.398C74.2271 540.398 74.6273 540.398 75.0183 540.398C75.0729 540.598 75.0865 548.831 75.041 549.195C74.6455 549.195 74.2453 549.195 73.8225 549.195C73.8225 549.618 73.8225 550.018 73.8225 550.45C73.3769 550.463 72.954 550.472 72.5312 550.486L72.5357 550.491C72.5357 549.65 72.5357 548.813 72.5357 547.94C72.9767 547.94 73.3814 547.94 73.7952 547.94C73.7952 545.835 73.7952 543.762 73.7952 541.662C73.3723 541.662 72.9631 541.662 72.5357 541.662C72.5357 540.802 72.5357 539.971 72.5357 539.139L72.5266 539.143Z" fill="#FF84EF"/>
<path d="M70.062 542.899C70.4621 542.899 70.8668 542.899 71.2806 542.899C71.2806 544.176 71.2806 545.422 71.2806 546.681C71.2169 546.69 71.1578 546.704 71.0941 546.704C70.8304 546.709 70.5667 546.704 70.303 546.709C70.2257 546.709 70.1439 546.731 70.0666 546.745L70.0711 546.75C70.062 546.677 70.0438 546.604 70.0438 546.531C70.0438 545.381 70.0438 544.231 70.0438 543.085C70.0438 543.022 70.062 542.958 70.0711 542.894C70.0711 542.89 70.062 542.899 70.062 542.899Z" fill="#FF84EF"/>
<path d="M67.5031 542.89C67.5122 542.985 67.5304 543.085 67.535 543.18C67.5395 543.499 67.535 543.822 67.535 544.167C67.9487 544.167 68.3398 544.167 68.7262 544.167C68.7854 544.367 68.7944 545.122 68.749 545.426C67.9396 545.426 67.1257 545.426 66.2982 545.426C66.2982 544.594 66.2982 543.767 66.2982 542.921C66.7074 542.912 67.1121 542.903 67.5122 542.894L67.5031 542.89Z" fill="#FF84EF"/>
<path d="M67.5065 542.894C67.5156 542.598 67.5247 542.303 67.5338 542.012C67.5383 541.907 67.5338 541.803 67.5338 541.689C68.3795 541.689 69.1979 541.689 70.03 541.689C70.0391 542.103 70.0527 542.503 70.0618 542.903L70.0709 542.898C70.0073 542.903 69.9391 542.917 69.8754 542.917C69.1479 542.917 68.425 542.917 67.6975 542.917C67.6338 542.917 67.5656 542.903 67.502 542.898C67.502 542.889 67.5065 542.894 67.5065 542.894Z" fill="#FF84EF"/>
<path d="M106.234 538.984V544.406H104.484V540.406H96.5938V538.984H106.234ZM106.234 530.297V538.359H104.484V530.297H106.234ZM97.0469 531.047V536.047C98.9688 536.016 101.016 535.852 103.156 535.438L103.375 536.844C100.938 537.328 98.6562 537.484 96.5 537.484H95.2969V531.047H97.0469ZM110.305 531.672V539.438C111.688 539.422 112.961 539.32 114.399 539.016L114.649 540.484C112.852 540.875 111.305 540.938 109.524 540.938H108.571V531.672H110.305ZM120.164 530.266V544.391H118.508V530.266H120.164ZM117.133 530.562V543.719H115.493V536.234H112.539V534.828H115.493V530.562H117.133ZM133.251 530.281V538.281H131.501V530.281H133.251ZM133.251 538.969V544.219H123.876V538.969H133.251ZM125.594 540.344V542.812H131.548V540.344H125.594ZM125.548 530.953C127.719 530.953 129.344 532.328 129.344 534.328C129.344 536.266 127.719 537.672 125.548 537.672C123.36 537.672 121.735 536.266 121.735 534.328C121.735 532.328 123.36 530.953 125.548 530.953ZM125.548 532.422C124.313 532.422 123.423 533.156 123.438 534.328C123.423 535.469 124.313 536.203 125.548 536.203C126.766 536.203 127.641 535.469 127.641 534.328C127.641 533.156 126.766 532.422 125.548 532.422ZM146.321 530.859V531.797C146.321 532.727 146.321 533.883 146.04 535.359H147.899V536.734H134.993V535.359H144.29C144.54 534.078 144.579 533.07 144.587 532.234H136.587V530.859H146.321ZM146.306 537.859V541.688H138.228V542.891H146.665V544.25H136.493V540.359H144.571V539.219H136.478V537.859H146.306ZM153.564 534.281C153.564 536.469 154.861 538.953 157.095 539.984L156.126 541.359C154.533 540.609 153.353 539.094 152.72 537.328C152.079 539.266 150.845 540.922 149.22 541.703L148.204 540.344C150.454 539.281 151.814 536.625 151.829 534.281V533.094H148.751V531.656H156.517V533.094H153.564V534.281ZM159.564 530.266V535.766H161.736V537.219H159.564V544.391H157.829V530.266H159.564ZM169.369 531.438C169.369 533.219 171.353 535.016 174.369 535.406L173.681 536.812C171.283 536.453 169.377 535.273 168.463 533.672C167.533 535.273 165.634 536.453 163.259 536.812L162.572 535.406C165.556 535.016 167.541 533.219 167.541 531.438V530.719H169.369V531.438ZM174.884 538.031V539.469H169.275V544.391H167.556V539.469H162.009V538.031H174.884ZM182.268 543V544.594H174.955V543H182.268ZM185.698 531.688V543H183.651V533.672H183.588L180.948 535.359V533.5L183.744 531.688H185.698ZM188.128 543V541.531L192.128 537.672C193.268 536.531 193.862 535.859 193.862 534.906C193.862 533.859 193.034 533.188 191.924 533.188C190.753 533.188 190.003 533.922 190.018 535.062H188.081C188.065 532.922 189.674 531.531 191.94 531.531C194.253 531.531 195.815 532.906 195.815 534.812C195.815 536.094 195.19 537.125 192.971 539.219L190.956 541.219V541.297H195.987V543H188.128ZM201.558 543.156C199.136 543.156 197.417 541.844 197.37 539.938H199.417C199.479 540.844 200.386 541.438 201.558 541.438C202.808 541.438 203.698 540.75 203.698 539.75C203.698 538.734 202.823 538 201.354 538H200.339V536.438H201.354C202.558 536.438 203.401 535.766 203.386 534.781C203.401 533.828 202.683 533.188 201.573 533.188C200.511 533.188 199.589 533.781 199.558 534.734H197.604C197.651 532.828 199.37 531.531 201.589 531.531C203.886 531.531 205.37 532.938 205.354 534.672C205.37 535.938 204.526 536.859 203.292 537.109V537.203C204.886 537.422 205.792 538.438 205.776 539.859C205.792 541.766 204.011 543.156 201.558 543.156Z" fill="#FEFEFE"/>
<g clip-path="url(#clip5_6104_4251)">
<path d="M221 542L226 537" stroke="white" stroke-width="1.5" stroke-linecap="round" stroke-linejoin="round"/>
<path d="M226 537L221 532" stroke="white" stroke-width="1.5" stroke-linecap="round" stroke-linejoin="round"/>
</g>
<path d="M36 585C36 580.582 39.5817 577 44 577H331C335.418 577 339 580.582 339 585V609C339 613.418 335.418 617 331 617H44C39.5817 617 36 613.418 36 609V585Z" fill="#20201D"/>
<path d="M53.5 590C52.675 590 52 590.63 52 591.4V602.597C52 603.752 53.41 604.41 54.4 603.717L58 601.198L61.6 603.717C62.59 604.41 64 603.752 64 602.597V591.4C64 590.63 63.325 590 62.5 590H53.5Z" fill="#FF9257"/>
<path d="M82.1943 591.653V600.21H80.8486V591.653H82.1943ZM79.9092 591.856V599.867H78.5762V595.932H77.3447V598.115H72.8252V592.758H77.3447V594.776H78.5762V591.856H79.9092ZM82.5117 601.759V602.901H74.5137V599.182H75.9229V601.759H82.5117ZM74.1582 593.862V597.023H76.0371V593.862H74.1582ZM92.6873 597.43V598.56H89.2976V600.654H93.8425V601.784H83.3562V600.654H87.8757V598.56H84.6384V592.504H92.5857V593.646H86.073V594.941H92.3191V596.059H86.073V597.43H92.6873ZM103.891 591.666V598.661H102.469V591.666H103.891ZM100.209 592.352V595.716H96.3247V596.947C98.2925 596.941 99.6826 596.877 101.327 596.63L101.504 597.76C99.689 598.052 98.1402 598.103 95.9185 598.103H94.9409V594.662H98.813V593.507H94.9155V592.352H100.209ZM100.032 598.864C102.469 598.864 103.955 599.639 103.955 600.997C103.955 602.33 102.469 603.117 100.032 603.117C97.5816 603.117 96.1089 602.33 96.1089 600.997C96.1089 599.639 97.5816 598.864 100.032 598.864ZM100.032 599.969C98.4068 599.969 97.5054 600.324 97.5054 600.997C97.5054 601.657 98.4068 602.013 100.032 602.013C101.644 602.013 102.545 601.657 102.545 600.997C102.545 600.324 101.644 599.969 100.032 599.969ZM109.446 592.377L106.488 603.384H105.066L108.036 592.377H109.446ZM120.192 600.591V601.746H109.706V600.591H114.238V597.95H115.647V600.591H120.192ZM119.291 592.58V593.735H115.673C115.717 595.386 117.418 596.903 119.773 597.252L119.215 598.369C117.272 598.014 115.686 596.992 114.949 595.563C114.207 597.011 112.632 598.071 110.722 598.433L110.163 597.315C112.455 596.928 114.143 595.386 114.188 593.735H110.582V592.58H119.291ZM130.292 591.666V600.07H128.883V595.894H126.813C126.515 597.239 125.328 598.153 123.868 598.153C122.141 598.153 120.834 596.947 120.834 595.259C120.834 593.57 122.141 592.377 123.868 592.377C125.366 592.377 126.578 593.329 126.839 594.738H128.883V591.666H130.292ZM130.584 601.759V602.901H122.763V599.22H124.173V601.759H130.584ZM123.868 593.608C122.903 593.608 122.179 594.243 122.179 595.259C122.179 596.274 122.903 596.935 123.868 596.935C124.807 596.935 125.518 596.274 125.531 595.259C125.518 594.243 124.807 593.608 123.868 593.608ZM143.534 591.653V594.319H145.133V595.487H143.534V598.344H142.124V591.653H143.534ZM136.272 592.326V593.888H138.951V592.326H140.347V597.734H134.875V592.326H136.272ZM136.272 596.617H138.951V594.979H136.272V596.617ZM143.61 598.902V600.032H137.541V601.848H143.826V602.965H136.132V598.902H143.61ZM155.042 591.653V603.13H153.62V591.653H155.042ZM151.614 592.872C151.614 596.287 150.294 599.194 146.27 601.099L145.533 599.969C148.536 598.541 149.932 596.598 150.18 593.989H146.117V592.872H151.614Z" fill="#FF6F22"/>
<path d="M20 657C20 650.373 25.3726 645 32 645H343C349.627 645 355 650.373 355 657V769C355 775.627 349.627 781 343 781H32C25.3726 781 20 775.627 20 769V657Z" fill="#373734"/>
<path d="M36 685C36 671.745 46.7452 661 60 661C73.2548 661 84 671.745 84 685C84 698.255 73.2548 709 60 709C46.7452 709 36 698.255 36 685Z" fill="#1F1F1F"/>
<path d="M48.0156 691.379C48.0156 690.85 48.0156 690.346 48.0156 689.837C47.5033 689.837 47.0013 689.837 46.489 689.837C46.489 689.313 46.489 688.794 46.489 688.27C45.9613 688.27 45.4541 688.27 44.9315 688.27C44.9315 686.194 44.9315 684.128 44.9315 682.047C45.4438 682.047 45.9561 682.047 46.4787 682.047C46.4787 680.485 46.4787 678.933 46.4787 677.37C46.991 677.37 47.4982 677.37 48.0156 677.37C48.0156 675.803 48.0156 674.251 48.0156 672.689C48.5433 672.689 49.0505 672.689 49.5782 672.689C49.5782 672.17 49.5782 671.656 49.5782 671.137C51.6531 671.137 53.7177 671.137 55.7874 671.137C55.7874 672.689 55.7874 674.236 55.7874 675.788C56.8326 675.788 57.8674 675.788 58.9126 675.788C58.9126 674.236 58.9126 672.694 58.9126 671.137C60.9823 671.137 63.0418 671.137 65.1167 671.137C65.1167 671.651 65.1167 672.154 65.1167 672.679C65.6392 672.679 66.1567 672.679 66.6792 672.679C66.6792 674.241 66.6792 675.793 66.6792 677.355C67.1916 677.355 67.6987 677.355 68.2162 677.355C68.2162 678.922 68.2162 680.474 68.2162 682.037C68.7439 682.037 69.2511 682.037 69.7736 682.037C69.7736 684.113 69.7736 686.178 69.7736 688.26C69.2613 688.26 68.749 688.26 68.2213 688.26C68.2213 688.789 68.2213 689.298 68.2213 689.827C67.709 689.827 67.2018 689.827 66.6844 689.827C66.6844 690.346 66.6844 690.855 66.6844 691.369C66.1567 691.369 65.6495 691.369 65.1269 691.369C65.1269 691.893 65.1269 692.412 65.1269 692.936C66.6741 692.936 68.2213 692.936 69.7787 692.936C69.7787 692.417 69.7787 691.908 69.7787 691.379C70.2911 691.379 70.7982 691.379 71.3106 691.379C71.3106 690.336 71.3106 689.313 71.3106 688.275C72.3557 688.275 73.3906 688.275 74.4408 688.275C74.4408 688.789 74.4408 689.303 74.4408 689.827C74.9582 689.827 75.4603 689.827 75.9726 689.827C75.9726 690.865 75.9726 691.898 75.9726 692.941C75.4705 692.941 74.9634 692.941 74.451 692.941C74.451 693.47 74.451 693.979 74.451 694.509C73.9285 694.509 73.411 694.509 72.8834 694.509C72.8834 695.028 72.8834 695.536 72.8834 696.05C72.3557 696.05 71.8485 696.05 71.3208 696.05C71.3208 697.088 71.3208 698.121 71.3208 699.159C68.7234 699.159 66.1413 699.159 63.549 699.159C63.549 698.65 63.549 698.147 63.549 697.638C63.0367 697.638 62.5295 697.638 62.0172 697.638C62.0172 698.142 62.0172 698.645 62.0172 699.159C59.4249 699.159 56.8428 699.159 54.2454 699.159C54.2454 698.656 54.2454 698.152 54.2454 697.638C53.7177 697.638 53.2105 697.638 52.6828 697.638C52.6828 698.142 52.6828 698.645 52.6828 699.164C50.608 699.164 48.5485 699.164 46.4787 699.164C46.4787 698.137 46.4787 697.109 46.4787 696.071C46.9808 696.071 47.488 696.071 48.0054 696.071C48.0054 695.552 48.0054 695.043 48.0054 694.529C48.5331 694.529 49.0403 694.529 49.568 694.529C49.568 694.005 49.568 693.486 49.568 692.957C50.0956 692.957 50.6131 692.957 51.1305 692.957C51.1305 692.427 51.1305 691.919 51.1305 691.389C50.1059 691.379 49.071 691.379 48.0156 691.379ZM52.688 685.151C52.688 684.118 52.688 683.08 52.688 682.047C52.1705 682.047 51.6633 682.047 51.1613 682.047C51.1613 683.085 51.1613 684.113 51.1613 685.146C51.6787 685.146 52.1808 685.146 52.688 685.151C52.6931 685.659 52.6931 686.168 52.6931 686.677C54.2556 686.677 55.8028 686.677 57.35 686.677C57.35 686.163 57.35 685.659 57.35 685.146C56.8274 685.146 56.3151 685.146 55.7874 685.146C55.7874 684.616 55.7874 684.097 55.7874 683.588C55.27 683.588 54.7679 683.588 54.2556 683.588C54.2556 684.113 54.2556 684.626 54.2556 685.151C53.7177 685.151 53.2003 685.151 52.688 685.151ZM54.2403 675.783C54.2403 674.75 54.2403 673.717 54.2403 672.684C53.2105 672.684 52.1808 672.684 51.1459 672.684C51.1459 673.208 51.1459 673.717 51.1459 674.246C50.6233 674.246 50.1059 674.246 49.5936 674.246C49.5936 674.765 49.5936 675.274 49.5936 675.783C51.1459 675.783 52.6879 675.783 54.2403 675.783ZM65.1116 675.783C65.1116 675.274 65.1116 674.765 65.1116 674.241C64.5941 674.241 64.0767 674.241 63.5541 674.241C63.5541 673.712 63.5541 673.203 63.5541 672.684C62.5193 672.684 61.4895 672.684 60.4649 672.684C60.4649 673.722 60.4649 674.75 60.4649 675.783C62.0172 675.783 63.5592 675.783 65.1116 675.783ZM58.9279 682.047C58.9279 683.085 58.9279 684.113 58.9279 685.14C59.4402 685.14 59.9474 685.14 60.4495 685.14C60.4495 684.102 60.4495 683.08 60.4495 682.047C59.9423 682.047 59.4402 682.047 58.9279 682.047Z" fill="#856BFF"/>
<path d="M106.234 686.984V692.406H104.484V688.406H96.5938V686.984H106.234ZM106.234 678.297V686.359H104.484V678.297H106.234ZM97.0469 679.047V684.047C98.9688 684.016 101.016 683.852 103.156 683.438L103.375 684.844C100.938 685.328 98.6562 685.484 96.5 685.484H95.2969V679.047H97.0469ZM110.305 679.672V687.438C111.688 687.422 112.961 687.32 114.399 687.016L114.649 688.484C112.852 688.875 111.305 688.938 109.524 688.938H108.571V679.672H110.305ZM120.164 678.266V692.391H118.508V678.266H120.164ZM117.133 678.562V691.719H115.493V684.234H112.539V682.828H115.493V678.562H117.133ZM133.251 678.281V686.281H131.501V678.281H133.251ZM133.251 686.969V692.219H123.876V686.969H133.251ZM125.594 688.344V690.812H131.548V688.344H125.594ZM125.548 678.953C127.719 678.953 129.344 680.328 129.344 682.328C129.344 684.266 127.719 685.672 125.548 685.672C123.36 685.672 121.735 684.266 121.735 682.328C121.735 680.328 123.36 678.953 125.548 678.953ZM125.548 680.422C124.313 680.422 123.423 681.156 123.438 682.328C123.423 683.469 124.313 684.203 125.548 684.203C126.766 684.203 127.641 683.469 127.641 682.328C127.641 681.156 126.766 680.422 125.548 680.422ZM146.321 678.859V679.797C146.321 680.727 146.321 681.883 146.04 683.359H147.899V684.734H134.993V683.359H144.29C144.54 682.078 144.579 681.07 144.587 680.234H136.587V678.859H146.321ZM146.306 685.859V689.688H138.228V690.891H146.665V692.25H136.493V688.359H144.571V687.219H136.478V685.859H146.306ZM153.564 682.281C153.564 684.469 154.861 686.953 157.095 687.984L156.126 689.359C154.533 688.609 153.353 687.094 152.72 685.328C152.079 687.266 150.845 688.922 149.22 689.703L148.204 688.344C150.454 687.281 151.814 684.625 151.829 682.281V681.094H148.751V679.656H156.517V681.094H153.564V682.281ZM159.564 678.266V683.766H161.736V685.219H159.564V692.391H157.829V678.266H159.564ZM169.369 679.438C169.369 681.219 171.353 683.016 174.369 683.406L173.681 684.812C171.283 684.453 169.377 683.273 168.463 681.672C167.533 683.273 165.634 684.453 163.259 684.812L162.572 683.406C165.556 683.016 167.541 681.219 167.541 679.438V678.719H169.369V679.438ZM174.884 686.031V687.469H169.275V692.391H167.556V687.469H162.009V686.031H174.884ZM182.268 691V692.594H174.955V691H182.268ZM185.698 679.688V691H183.651V681.672H183.588L180.948 683.359V681.5L183.744 679.688H185.698ZM188.128 691V689.531L192.128 685.672C193.268 684.531 193.862 683.859 193.862 682.906C193.862 681.859 193.034 681.188 191.924 681.188C190.753 681.188 190.003 681.922 190.018 683.062H188.081C188.065 680.922 189.674 679.531 191.94 679.531C194.253 679.531 195.815 680.906 195.815 682.812C195.815 684.094 195.19 685.125 192.971 687.219L190.956 689.219V689.297H195.987V691H188.128ZM201.558 691.156C199.136 691.156 197.417 689.844 197.37 687.938H199.417C199.479 688.844 200.386 689.438 201.558 689.438C202.808 689.438 203.698 688.75 203.698 687.75C203.698 686.734 202.823 686 201.354 686H200.339V684.438H201.354C202.558 684.438 203.401 683.766 203.386 682.781C203.401 681.828 202.683 681.188 201.573 681.188C200.511 681.188 199.589 681.781 199.558 682.734H197.604C197.651 680.828 199.37 679.531 201.589 679.531C203.886 679.531 205.37 680.938 205.354 682.672C205.37 683.938 204.526 684.859 203.292 685.109V685.203C204.886 685.422 205.792 686.438 205.776 687.859C205.792 689.766 204.011 691.156 201.558 691.156Z" fill="#FEFEFE"/>
<g clip-path="url(#clip6_6104_4251)">
<path d="M221 690L226 685" stroke="white" stroke-width="1.5" stroke-linecap="round" stroke-linejoin="round"/>
<path d="M226 685L221 680" stroke="white" stroke-width="1.5" stroke-linecap="round" stroke-linejoin="round"/>
</g>
<path d="M36 733C36 728.582 39.5817 725 44 725H331C335.418 725 339 728.582 339 733V757C339 761.418 335.418 765 331 765H44C39.5817 765 36 761.418 36 757V733Z" fill="#20201D"/>
<path d="M53.5 738C52.675 738 52 738.63 52 739.4V750.597C52 751.752 53.41 752.41 54.4 751.717L58 749.198L61.6 751.717C62.59 752.41 64 751.752 64 750.597V739.4C64 738.63 63.325 738 62.5 738H53.5Z" fill="#FF9257"/>
<path d="M76.5068 742.015C76.5068 743.259 77.4336 744.478 79.2363 744.973L78.5889 746.064C77.2686 745.709 76.3291 744.935 75.8213 743.944C75.3135 745.036 74.355 745.88 72.9902 746.268L72.3174 745.176C74.1328 744.668 75.0977 743.386 75.0977 742.015V741.989H72.6982V740.872H75.0977V739.603H76.5195V740.872H78.9062V741.989H76.5068V742.015ZM81.4326 739.653V742.421H83.0322V743.589H81.4326V746.407H80.0234V739.653H81.4326ZM81.4326 746.89V750.99H74.0186V746.89H81.4326ZM75.415 748.007V749.848H80.0361V748.007H75.415ZM86.492 740.491C87.533 740.491 88.3899 741.069 88.9041 742.078H91.5828V739.653H92.9793V751.143H91.5828V746.801H89.0056C88.5105 747.943 87.6028 748.604 86.492 748.604C84.7654 748.604 83.5466 747.042 83.5466 744.541C83.5466 742.065 84.7654 740.491 86.492 740.491ZM86.492 741.761C85.5398 741.761 84.8923 742.789 84.905 744.541C84.8923 746.306 85.5398 747.334 86.492 747.334C87.4441 747.334 88.0789 746.306 88.0916 744.541C88.0789 742.789 87.4441 741.761 86.492 741.761ZM89.2976 743.233C89.3801 743.633 89.4246 744.071 89.4246 744.541C89.4246 744.941 89.3928 745.309 89.3357 745.658H91.5828V743.233H89.2976ZM106.284 740.123V744.109H103.085V745.315H107.617V746.458H97.1565V745.315H101.663V744.109H98.4768V740.123H106.284ZM99.8479 741.228V742.992H104.888V741.228H99.8479ZM106.335 747.423V751.13H104.926V748.54H98.3118V747.423H106.335ZM112.347 741.621C112.347 743.018 113.273 744.427 115.051 745.023L114.34 746.115C113.058 745.696 112.15 744.827 111.648 743.754C111.147 744.954 110.189 745.918 108.83 746.369L108.106 745.252C109.935 744.655 110.912 743.132 110.912 741.634V741.481H108.525V740.352H114.721V741.481H112.347V741.621ZM117.742 747.042V751.13H116.333V748.172H109.922V747.042H117.742ZM117.742 739.653V746.496H116.333V743.652H114.378V742.497H116.333V739.653H117.742Z" fill="#FF6F22"/>
<rect width="375" height="44" fill="#1F1F1F"/>
<path fill-rule="evenodd" clip-rule="evenodd" d="M339.589 16.1599H354.411C355.659 16.1599 356.111 16.2899 356.568 16.5339C357.024 16.7779 357.382 17.136 357.626 17.5923C357.87 18.0486 358 18.5012 358 19.7494V24.0705C358 25.3186 357.87 25.7712 357.626 26.2275C357.382 26.6838 357.024 27.0419 356.568 27.2859C356.111 27.53 355.659 27.6599 354.411 27.6599H339.589C338.341 27.6599 337.889 27.53 337.432 27.2859C336.976 27.0419 336.618 26.6838 336.374 26.2275C336.13 25.7712 336 25.3186 336 24.0705V19.7494C336 18.5012 336.13 18.0486 336.374 17.5923C336.618 17.136 336.976 16.7779 337.432 16.5339C337.889 16.2899 338.341 16.1599 339.589 16.1599ZM339.589 17.1599C338.602 17.1599 338.258 17.2264 337.904 17.4157C337.622 17.5665 337.407 17.7819 337.256 18.0639C337.067 18.4178 337 18.7624 337 19.7494V24.0705C337 25.0575 337.067 25.402 337.256 25.7559C337.407 26.0379 337.622 26.2533 337.904 26.4041C338.258 26.5934 338.602 26.6599 339.589 26.6599H354.411C355.398 26.6599 355.742 26.5934 356.096 26.4041C356.378 26.2533 356.593 26.0379 356.744 25.7559C356.933 25.402 357 25.0575 357 24.0705V19.7494C357 18.7624 356.933 18.4178 356.744 18.0639C356.593 17.7819 356.378 17.5665 356.096 17.4157C355.742 17.2264 355.398 17.1599 354.411 17.1599H339.589ZM360.5 21.8499C360.5 23.0865 359 23.8499 359 23.8499V19.8499C359 19.8499 360.5 20.6133 360.5 21.8499Z" fill="white" fill-opacity="0.36"/>
<rect x="338" y="18.0767" width="18" height="7.66667" rx="1.6" fill="white"/>
<path fill-rule="evenodd" clip-rule="evenodd" d="M307.623 17.5657C307.6 17.6817 307.6 17.8211 307.6 18.0999V25.7999C307.6 26.0786 307.6 26.218 307.623 26.334C307.718 26.81 308.09 27.1821 308.566 27.2768C308.682 27.2999 308.821 27.2999 309.1 27.2999C309.379 27.2999 309.518 27.2999 309.634 27.2768C310.11 27.1821 310.482 26.81 310.577 26.334C310.6 26.218 310.6 26.0786 310.6 25.7999V18.0999C310.6 17.8211 310.6 17.6817 310.577 17.5657C310.482 17.0897 310.11 16.7176 309.634 16.6229C309.518 16.5999 309.379 16.5999 309.1 16.5999C308.821 16.5999 308.682 16.5999 308.566 16.6229C308.09 16.7176 307.718 17.0897 307.623 17.5657ZM302.9 20.4999C302.9 20.2211 302.9 20.0817 302.923 19.9657C303.018 19.4897 303.39 19.1176 303.866 19.0229C303.982 18.9999 304.121 18.9999 304.4 18.9999C304.679 18.9999 304.818 18.9999 304.934 19.0229C305.41 19.1176 305.782 19.4897 305.877 19.9657C305.9 20.0817 305.9 20.2211 305.9 20.4999V25.7999C305.9 26.0787 305.9 26.218 305.877 26.334C305.782 26.81 305.41 27.1821 304.934 27.2768C304.818 27.2999 304.679 27.2999 304.4 27.2999C304.121 27.2999 303.982 27.2999 303.866 27.2768C303.39 27.1821 303.018 26.81 302.923 26.334C302.9 26.218 302.9 26.0787 302.9 25.7999V20.4999ZM298.323 22.2657C298.3 22.3817 298.3 22.5211 298.3 22.7999V25.7999C298.3 26.0787 298.3 26.218 298.323 26.334C298.418 26.81 298.79 27.1821 299.266 27.2768C299.382 27.2999 299.521 27.2999 299.8 27.2999C300.079 27.2999 300.218 27.2999 300.334 27.2768C300.81 27.1821 301.182 26.81 301.277 26.334C301.3 26.218 301.3 26.0787 301.3 25.7999V22.7999C301.3 22.5211 301.3 22.3817 301.277 22.2657C301.182 21.7897 300.81 21.4176 300.334 21.3229C300.218 21.2999 300.079 21.2999 299.8 21.2999C299.521 21.2999 299.382 21.2999 299.266 21.3229C298.79 21.4176 298.418 21.7897 298.323 22.2657ZM293.523 24.2657C293.5 24.3817 293.5 24.5211 293.5 24.7999V25.7999C293.5 26.0787 293.5 26.218 293.523 26.334C293.618 26.81 293.99 27.1821 294.466 27.2768C294.582 27.2999 294.721 27.2999 295 27.2999C295.279 27.2999 295.418 27.2999 295.534 27.2768C296.01 27.1821 296.382 26.81 296.477 26.334C296.5 26.218 296.5 26.0787 296.5 25.7999V24.7999C296.5 24.5211 296.5 24.3817 296.477 24.2657C296.382 23.7897 296.01 23.4176 295.534 23.3229C295.418 23.2999 295.279 23.2999 295 23.2999C294.721 23.2999 294.582 23.2999 294.466 23.3229C293.99 23.4176 293.618 23.7897 293.523 24.2657Z" fill="white"/>
<path fill-rule="evenodd" clip-rule="evenodd" d="M323.3 18.6963C325.535 18.6964 327.684 19.5549 329.303 21.0945C329.425 21.2133 329.62 21.2118 329.74 21.0911L330.906 19.9147C330.967 19.8535 331 19.7705 331 19.6842C330.999 19.5979 330.965 19.5154 330.903 19.4549C326.653 15.3816 319.947 15.3816 315.697 19.4549C315.635 19.5154 315.601 19.5979 315.6 19.6842C315.599 19.7705 315.633 19.8534 315.694 19.9147L316.86 21.0911C316.98 21.212 317.175 21.2135 317.297 21.0945C318.917 19.5548 321.066 18.6963 323.3 18.6963ZM323.3 22.5236C324.528 22.5236 325.712 22.9799 326.622 23.8039C326.745 23.9209 326.939 23.9183 327.059 23.7982L328.223 22.6218C328.285 22.5601 328.319 22.4764 328.318 22.3894C328.317 22.3024 328.281 22.2194 328.218 22.159C325.447 19.5812 321.156 19.5812 318.385 22.159C318.322 22.2194 318.286 22.3024 318.286 22.3895C318.285 22.4765 318.319 22.5602 318.38 22.6218L319.544 23.7982C319.664 23.9183 319.858 23.9209 319.981 23.8039C320.891 22.9804 322.074 22.5242 323.3 22.5236ZM325.538 25.3313C325.6 25.2701 325.635 25.186 325.633 25.0988C325.631 25.0116 325.593 24.929 325.529 24.8704C324.242 23.7825 322.358 23.7825 321.072 24.8704C321.008 24.9289 320.97 25.0115 320.968 25.0987C320.966 25.186 321 25.2701 321.063 25.3313L323.077 27.3638C323.136 27.4235 323.216 27.4571 323.3 27.4571C323.384 27.4571 323.465 27.4235 323.524 27.3638L325.538 25.3313Z" fill="white"/>
<path d="M36.0946 16.1675C38.3505 16.1675 40.3134 17.7715 40.3134 21.5801V21.5947C40.3134 25.1543 38.7094 27.2637 36.0507 27.2637C34.1098 27.2637 32.6596 26.1138 32.3227 24.4951L32.308 24.4146H34.1684L34.1904 24.4878C34.4687 25.2275 35.1205 25.7109 36.0507 25.7109C37.7279 25.7109 38.4384 24.0703 38.519 22.0488C38.519 21.9683 38.5263 21.8877 38.5263 21.8071H38.3798C37.9916 22.6421 37.0688 23.3818 35.6186 23.3818C33.5898 23.3818 32.1689 21.9023 32.1689 19.8955V19.8809C32.1689 17.7349 33.8022 16.1675 36.0946 16.1675ZM36.0873 21.9316C37.2812 21.9316 38.1967 21.0674 38.1967 19.8735V19.8589C38.1967 18.6504 37.2812 17.7056 36.1093 17.7056C34.9447 17.7056 34.0146 18.6357 34.0146 19.8149V19.8296C34.0146 21.0527 34.8862 21.9316 36.0873 21.9316ZM43.4736 20.1519C42.8071 20.1519 42.309 19.6392 42.309 18.9946C42.309 18.3428 42.8071 17.8374 43.4736 17.8374C44.1474 17.8374 44.6381 18.3428 44.6381 18.9946C44.6381 19.6392 44.1474 20.1519 43.4736 20.1519ZM43.4736 25.5864C42.8071 25.5864 42.309 25.0811 42.309 24.4292C42.309 23.7773 42.8071 23.272 43.4736 23.272C44.1474 23.272 44.6381 23.7773 44.6381 24.4292C44.6381 25.0811 44.1474 25.5864 43.4736 25.5864ZM51.7607 27V24.9712H46.5898V23.4258C47.9595 21.0454 49.4609 18.6138 50.8965 16.4312H53.5698V23.4111H54.9907V24.9712H53.5698V27H51.7607ZM48.3477 23.4551H51.79V17.9399H51.6802C50.5962 19.5952 49.373 21.5508 48.3477 23.3452V23.4551ZM59.2056 27V18.2915H59.0811L56.4517 20.1519V18.3721L59.2129 16.4312H61.0953V27H59.2056Z" fill="white"/>
<rect width="375" height="55" transform="translate(0 44)" fill="#1F1F1F"/>
<path d="M33.7461 63.6738V73.6406H31.7949V63.6738H33.7461ZM20.4219 70.7578C22.417 70.7578 24.8076 70.7227 27.1719 70.5645C27.3037 69.9492 27.4004 69.3779 27.4707 68.8418L21.7578 69.2637L21.4941 67.6816L27.6113 67.418C27.6377 66.917 27.6465 66.46 27.6465 66.0469H21.8281V64.4648H29.5449V65.5723C29.5449 66.7852 29.5449 68.332 29.1582 70.4238C29.7119 70.3711 30.2832 70.3184 30.8281 70.248L30.9336 71.6367C29.5361 71.874 28.0771 72.0234 26.627 72.1289V74.3438H33.7461V79.5645H31.7949V75.9082H22.7598V74.3438H24.6758V72.2344C23.252 72.3047 21.8896 72.3223 20.668 72.3398L20.4219 70.7578ZM38.7031 65.2559V73.9922C40.2588 73.9746 41.6914 73.8604 43.3086 73.5176L43.5898 75.1699C41.5684 75.6094 39.8281 75.6797 37.8242 75.6797H36.752V65.2559H38.7031ZM49.7949 63.6738V79.5645H47.9316V63.6738H49.7949ZM46.3848 64.0078V78.8086H44.5391V70.3887H41.2168V68.8066H44.5391V64.0078H46.3848ZM64.5605 72.0059V73.5527H53.416V64.9219H64.4199V66.5039H55.4023V68.4199H64.0508V69.9492H55.4023V72.0059H64.5605ZM66.1602 76.0312V77.6309H51.6406V76.0312H66.1602ZM80.6094 63.6914V79.5469H78.623V75.9082H75.248V74.4316H78.623V63.6914H80.6094ZM67.127 71.8477C70.1152 71.8477 74.0879 71.8301 77.5332 71.3555L77.6562 72.7969C76.1973 73.0518 74.6943 73.2012 73.2266 73.2891V79.0723H71.2578V73.3945C69.8691 73.4385 68.5508 73.4473 67.373 73.4473L67.127 71.8477ZM72.3477 64.377C74.6855 64.377 76.3906 65.6953 76.3906 67.5938C76.3906 69.5273 74.6855 70.793 72.3477 70.793C69.957 70.793 68.2695 69.5273 68.2695 67.5938C68.2695 65.6953 69.957 64.377 72.3477 64.377ZM72.3477 65.8711C71.0117 65.8711 70.1152 66.5566 70.1152 67.5938C70.1152 68.666 71.0117 69.2988 72.3477 69.2988C73.6133 69.2988 74.5273 68.666 74.5273 67.5938C74.5273 66.5566 73.6133 65.8711 72.3477 65.8711ZM95.6387 65.1504V67.0488C95.6387 69.3516 95.6387 71.5488 94.9355 74.9062L92.9844 74.7305C93.3096 73.3418 93.4941 72.1201 93.5996 70.9863L84.2305 71.4785L83.9668 69.8965L93.6875 69.5273C93.7227 68.6748 93.7227 67.8574 93.7227 67.0488V66.7324H84.4414V65.1504H95.6387ZM97.2383 75.9434V77.543H82.7539V75.9434H97.2383Z" fill="#FEFEFE"/>
<rect x="106" y="60.5" width="41" height="22" rx="11" fill="#FF9257"/>
<rect x="127" y="62.5" width="18" height="18" rx="9" fill="white"/>
<g clip-path="url(#clip7_6104_4251)">
<path d="M344.333 60.833H346.667C348.323 60.833 349.667 62.1762 349.667 63.833V66.1663" stroke="#FEFEFE" stroke-width="1.5" stroke-linecap="round" stroke-linejoin="round"/>
<path d="M333.667 82.1663L331.333 82.1663C329.676 82.1663 328.333 80.8231 328.333 79.1663L328.333 76.8329" stroke="#FEFEFE" stroke-width="1.5" stroke-linecap="round" stroke-linejoin="round"/>
<path d="M349.667 76.833V79.1663C349.667 80.8232 348.323 82.1663 346.667 82.1663H344.333" stroke="#FEFEFE" stroke-width="1.5" stroke-linecap="round" stroke-linejoin="round"/>
<path d="M328.333 66.1663L328.333 63.8329C328.333 62.1761 329.677 60.8329 331.333 60.8329L333.667 60.8329" stroke="#FEFEFE" stroke-width="1.5" stroke-linecap="round" stroke-linejoin="round"/>
<rect x="332.667" y="65.1667" width="4.66667" height="4.66667" rx="1" stroke="#FEFEFE" stroke-width="1.5" stroke-linecap="round" stroke-linejoin="round"/>
<rect x="340.667" y="65.1667" width="4.66667" height="4.66667" rx="1" stroke="#FEFEFE" stroke-width="1.5" stroke-linecap="round" stroke-linejoin="round"/>
<rect x="332.667" y="73.1667" width="4.66667" height="4.66667" rx="1" stroke="#FEFEFE" stroke-width="1.5" stroke-linecap="round" stroke-linejoin="round"/>
<path d="M341.667 73.8333L341.682 73.8167" stroke="#FEFEFE" stroke-width="1.5" stroke-linecap="round" stroke-linejoin="round"/>
<path d="M345 73.8333L345.015 73.8167" stroke="#FEFEFE" stroke-width="1.5" stroke-linecap="round" stroke-linejoin="round"/>
<path d="M341.667 76.8498L341.682 76.8333" stroke="#FEFEFE" stroke-width="1.5" stroke-linecap="round" stroke-linejoin="round"/>
</g>
<path d="M0 740C0 731.163 7.16344 724 16 724H359C367.837 724 375 731.163 375 740V812H0V740Z" fill="black"/>
<path fill-rule="evenodd" clip-rule="evenodd" d="M73.1667 744.667H78.5V747.333H81.1667V750H83.8333V752.667H86.5V755.333H89.1667V758H86.5V771.333H77.1667V763.333H74.5V771.333H65.1667V758H62.5V755.333H65.1667V752.667H67.8333V750H70.5V747.333H73.1667V744.667Z" fill="#07CA7F"/>
<path fill-rule="evenodd" clip-rule="evenodd" d="M190.167 744.667V747.333H194.167V750H180.833V747.333H184.833V744.667H190.167ZM184.833 768.667V767.333V766H184.833V770H182.166V766L175.5 766V763.333V760.667H178.167L180.833 760.667V760.667H178.167V750H180.834V750H194.167V760.667H196.833V763.333H190.167L196.833 763.333V760.667H199.5L199.5 763.333V766L192.833 766V770H190.166L184.833 770V768.667ZM194.167 750H196.833V760.667H194.167V750Z" fill="#5C5C5C"/>
<path fill-rule="evenodd" clip-rule="evenodd" d="M303.167 744.667H295.167V747.333H292.5V755.333H295.167V755.333V758H303.167V755.333V747.333V744.667ZM305.834 747.333H303.167V755.333H305.834V747.333ZM289.833 763.333H287.167V771.333H288.5H289.833H308.5H309.833H311.167V763.333H308.5V760.667H289.833V763.333Z" fill="#5C5C5C"/>
<rect x="120" y="799" width="135" height="5" rx="2.5" fill="white"/>
<path d="M334.766 102H343.234C344.011 102 344.491 101.152 344.091 100.486L339.857 93.4292C339.469 92.7818 338.531 92.7818 338.143 93.4292L333.909 100.486C333.509 101.152 333.989 102 334.766 102Z" fill="#00AD6B"/>
<path d="M154 106C154 102.686 156.686 100 160 100H351C354.314 100 357 102.686 357 106V124C357 127.314 354.314 130 351 130H160C156.686 130 154 127.314 154 124V106Z" fill="#00AD6B"/>
<path d="M168.304 117.017H169.675L170.563 118.159C171.167 117.588 171.541 116.661 171.541 115.404C171.541 113.17 170.36 111.964 168.786 111.964C167.199 111.964 166.019 113.17 166.019 115.404C166.019 117.639 167.199 118.845 168.786 118.845C169.078 118.845 169.351 118.807 169.611 118.718L168.304 117.017ZM172.925 115.404C172.925 117.093 172.341 118.407 171.389 119.213L172.633 120.825H171.198L170.424 119.81C169.929 120.019 169.376 120.127 168.786 120.127C166.387 120.127 164.635 118.337 164.635 115.404C164.635 112.459 166.387 110.682 168.786 110.682C171.16 110.682 172.925 112.459 172.925 115.404ZM174.239 120V110.809H177.514C179.647 110.809 180.701 112.002 180.701 113.69C180.701 114.928 180.142 115.868 179.025 116.28L181.056 120H179.469L177.603 116.534H177.514H175.636V120H174.239ZM175.636 115.328H177.375C178.733 115.328 179.292 114.731 179.292 113.69C179.292 112.649 178.733 112.002 177.375 112.002H175.636V115.328ZM191.879 118.705V119.721H181.469V118.705H186.052V116.712H182.739V113.094H189.417V111.494H182.713V110.504H190.61V114.059H183.932V115.722H190.876V116.712H187.246V118.705H191.879ZM204.842 109.704V116.42H203.636V114.731H201.16V115.658H195.879V110.555H201.16V111.494H203.636V109.704H204.842ZM197.072 111.52V114.693H199.98V111.52H197.072ZM201.033 116.737C203.42 116.737 204.88 117.524 204.88 118.908C204.88 120.279 203.42 121.066 201.033 121.054C198.647 121.066 197.174 120.279 197.187 118.908C197.174 117.524 198.647 116.737 201.033 116.737ZM201.033 117.664C199.37 117.677 198.38 118.108 198.38 118.908C198.38 119.67 199.37 120.127 201.033 120.127C202.696 120.127 203.687 119.67 203.687 118.908C203.687 118.108 202.696 117.677 201.033 117.664ZM201.16 113.754H203.636V112.459H201.16V113.754ZM215.271 109.704V112.649H216.922V113.678H215.271V116.56H214.065V109.704H215.271ZM215.271 117.156V120.939H208.01V117.156H215.271ZM209.19 118.108V119.962H214.078V118.108H209.19ZM213.126 110.859V111.824H206.346V110.859H209.139V109.615H210.346V110.859H213.126ZM209.736 112.319C211.374 112.319 212.491 113.132 212.491 114.351C212.491 115.582 211.374 116.382 209.736 116.395C208.073 116.382 206.969 115.582 206.969 114.351C206.969 113.132 208.073 112.319 209.736 112.319ZM209.736 113.246C208.771 113.233 208.124 113.665 208.137 114.351C208.124 115.062 208.771 115.48 209.736 115.48C210.701 115.48 211.348 115.062 211.361 114.351C211.348 113.665 210.701 113.233 209.736 113.246ZM222.489 109.895C225.053 109.895 226.551 110.58 226.551 111.85C226.551 113.119 225.053 113.817 222.489 113.817C219.924 113.817 218.426 113.119 218.426 111.85C218.426 110.58 219.924 109.895 222.489 109.895ZM222.489 110.783C220.673 110.783 219.67 111.177 219.683 111.85C219.67 112.548 220.673 112.916 222.489 112.916C224.304 112.916 225.307 112.548 225.307 111.85C225.307 111.177 224.304 110.783 222.489 110.783ZM227.681 114.516V115.48H217.309V114.516H227.681ZM226.374 116.356V119.022H219.747V120.038H226.691V120.965H218.566V118.146H225.18V117.258H218.553V116.356H226.374ZM241.57 116.115V117.093H236.949V121.066H235.769V117.093H231.198V116.115H241.57ZM240.593 110.377V111.342H237.076C237.095 112.751 238.847 114.008 240.999 114.3L240.555 115.252C238.689 114.96 237.076 114.04 236.391 112.738C235.686 114.04 234.08 114.96 232.239 115.252L231.782 114.3C233.909 114.008 235.661 112.751 235.705 111.342H232.163V110.377H240.593ZM251.378 110.796V111.913C251.378 113.322 251.378 114.896 250.946 117.22L249.727 117.093C250.172 114.896 250.172 113.284 250.172 111.913V111.773H243.265V110.796H251.378ZM252.546 118.54V119.543H242.174V118.54H246.122V114.528H247.315V118.54H252.546ZM265 109.704V112.396H266.651V113.398H265V116.344H263.794V109.704H265ZM257.688 110.352V112.002H260.671V110.352H261.865V115.684H256.507V110.352H257.688ZM257.688 114.731H260.671V112.954H257.688V114.731ZM265.089 116.94V117.905H258.957V119.962H265.292V120.914H257.751V116.94H265.089ZM272.218 109.895C274.782 109.895 276.28 110.58 276.28 111.85C276.28 113.119 274.782 113.817 272.218 113.817C269.653 113.817 268.155 113.119 268.155 111.85C268.155 110.58 269.653 109.895 272.218 109.895ZM272.218 110.783C270.402 110.783 269.4 111.177 269.412 111.85C269.4 112.548 270.402 112.916 272.218 112.916C274.033 112.916 275.036 112.548 275.036 111.85C275.036 111.177 274.033 110.783 272.218 110.783ZM277.41 114.516V115.48H267.038V114.516H277.41ZM276.103 116.356V119.022H269.476V120.038H276.42V120.965H268.295V118.146H274.909V117.258H268.282V116.356H276.103ZM286.755 110.707C286.742 112.218 288.595 113.64 290.83 113.932L290.36 114.922C288.5 114.624 286.862 113.659 286.132 112.319C285.383 113.665 283.752 114.624 281.905 114.922L281.423 113.932C283.657 113.64 285.485 112.23 285.498 110.707V110.085H286.755V110.707ZM291.299 116.039V117.029H286.678V121.079H285.498V117.029H280.927V116.039H291.299ZM298.765 117.22C298.765 118.197 299.247 119.232 300.276 119.848C301.323 119.181 301.837 118.089 301.837 117.22V116.674H303.018V117.22C303.018 118.4 303.792 119.543 305.277 120.025L304.681 120.914C303.557 120.527 302.796 119.771 302.396 118.832C302.034 119.752 301.355 120.584 300.314 121.016C299.222 120.603 298.53 119.797 298.181 118.87C297.768 119.765 297.019 120.521 295.946 120.914L295.337 120.025C296.797 119.505 297.584 118.324 297.597 117.22V116.674H298.765V117.22ZM304.249 109.717V116.191H303.043V109.717H304.249ZM298.079 110.339C299.819 110.339 301.101 111.443 301.101 113.03C301.101 114.604 299.819 115.696 298.079 115.696C296.34 115.696 295.045 114.604 295.045 113.03C295.045 111.443 296.34 110.339 298.079 110.339ZM298.079 111.367C297 111.354 296.226 112.027 296.226 113.03C296.226 114.021 297 114.693 298.079 114.693C299.146 114.693 299.92 114.021 299.92 113.03C299.92 112.027 299.146 111.354 298.079 111.367ZM308.877 110.555C310.419 110.555 311.549 111.862 311.733 113.97H314.082V109.704H315.275V121.104H314.082V114.947H311.746C311.613 117.163 310.457 118.54 308.877 118.54C307.176 118.54 305.982 116.991 305.995 114.541C305.982 112.104 307.176 110.555 308.877 110.555ZM308.877 111.634C307.849 111.634 307.138 112.751 307.138 114.541C307.138 116.344 307.849 117.461 308.877 117.461C309.905 117.461 310.616 116.344 310.616 114.541C310.616 112.751 309.905 111.634 308.877 111.634ZM327.177 118.654V119.657H316.767V118.654H319.256V115.684C318.322 115.169 317.758 114.351 317.758 113.335C317.758 111.545 319.509 110.364 321.947 110.364C324.397 110.364 326.149 111.545 326.149 113.335C326.149 114.338 325.603 115.144 324.689 115.658V118.654H327.177ZM321.947 111.329C320.157 111.329 318.925 112.104 318.925 113.335C318.925 114.554 320.157 115.354 321.947 115.354C323.724 115.354 324.981 114.554 324.981 113.335C324.981 112.104 323.724 111.329 321.947 111.329ZM320.449 118.654H323.47V116.115C323.007 116.236 322.493 116.293 321.947 116.293C321.414 116.293 320.906 116.236 320.449 116.128V118.654ZM329.837 110.809L329.723 117.347H328.466L328.352 110.809H329.837ZM329.101 120.089C328.606 120.089 328.187 119.683 328.2 119.188C328.187 118.692 328.606 118.286 329.101 118.286C329.583 118.286 330.002 118.692 330.002 119.188C330.002 119.683 329.583 120.089 329.101 120.089Z" fill="white"/>
<g clip-path="url(#clip8_6104_4251)">
<path d="M337.083 112.083L342.917 117.917M337.083 117.917L342.917 112.083" stroke="#FEFEFE" stroke-width="1.5" stroke-linecap="round" stroke-linejoin="round"/>
</g>
</g>
<defs>
<clipPath id="clip0_6104_4251">
<rect width="375" height="812" fill="white"/>
</clipPath>
<clipPath id="clip1_6104_4251">
<rect width="375" height="46" fill="white" transform="translate(0 99)"/>
</clipPath>
<clipPath id="clip2_6104_4251">
<rect width="16" height="16" fill="white" transform="translate(54 165)"/>
</clipPath>
<clipPath id="clip3_6104_4251">
<rect width="24" height="24" fill="white" transform="translate(211 229)"/>
</clipPath>
<clipPath id="clip4_6104_4251">
<rect width="24" height="24" fill="white" transform="translate(211 377)"/>
</clipPath>
<clipPath id="clip5_6104_4251">
<rect width="24" height="24" fill="white" transform="translate(211 525)"/>
</clipPath>
<clipPath id="clip6_6104_4251">
<rect width="24" height="24" fill="white" transform="translate(211 673)"/>
</clipPath>
<clipPath id="clip7_6104_4251">
<rect width="32" height="32" fill="white" transform="translate(323 55.5)"/>
</clipPath>
<clipPath id="clip8_6104_4251">
<rect width="14" height="14" fill="white" transform="translate(333 108)"/>
</clipPath>
</defs>
</svg>
