<svg width="24" height="24" viewBox="0 0 24 24" fill="none" xmlns="http://www.w3.org/2000/svg">
<path d="M12.572 15.0319C12.572 14.6372 12.892 14.3172 13.2867 14.3172H15.4306C15.8253 14.3172 16.1453 14.6372 16.1453 15.0319V17.1759C16.1453 17.5705 15.8253 17.8905 15.4306 17.8905H13.2867C12.892 17.8905 12.572 17.5705 12.572 17.1759V15.0319Z" fill="#07CA7F"/>
<path d="M16.144 18.6051C16.144 18.2104 16.464 17.8905 16.8587 17.8905H19.0027C19.3974 17.8905 19.7173 18.2104 19.7173 18.6051V20.7491C19.7173 21.1438 19.3974 21.4638 19.0027 21.4638H16.8587C16.464 21.4638 16.144 21.1438 16.144 20.7491V18.6051Z" fill="#07CA7F"/>
<path fill-rule="evenodd" clip-rule="evenodd" d="M2.74487 9.67219C2.74487 5.62658 6.02449 2.34696 10.0701 2.34696H12.9287C16.9743 2.34696 20.254 5.62658 20.254 9.67219V13.6028C20.254 13.9975 19.934 14.3175 19.5393 14.3175H17.7527C17.358 14.3175 17.038 13.9975 17.038 13.6028V9.67219C17.038 7.4027 15.1982 5.56292 12.9287 5.56292H10.0701C7.80061 5.56292 5.96083 7.4027 5.96083 9.67219V14.6748C5.96083 16.9443 7.80061 18.7841 10.0701 18.7841H12.0675C12.4622 18.7841 12.7821 19.104 12.7821 19.4987V21.2854C12.7821 21.6801 12.4622 22 12.0675 22H10.0701C6.02449 22 2.74487 18.7204 2.74487 14.6748V9.67219Z" fill="#1F1F1F"/>
</svg>
