<svg width="146" height="146" viewBox="0 0 146 146" fill="none" xmlns="http://www.w3.org/2000/svg">
<path d="M81.5469 32.1355C81.5626 30.8454 81.5783 29.5709 81.5941 28.2807C81.5941 27.9346 81.5941 27.6042 81.5941 27.2895C82.255 27.1007 90.6264 27.0535 91.8066 27.2266C91.8066 28.8314 91.8066 30.4363 91.8066 32.1355C93.5376 32.1355 95.1899 32.1355 96.9523 32.1355C96.9995 35.5812 96.9523 38.9325 96.9837 42.3782C98.6518 42.3782 100.273 42.3782 101.972 42.3782C101.972 44.1089 101.972 45.761 101.972 47.5232C103.719 47.6018 105.387 47.5075 107.133 47.5861C107.133 50.9689 107.133 54.3044 107.133 57.7344C108.864 57.7344 110.501 57.7344 112.185 57.7344C112.185 61.1801 112.185 64.5157 112.185 67.9614C110.532 67.9614 108.896 67.9614 107.196 67.9614C107.196 69.6764 107.196 71.297 107.196 72.9962C108.833 72.9962 110.454 72.9962 112.043 72.9962C112.263 73.657 112.311 76.9612 112.122 78.1412C110.517 78.1412 108.896 78.1412 107.306 78.1412C107.102 78.802 107.039 81.933 107.212 83.2389C108.833 83.2389 110.469 83.2389 112.169 83.2389C112.169 84.9854 112.169 86.6375 112.169 88.3682C107.133 88.3682 102.114 88.3682 97.1254 88.3682C96.9208 89.0447 96.8736 92.396 97.0467 93.5446C98.6518 93.5446 100.257 93.5446 101.972 93.5446C101.972 95.2439 101.972 96.8644 101.972 98.5637C103.703 98.5637 105.355 98.5637 107.102 98.5637C107.102 100.31 107.102 101.978 107.102 103.693C108.833 103.693 110.454 103.693 112.2 103.693C112.248 102.025 112.185 100.357 112.232 98.6109C113.947 98.6109 115.599 98.6109 117.33 98.6109C117.33 93.4817 117.33 88.4311 117.33 83.2862C119.03 83.2862 120.651 83.2862 122.366 83.2862C122.366 81.5555 122.366 79.9191 122.366 78.2199C125.812 78.2199 129.132 78.2199 132.468 78.2199C132.657 78.7863 132.72 86.8892 132.531 88.3839C130.91 88.3839 129.274 88.3839 127.543 88.3839C127.543 91.8296 127.543 95.1494 127.543 98.5637C125.812 98.5637 124.16 98.5637 122.397 98.5637C122.397 99.9168 122.381 101.191 122.381 102.466C122.381 103.724 122.381 104.983 122.381 106.242C122.381 107.532 122.381 108.822 122.381 110.097C122.381 111.355 122.381 112.598 122.381 113.936C117.283 113.936 112.263 113.936 107.149 113.936C107.086 115.635 107.149 117.256 107.118 118.845C106.488 119.018 57.1562 119.065 56.039 118.892C56.039 117.287 56.039 115.682 56.039 114.014C52.6243 114.014 49.2883 114.014 45.8736 114.014C45.8736 115.635 45.8736 117.255 45.8736 118.939C39.0442 118.939 32.325 118.939 25.5901 118.939C25.417 118.388 25.3698 104.983 25.5428 103.756C27.1794 103.756 28.8159 103.756 30.5783 103.756C30.6255 100.342 30.5783 97.0061 30.6098 93.5761C32.2621 93.5132 33.8671 93.5761 35.4722 93.5446C35.661 92.9152 35.7082 89.5954 35.5351 88.4311C30.5311 88.4311 25.5114 88.4311 20.3815 88.4311C20.3343 86.7004 20.3657 85.0641 20.3657 83.3176C22.0337 83.176 23.686 83.3333 25.3068 83.2232C25.4799 82.5624 25.5114 79.1954 25.3383 78.1727C23.7175 78.1727 22.081 78.1727 20.413 78.1727C20.413 76.4262 20.413 74.7742 20.413 73.0435C22.081 73.0435 23.686 73.0435 25.2911 73.0435C25.4956 72.3826 25.5428 69.5663 25.4012 68.0716C24.6144 67.8828 23.7804 68.0086 22.9779 67.9929C22.1596 67.9772 21.3256 67.9929 20.4444 67.9929C20.4444 64.5629 20.4444 61.2116 20.4444 57.7817C22.0967 57.7817 23.7175 57.7817 25.4484 57.7817C25.4799 54.3674 25.4484 51.0476 25.4642 47.6018C27.1636 47.5232 28.8316 47.6176 30.5783 47.5389C30.5783 45.8397 30.5783 44.1876 30.5783 42.4412C32.2778 42.4412 33.8829 42.4412 35.5981 42.4412C35.6925 41.2454 35.6296 40.144 35.6453 39.0427C35.661 37.8941 35.6453 36.7613 35.6453 35.6127C35.6453 34.4956 35.6453 33.3942 35.6453 32.1985C37.3762 32.1985 39.0128 32.1985 40.7752 32.1985C40.8224 30.4992 40.7752 28.8944 40.8067 27.2895C41.4361 27.1007 49.666 27.0378 50.9878 27.2108C51.0193 28.8472 51.035 30.4992 51.0665 32.1355C49.367 32.1513 47.6518 32.167 45.8736 32.1827C45.8736 33.9134 45.8736 35.5655 45.8736 37.3119C44.1584 37.3119 42.5061 37.3119 40.9011 37.3119C40.728 38.4448 40.7752 41.7331 40.9483 42.3468C44.2843 42.3468 47.6046 42.3468 51.035 42.3468C51.035 41.9849 51.035 41.686 51.035 41.3713C51.035 38.2874 51.0507 35.1879 51.0507 32.104C52.341 32.1198 53.6157 32.1355 54.906 32.1512C55.2522 32.1512 55.5827 32.1512 56.039 32.1512C56.0862 33.2998 56.0547 34.4012 56.0547 35.5026C56.0547 36.6511 56.0547 37.784 56.0547 38.9325C56.0547 40.0496 56.0547 41.151 56.0547 42.2366C56.7314 42.4254 75.3312 42.4569 76.4642 42.2838C76.4642 38.9483 76.4642 35.5969 76.4642 32.1827C78.2423 32.1512 79.9103 32.1355 81.5941 32.104C81.5941 35.5025 81.5941 38.901 81.5941 42.331C85.0717 42.331 88.4234 42.331 91.8381 42.331C91.8539 40.6318 91.8853 38.9955 91.8381 37.2805C90.1072 37.2805 88.4864 37.2805 86.7554 37.2805C86.7554 35.534 86.7554 33.8663 86.7554 32.1355C84.9143 32.1355 83.2306 32.1355 81.5469 32.1355ZM50.972 62.8636C45.8264 62.8636 40.7752 62.8636 35.6453 62.8636C35.6453 64.5786 35.6138 66.2464 35.661 67.8827C37.2976 68.0715 50.4056 67.9929 50.9878 67.8041C50.972 66.1835 50.972 64.5629 50.972 62.8636ZM81.5469 62.8794C76.4327 62.8794 71.3815 62.8794 66.3303 62.8794C66.3303 64.5786 66.3303 66.2307 66.3303 67.9142C71.4287 67.9142 76.4642 67.9142 81.5469 67.9142C81.5469 66.2307 81.5469 64.5786 81.5469 62.8794ZM61.1532 73.0749C59.4065 73.0749 57.7699 73.0749 56.1019 73.0749C56.1019 74.7741 56.1019 76.4262 56.1019 78.1097C57.8172 78.1097 59.4694 78.1097 61.1532 78.1097C61.1532 76.3947 61.1532 74.7584 61.1532 73.0749Z" fill="white"/>
</svg>
