<svg width="146" height="146" viewBox="0 0 146 146" fill="none" xmlns="http://www.w3.org/2000/svg">
<path fill-rule="evenodd" clip-rule="evenodd" d="M97.4737 37.2236V37.1723C97.1646 37.1398 96.8398 37.1079 96.515 37.1079H53.6037C53.4175 37.1079 53.2256 37.1253 53.0313 37.143C52.9034 37.1546 52.7744 37.1663 52.6453 37.1732L52.6449 37.2062L52.6457 37.2063L52.6449 37.2071L52.6291 37.2228V41.19C51.9566 41.19 51.283 41.191 50.6089 41.1921L50.6074 41.1921C48.5923 41.1951 46.5727 41.1982 44.5622 41.1739L44.5626 41.19L44.5298 41.1736H44.5295V45.1738C43.7603 45.1915 43.0148 45.2139 42.2802 45.236L42.2801 45.236L42.2799 45.236C41.647 45.2551 41.0222 45.2738 40.3975 45.2891L40.3971 45.3222L40.3976 45.3233H40.3811V49.3235C39.7018 49.3403 39.0311 49.3613 38.3624 49.3822L38.3618 49.3823L38.3613 49.3823C37.7232 49.4023 37.087 49.4222 36.447 49.4384V49.4706L36.4493 49.4729H36.4163C36.4163 52.1067 36.4121 54.7446 36.408 57.3824C36.4039 60.0313 36.3997 62.6802 36.3997 65.325C36.3997 65.4021 36.4144 65.4793 36.4291 65.5564C36.4357 65.5906 36.4422 65.6248 36.4474 65.659C36.4474 65.6467 36.4474 65.6344 36.4474 65.6222H40.4476C40.4547 63.8576 40.4527 62.1083 40.4506 60.3625C40.4479 58.0359 40.4453 55.7155 40.4641 53.3736H44.5635V49.3238H48.696V45.2409C49.9084 45.2189 51.1077 45.223 52.3056 45.227C53.8025 45.2321 55.2971 45.2372 56.8121 45.1913V41.2572C58.3163 41.0589 92.8471 41.125 93.5578 41.3399V45.2409H101.69V53.4232H105.757V61.6219H106.798C107.28 61.6301 107.765 61.6423 108.253 61.6545C108.744 61.6669 109.237 61.6793 109.731 61.6876C109.735 61.6548 109.74 61.622 109.745 61.5892C109.759 61.4901 109.774 61.3909 109.774 61.2917C109.774 59.3164 109.77 57.3411 109.766 55.3658C109.762 53.4015 109.758 51.4372 109.757 49.4729H109.724L109.757 49.4398V49.4729H113.923V50.4316V60.7462C113.923 60.9532 113.909 61.1674 113.894 61.384L113.894 61.3848L113.894 61.3849L113.894 61.385L113.894 61.3851L113.894 61.3854C113.887 61.4915 113.88 61.5982 113.874 61.705L113.905 61.705L113.922 61.6875L113.923 61.7162C115.184 61.551 116.445 61.6128 117.719 61.6752L117.972 61.6875V86.1186H116.947C116.435 86.1268 115.927 86.1392 115.419 86.1516L115.417 86.1517C114.92 86.1638 114.423 86.1759 113.922 86.1842L113.922 86.2012C113.906 86.2178 113.889 86.1847 113.889 86.1847L113.922 86.1842C113.923 85.8343 113.927 85.4806 113.931 85.1268C113.935 84.7673 113.939 84.4077 113.939 84.0523V62.762C113.939 62.5801 113.935 62.4025 113.931 62.2248C113.927 62.0564 113.923 61.8881 113.923 61.7162L113.889 61.7206L113.904 61.7063L113.873 61.7215L113.874 61.705C112.491 61.7052 111.124 61.7214 109.757 61.7376C109.758 61.9023 109.762 62.0638 109.765 62.2253C109.769 62.403 109.774 62.5807 109.774 62.7625V82.9784C109.774 83.526 109.769 84.0694 109.765 84.6107C109.761 85.1424 109.757 85.672 109.757 86.2016C110.446 86.2016 111.134 86.2057 111.823 86.2098L111.825 86.2098C112.513 86.2139 113.201 86.218 113.889 86.2181V86.2016L113.906 86.2181H113.889V94.235H112.782C112.263 94.2434 111.749 94.256 111.236 94.2686L111.234 94.2686C110.74 94.2807 110.249 94.2927 109.757 94.3009V94.3177L109.74 94.3012L109.757 94.3009C109.757 92.9613 109.753 91.6177 109.749 90.272C109.744 88.9214 109.74 87.5687 109.74 86.216C108.784 86.0846 107.827 86.103 106.845 86.1219C106.491 86.1288 106.135 86.1356 105.773 86.1356V90.1524H101.707V94.1526H44.547C44.5239 93.5201 44.5259 92.8984 44.528 92.2758C44.5303 91.5641 44.5327 90.8511 44.4974 90.1193H40.4146V86.1852H36.4474C36.4474 85.243 36.4433 84.3008 36.4391 83.3586C36.435 82.4164 36.4309 81.4742 36.4309 80.532C36.4309 78.0443 36.435 75.5607 36.4391 73.0771C36.4432 70.6101 36.4473 68.1431 36.4474 65.6721C35.7538 65.6638 35.0602 65.6597 34.3666 65.6556C33.6821 65.6515 32.9975 65.6474 32.313 65.6394L32.3169 65.6721L32.2838 65.639L32.313 65.6394C32.3106 65.62 32.3079 65.6007 32.3052 65.5813L32.2967 65.5233C32.282 65.4242 32.2673 65.325 32.2673 65.2258V50.068C32.2673 49.9357 32.282 49.8035 32.2967 49.6713C32.304 49.6051 32.3114 49.539 32.3169 49.4729H36.4163V49.4415L36.4139 49.4392L36.447 49.4384V45.3233H40.3811V45.2906L40.3806 45.2895L40.3975 45.2891C40.4139 43.9446 40.4303 42.5835 40.4467 41.1736H44.5295L44.5295 41.1735L44.5295 41.1406L44.5461 41.1736L44.5622 41.1739C44.5567 40.9588 44.5495 40.7438 44.5424 40.5287C44.5277 40.0879 44.513 39.6472 44.513 39.2064C44.513 38.529 44.5295 37.8516 44.546 37.1742L44.5461 37.1733C44.8105 37.1402 44.9593 37.1237 45.1081 37.1237H52.034C52.1878 37.1237 52.3514 37.1535 52.5097 37.1822C52.5552 37.1905 52.6002 37.1987 52.6444 37.2061L52.6284 37.1741L52.6453 37.1732L52.6468 37.0546L52.647 37.0373L52.647 37.0351V37.035C52.6628 35.7204 52.6787 34.4065 52.6945 33.1077C54.0996 32.9259 96.8787 32.992 97.4737 33.1738V37.1723L97.4903 37.1741L97.4737 37.2236ZM32.2981 86.2016C32.1647 88.8705 32.1976 91.5548 32.2322 94.235H36.4636V86.2346C35.7694 86.2346 35.0751 86.2388 34.3809 86.2429C33.6866 86.247 32.9924 86.2512 32.2981 86.2512V86.2016ZM109.773 94.3485C108.806 94.2156 107.838 94.2452 106.836 94.2758C106.492 94.2863 106.143 94.297 105.79 94.3012V98.2683C104.765 98.4832 41.1581 98.4501 40.4143 98.2187V94.235H36.4636L36.5 97.9999V102.384H32.2651H24.1985C24.1445 103.132 24.1493 103.86 24.1543 104.593V104.593V104.593V104.594V104.594V104.594V104.594V104.594V104.594V104.594V104.594V104.594V104.595C24.1584 105.205 24.1625 105.819 24.1324 106.451H20.033V110.5H15.9997V114.6H24.1324V110.566C25.5209 110.533 26.8102 110.5 28.083 110.467C28.1161 109.492 28.1491 108.5 28.1657 107.525C28.1766 107.318 28.1731 107.111 28.1695 106.895V106.894C28.1676 106.782 28.1657 106.668 28.1657 106.55H40.3481V110.517C40.2944 110.521 40.2447 110.525 40.1982 110.529C40.0588 110.541 39.9473 110.55 39.8357 110.55H28.7608C28.6207 110.55 28.4746 110.532 28.3297 110.514C28.2353 110.502 28.1413 110.49 28.05 110.484C28.0633 110.664 28.0821 110.842 28.1008 111.019L28.1008 111.019L28.1009 111.02C28.1284 111.281 28.1558 111.54 28.1657 111.806C28.1766 112.42 28.1731 113.033 28.1694 113.661C28.1675 113.981 28.1657 114.304 28.1657 114.633H44.4971V110.583H48.6296V106.566H60.8286V110.533H52.729V114.55C53.4067 114.732 71.9531 114.765 73.0275 114.567V106.566H81.2098L81.211 106.615L81.211 106.615C81.2271 107.259 81.2429 107.888 81.2429 108.517V110.517C80.4997 110.563 79.7667 110.558 79.027 110.553C78.434 110.549 77.8366 110.544 77.2261 110.566V114.517C77.8377 114.699 91.7558 114.782 93.4584 114.6V106.517C93.842 106.517 94.1993 106.512 94.5438 106.508H94.5442H94.5446H94.545H94.5453H94.5457H94.5461H94.5464H94.5468H94.5472H94.5476H94.548C94.8699 106.504 95.1807 106.5 95.4915 106.5H97.4916C97.5338 107.1 97.5289 107.674 97.5241 108.242V108.242C97.5214 108.565 97.5187 108.887 97.5247 109.211V111.823C97.5247 112.27 97.5185 112.721 97.5123 113.171V113.171V113.171V113.171V113.172V113.172V113.172V113.173V113.173V113.173V113.174V113.174C97.5061 113.62 97.5 114.064 97.5 114.5C97.7094 114.5 98.5205 114.512 99.6789 114.529L99.6889 114.529L99.6912 114.529L99.6924 114.529C103.934 114.593 112.8 114.726 113.889 114.583V110.616H117.972V114.616H130.204V110.566H126.187V106.533H118.055V102.5C117.414 102.434 116.803 102.441 116.206 102.449C115.91 102.452 115.618 102.456 115.327 102.45C114.108 102.428 112.888 102.435 111.668 102.443H111.668H111.668H111.667H111.667H111.667H111.667H111.666H111.666H111.666H111.666H111.665C111.056 102.447 110.448 102.45 109.839 102.45C109.832 101.29 109.822 100.142 109.812 98.9999L109.806 98.3197C109.794 96.9934 109.782 95.6729 109.773 94.3485ZM109.773 94.3485L109.79 94.3507L109.773 94.3342L109.773 94.3485ZM105.823 110.484V106.55H109.74V110.484H105.823ZM32.298 65.671H32.265C32.265 67.9135 32.2608 70.152 32.2567 72.3904C32.2526 74.6343 32.2485 76.8782 32.2485 79.1263C32.2485 80.3082 32.2526 81.49 32.2567 82.6719L32.2567 82.6785C32.2608 83.8525 32.2649 85.0264 32.265 86.2004L32.2815 86.201L32.265 86.2176V86.2004C31.5927 86.1759 30.9204 86.1554 30.2481 86.1349L30.2462 86.1348C29.5692 86.1142 28.8922 86.0936 28.2152 86.0688V65.671H32.265V65.6545L32.298 65.671ZM105.773 41.1735V41.1569H97.5579C97.5415 39.8112 97.525 38.5144 97.5086 37.2179L97.4752 37.2228L97.5083 37.1898L97.5086 37.2133L97.5086 37.2179C97.5746 37.2076 97.6406 37.195 97.7066 37.1824C97.8609 37.1531 98.0152 37.1237 98.1695 37.1237H105.062C105.158 37.1316 105.254 37.1473 105.362 37.1651L105.362 37.1651L105.363 37.1651C105.479 37.1842 105.611 37.2057 105.773 37.2228V41.1569H105.774L105.806 41.1406V41.1571H109.774V43.4713L109.724 49.4374L109.757 49.4385L109.724 49.4716L109.724 49.4374C108.776 49.4056 107.812 49.3893 106.863 49.3732L106.815 49.3724H105.806V41.1571H105.806L105.773 41.1735ZM56.8121 61.655V73.8209C58.1841 73.8209 59.4899 73.8209 60.8619 73.8375V61.655C59.5065 61.622 58.1841 61.622 56.8121 61.655ZM81.2101 73.7218V61.6715H77.3256C77.1438 62.3327 77.0611 71.7382 77.2264 73.6887C77.8711 73.9036 80.3505 73.9366 81.2101 73.7218ZM64.9282 73.6887C65.5729 73.9201 71.441 73.9862 72.9782 73.7879V69.7877H64.9613L64.9601 69.8352C64.944 70.4798 64.9282 71.109 64.9282 71.7382V73.6887Z" fill="white"/>
</svg>
