<svg width="146" height="146" viewBox="0 0 146 146" fill="none" xmlns="http://www.w3.org/2000/svg">
<path d="M80.2865 47.5505C80.2865 49.0253 80.2865 50.4835 80.2865 52.0577C81.8775 52.0577 83.369 52.0577 84.9102 52.0577C84.9102 59.6966 84.9102 67.236 84.9102 74.9081C83.4353 74.9081 81.9438 74.9081 80.4025 74.9081C80.4025 76.4657 80.4025 77.8907 80.4025 79.4484C82.6729 79.4815 84.9434 79.4649 87.2304 79.4649C89.4842 79.4649 91.7215 79.4649 94.0582 79.4649C94.0582 81.0391 94.0582 82.4973 94.0582 84.0052C95.5829 84.0052 97.0081 84.0052 98.5659 84.0052C98.5659 82.5304 98.5659 81.0557 98.5659 79.5146C103.19 79.5146 107.697 79.5146 112.288 79.5146C112.288 81.006 112.288 82.4642 112.288 83.9886C113.829 83.9886 115.288 83.9886 116.829 83.9886C116.829 82.4973 116.829 81.0391 116.829 79.5146C121.419 79.5146 125.927 79.5146 130.485 79.5146C130.485 87.0541 130.485 94.5936 130.485 102.249C129.043 102.249 127.551 102.249 125.993 102.249C125.993 103.79 125.993 105.232 125.993 106.773C124.469 106.773 123.01 106.773 121.469 106.773C121.469 108.347 121.469 109.805 121.469 111.396C119.911 111.396 118.42 111.396 116.845 111.396C116.845 112.954 116.845 114.379 116.845 115.903C115.321 115.903 113.895 115.903 112.354 115.903C112.238 117.477 112.354 118.969 112.271 120.592C111.277 120.659 110.299 120.609 109.321 120.626C108.327 120.626 107.333 120.626 106.338 120.626C105.344 120.626 104.35 120.626 103.256 120.626C103.14 122.084 103.256 123.525 103.173 125C87.9761 125 72.8289 125 57.5988 125C57.5988 123.575 57.5988 122.167 57.5988 120.642C56.389 120.642 55.2621 120.626 54.1351 120.626C52.9916 120.626 51.8481 120.626 50.7046 120.626C49.5943 120.626 48.4839 120.626 47.357 120.626C46.2135 120.626 45.0866 120.626 43.8602 120.626C43.8602 119.035 43.8602 117.543 43.8602 115.953C40.8109 115.953 37.8444 115.953 34.7785 115.953C34.7785 114.428 34.7785 113.003 34.7785 111.446C33.2207 111.446 31.7789 111.446 30.2376 111.446C30.2376 109.855 30.2376 108.397 30.2376 106.839C28.6633 106.839 27.1717 106.839 25.5476 106.839C25.5145 103.774 25.5642 100.791 25.5145 97.7088C23.9898 97.7088 22.5646 97.7088 21.0399 97.7088C21.0399 91.611 21.0399 85.6125 21.0399 79.4815C19.4821 79.4815 18.0403 79.4815 16.5156 79.4815C16.5156 70.3181 16.5156 61.2707 16.5156 52.1239C17.974 52.1239 19.4324 52.1239 20.9736 52.1239C21.0068 50.5332 21.0399 49.0419 21.0565 47.5505L21.0233 47.5837C22.5149 47.534 23.9898 47.6334 25.5642 47.5174C25.5642 45.9598 25.5642 44.5016 25.5642 42.944C27.1386 42.944 28.6301 42.944 30.2045 42.944C30.2376 41.403 30.1879 39.9448 30.2376 38.47C33.3201 38.4203 36.2866 38.4866 39.2862 38.4369C39.2862 35.3217 39.2862 32.3224 39.2862 29.3066L39.2531 29.3398C40.7446 29.3398 42.2361 29.3398 43.8105 29.3398C43.8105 30.8642 43.8105 32.2893 43.8105 33.7806C48.4011 33.7806 52.9088 33.7806 57.5325 33.7806C57.5325 32.3224 57.5325 30.8808 57.5325 29.3398C59.1069 29.3398 60.5653 29.3398 62.0236 29.3398L62.0071 29.3066C62.0236 29.638 62.0568 29.9695 62.0568 30.3009C62.0568 32.6704 62.0568 35.0565 62.0568 37.4261C62.0568 37.7409 62.0899 38.0558 62.1065 38.47C63.1837 38.47 64.1615 38.47 65.1558 38.47C66.1833 38.47 67.1943 38.4535 68.2217 38.47C69.1995 38.4866 70.1773 38.3872 71.2545 38.5529C71.2545 40.0442 71.2545 41.4858 71.2545 43.0103C72.8123 43.0103 74.2707 43.0103 75.8119 43.0103C75.8119 44.5679 75.8119 46.0261 75.8119 47.5837C77.3698 47.5837 78.8281 47.5837 80.3031 47.5837L80.2865 47.5505ZM93.9588 106.723C92.5004 106.756 91.042 106.806 89.5671 106.839C89.5671 108.38 89.5671 109.855 89.5671 111.346C91.0918 111.346 92.5501 111.346 94.0748 111.346C94.0748 109.987 94.0748 108.695 94.0748 107.402C94.0582 107.187 93.992 106.955 93.9588 106.723C94.9697 106.872 97.9362 106.822 98.5825 106.64C98.5825 105.663 98.5991 104.685 98.5825 103.707C98.5825 103.21 98.5162 102.713 98.4831 102.199C98.682 102.233 98.8974 102.282 99.0963 102.282C101.798 102.282 104.515 102.282 107.217 102.282C107.416 102.282 107.631 102.233 107.83 102.216C107.797 103.376 107.764 104.536 107.731 105.696C107.714 106.044 107.731 106.392 107.731 106.756C109.305 106.756 110.763 106.756 112.255 106.756C112.255 105.265 112.255 103.807 112.255 102.282C111.874 102.282 111.559 102.282 111.227 102.282C110.084 102.266 108.957 102.249 107.813 102.233C107.78 101.073 107.747 99.8961 107.731 98.7362C107.731 98.4213 107.731 98.09 107.731 97.7917C106.454 97.5928 99.2786 97.6591 98.5825 97.8745C98.5825 98.4711 98.5991 99.1007 98.5825 99.7304C98.5659 100.559 98.5328 101.404 98.4996 102.233C97.0578 102.266 95.5995 102.299 94.0582 102.315C94.0582 103.426 94.0748 104.453 94.0582 105.497C94.0582 105.911 93.992 106.325 93.9588 106.723ZM71.3705 79.6141C71.1716 79.5643 70.9728 79.4649 70.7905 79.4649C69.6138 79.4484 68.4206 79.4484 67.244 79.4649C67.1114 79.4649 66.9788 79.5478 66.8462 79.5975L66.8628 79.6141C66.8297 78.5701 66.7965 77.5096 66.7634 76.4657C66.7468 75.9852 66.7634 75.5212 66.7634 75.0075C63.6643 75.0075 60.6813 75.0075 57.6154 75.0075C57.6154 78.0399 57.6154 80.9894 57.6154 83.9886C56.0576 83.9886 54.5992 83.9886 53.1242 83.9886C53.0911 82.8287 53.0579 81.6522 53.0414 80.4923C53.0414 80.1775 53.0414 79.846 53.0414 79.5478C51.815 79.3655 44.606 79.4152 43.9431 79.5975C43.9431 81.0391 43.9431 82.4973 43.9431 83.9555C47.0421 83.9555 50.108 83.9555 53.1574 83.9555C53.1242 84.1875 53.0414 84.4194 53.0414 84.6514C53.0414 87.2861 53.0414 89.9042 53.0414 92.5389C53.0414 92.804 53.1076 93.0691 53.1408 93.3343C51.6327 92.9863 50.1246 93.268 48.5834 93.1686C48.5834 94.7262 48.5834 96.1678 48.5834 97.6094C49.9092 97.7917 52.3785 97.742 53.0248 97.51C53.0248 96.8969 53.0082 96.2672 53.0248 95.6541C53.0414 94.8753 53.0745 94.1131 53.1077 93.3343C53.3397 93.2846 53.5551 93.2017 53.7871 93.2017C54.8478 93.1851 55.8918 93.1851 56.9525 93.2017C57.1513 93.2017 57.3502 93.2514 57.6319 93.3011C57.6319 94.7759 57.6319 96.2009 57.6319 97.7254C59.1566 97.7254 60.5818 97.7254 62.1397 97.7254C62.1397 99.2996 62.1397 100.791 62.1397 102.249C64.2775 102.431 70.5916 102.349 71.3208 102.117C71.3208 100.691 71.3208 99.2333 71.3208 97.6757C72.862 97.6757 74.337 97.6757 75.8119 97.6757C75.8119 94.6102 75.8119 91.6441 75.8119 88.562C74.2873 88.562 72.7958 88.562 71.2877 88.562C71.2877 85.5959 71.2877 82.7293 71.2877 79.8792C71.2711 79.7798 71.3208 79.6969 71.3705 79.6141C71.6191 79.5478 71.8677 79.4649 72.1163 79.4649C73.1106 79.4484 74.105 79.4649 75.0993 79.4484C75.3313 79.4484 75.5468 79.3986 75.7788 79.3655C75.7788 77.8742 75.7788 76.4326 75.7788 74.9909C74.2707 74.9909 72.8123 74.9909 71.2545 74.9909C71.2545 76.0349 71.2379 77.0125 71.2545 78.0067C71.2711 78.5536 71.3208 79.0838 71.3705 79.6141ZM43.9099 65.7613C48.4674 65.7613 52.9916 65.7613 57.4994 65.7613C57.6651 64.4854 57.6154 61.8839 57.4165 61.2542C55.9747 61.1548 54.5163 61.3039 52.9585 61.1547C52.9585 59.6303 52.9585 58.2052 52.9585 56.7636C51.4338 56.7636 50.0086 56.7636 48.4839 56.7636C48.4839 58.2384 48.4839 59.68 48.4839 61.221C46.9095 61.221 45.418 61.221 43.8934 61.221C43.9099 62.7952 43.9099 64.2534 43.9099 65.7613ZM62.1562 65.7613C63.714 65.7613 65.1724 65.7613 66.7468 65.7613C66.7302 62.7289 66.7634 59.7463 66.7302 56.747C65.1393 56.747 63.6809 56.747 62.1728 56.747C62.1562 59.7794 62.1562 62.7289 62.1562 65.7613ZM39.2862 65.7779C39.2862 62.7289 39.2862 59.7628 39.2862 56.747C37.7781 56.747 36.3197 56.747 34.8282 56.747C34.8282 59.7794 34.8282 62.7621 34.8282 65.7779C36.3363 65.7779 37.7781 65.7779 39.2862 65.7779Z" fill="white"/>
<path d="M25.5966 29.3401C25.5966 27.8488 25.5966 26.3574 25.5966 24.8164C30.1872 24.8164 34.7115 24.8164 39.2855 24.8164C39.2855 26.3574 39.2855 27.8488 39.2855 29.3401L39.3186 29.307C34.7281 29.307 30.1541 29.307 25.5635 29.307L25.5966 29.3401Z" fill="white"/>
<path d="M62.0732 29.3401C62.0732 27.8488 62.0732 26.3574 62.0732 24.8164C66.6969 24.8164 71.1715 24.8164 75.7952 24.8164C75.8118 25.5621 75.8283 26.3243 75.8118 27.0865C75.8118 27.8322 75.7786 28.5779 75.7621 29.3235L75.7952 29.307C71.2046 29.307 66.6306 29.307 62.04 29.307L62.0732 29.3401Z" fill="white"/>
<path d="M80.2861 38.5525C81.8108 38.5028 83.3355 38.4696 84.9098 38.4199C84.9098 41.502 84.9098 44.4681 84.9098 47.4673C84.1641 47.6661 83.3852 47.5336 82.6228 47.5502C81.8439 47.5667 81.065 47.5502 80.2861 47.5336L80.3193 47.5667C80.3193 44.5509 80.3193 41.5351 80.3193 38.5193L80.2861 38.5525Z" fill="white"/>
<path d="M21.0903 38.5705C21.0737 37.2283 21.0571 35.8695 21.0406 34.5273C21.024 33.1188 21.0406 31.7103 21.0406 30.3019C21.0406 30.0036 21.0571 29.7219 21.0737 29.3408C22.615 29.3408 24.1065 29.3408 25.598 29.3408L25.5649 29.3242C25.5483 32.34 25.5483 35.3558 25.5317 38.471C25.1174 38.471 24.7859 38.471 24.4545 38.471C23.311 38.4876 22.1841 38.5207 21.0406 38.5373L21.0903 38.5705Z" fill="white"/>
<path d="M75.7793 29.3408C77.2708 29.3408 78.7623 29.3408 80.287 29.3408C80.3036 29.5893 80.3367 29.7716 80.3367 29.9373C80.3367 32.6714 80.3367 35.3889 80.3367 38.123C80.3367 38.2722 80.3036 38.4213 80.287 38.5705L80.3202 38.5373C78.8452 38.5042 77.3537 38.4545 75.7959 38.4213C75.7959 35.3227 75.7959 32.3234 75.7959 29.3242L75.7793 29.3408Z" fill="white"/>
<path d="M21.0877 47.5499C19.5962 47.5499 18.0881 47.5499 16.5469 47.5499C16.5469 44.5341 16.5469 41.5681 16.5469 38.5523C16.7457 38.5191 16.9446 38.4528 17.1435 38.4694C18.4527 38.486 19.7785 38.5357 21.0877 38.5688L21.0546 38.5357C21.0546 41.5515 21.0546 44.5673 21.0546 47.5831L21.0877 47.5499Z" fill="white"/>
<path d="M66.8287 79.5989C66.7956 80.3446 66.7624 81.0902 66.7459 81.8359C66.7293 82.5319 66.7459 83.2112 66.7459 83.9403C65.9835 84.1557 65.2378 84.0232 64.492 84.0563C63.7463 84.0895 63.0005 84.0563 62.1719 84.0563C62.1719 82.5319 62.1719 81.0571 62.1719 79.4663C63.3154 79.4663 64.4257 79.4498 65.5195 79.4663C65.967 79.4663 66.3979 79.5658 66.8287 79.5989Z" fill="white"/>
</svg>
