<svg width="146" height="146" viewBox="0 0 146 146" fill="none" xmlns="http://www.w3.org/2000/svg">
<path d="M114.566 117.749C114.566 119.062 114.566 120.374 114.566 121.777C113.238 121.777 111.926 121.777 110.523 121.777C110.447 123.195 110.523 124.523 110.477 125.85C109.889 126.016 36.5947 126.061 35.4631 125.896C35.4631 124.583 35.4631 123.256 35.4631 121.807C34.0298 121.807 32.672 121.807 31.2387 121.807C31.2387 120.389 31.2387 119.092 31.2387 117.704C29.8204 117.704 28.4928 117.704 27.0896 117.704C27.0896 109.317 27.0896 101.035 27.0896 92.6324C25.6865 92.6324 24.3739 92.6324 23.001 92.6324C23.001 82.8721 23.001 73.2175 23.001 63.4422C24.3588 63.4422 25.6865 63.4422 27.0746 63.4422C27.0746 60.6212 27.0746 57.921 27.0746 55.1453C28.4777 55.1453 29.8054 55.1453 31.2236 55.1453C31.2236 53.7423 31.2236 52.4148 31.2236 51.0119C32.2193 50.9063 33.1397 50.9666 34.06 50.9515C34.9652 50.9364 35.8705 50.9515 36.7757 50.9515C37.696 50.9515 38.6315 50.9515 39.582 50.9515C39.582 43.9821 39.582 37.1183 39.582 30.1639C38.2241 30.1639 36.8964 30.1639 35.4782 30.1639C35.4782 28.761 35.4782 27.4335 35.4782 26.0154C34.0449 25.8948 32.687 26.0154 31.2839 25.94C31.2839 24.5522 31.2839 23.2247 31.2839 21.8368C35.3877 21.8368 39.4914 21.8368 43.7008 21.8368C43.7461 22.7268 43.7159 23.6471 43.7159 24.5673C43.7159 25.4724 43.7159 26.3775 43.7159 27.2826C43.7159 28.2028 43.7159 29.1381 43.7159 30.1187C45.1341 30.1187 46.4618 30.1187 47.9102 30.1187C47.9554 31.1445 47.9253 32.125 47.9253 33.1056C47.9253 34.0861 47.9253 35.0817 47.9253 36.0623C47.9253 37.0428 47.9253 38.0385 47.9253 39.019C47.9253 39.9996 47.9253 40.9952 47.9253 41.9757C47.9253 42.9563 47.9253 43.9519 47.9253 44.9325C47.9253 45.913 47.9253 46.9086 47.9253 47.8892C47.9253 48.8697 47.9253 49.8503 47.9253 50.8912C53.4925 50.8912 58.9843 50.8912 64.5364 50.8912C64.5364 43.9972 64.5364 37.1333 64.5364 30.1639C63.2087 30.1639 61.8508 30.1639 60.4176 30.1639C60.4176 28.7308 60.4176 27.4033 60.4176 25.9551C58.9843 25.9551 57.6264 25.9551 56.2535 25.9551C56.2535 24.5069 56.2535 23.1794 56.2535 21.8066C60.4326 21.8066 64.5515 21.8066 68.791 21.8066C68.8212 24.5522 68.791 27.3128 68.8061 30.1187C70.1941 30.1187 71.4917 30.1187 72.9099 30.1187C72.9099 37.073 72.9099 43.967 72.9099 50.9063C74.3281 50.9063 75.6256 50.9063 77.0438 50.9063C77.1343 51.6304 77.074 52.3092 77.0891 52.973C77.1041 53.6518 77.0891 54.3306 77.0891 55.1C78.5223 55.1 79.8802 55.1 81.2984 55.1C81.2984 60.6967 81.2984 66.1877 81.2984 71.7844C82.6714 71.7844 83.984 71.7844 85.3871 71.7844C85.4625 73.1723 85.3871 74.4696 85.4474 75.8876C86.8204 75.948 88.1782 75.9178 89.6115 75.9027C89.6115 74.5149 89.6115 73.2175 89.6115 71.8598C96.597 71.8598 103.477 71.8598 110.462 71.8598C110.462 73.1873 110.462 74.4847 110.462 75.8725C111.85 75.8725 113.148 75.8725 114.581 75.8725C114.581 76.657 114.596 77.3509 114.596 78.0448C114.596 78.7237 114.566 79.4176 114.551 80.0964L114.581 80.0813C111.85 80.0813 109.119 80.0813 106.313 80.0813C106.313 78.6784 106.313 77.3358 106.313 76.0385C105.393 75.8574 94.4847 75.8876 93.8058 76.0837C93.8058 77.3811 93.8058 78.7236 93.8058 80.0964C92.3725 80.1266 91.0147 80.0814 89.5965 80.1266C89.5965 82.9627 89.5965 85.6931 89.5965 88.499C88.1933 88.499 86.8656 88.499 85.5078 88.499C85.5078 92.6927 85.5078 96.811 85.5078 101.005C86.8807 101.005 88.2235 101.005 89.6115 101.005C89.6115 103.78 89.6115 106.481 89.6115 109.241C93.8058 109.241 97.9247 109.241 102.134 109.241C102.134 107.899 102.134 106.586 102.134 105.259C103.582 105.259 104.94 105.259 106.298 105.259C106.343 105.259 106.389 105.319 106.434 105.334L106.419 105.319C106.389 105.621 106.328 105.907 106.328 106.209C106.328 108.321 106.328 110.433 106.328 112.53C106.328 112.817 106.328 113.118 106.328 113.495C102.104 113.495 97.985 113.495 93.8813 113.495C93.8813 114.929 93.8813 116.256 93.8813 117.674C95.2542 117.674 96.5819 117.674 98.0001 117.674C98.0001 119.062 98.0001 120.374 98.0001 121.717C100.806 121.717 103.522 121.717 106.358 121.717C106.358 120.344 106.358 119.032 106.358 117.704C106.6 117.689 106.736 117.659 106.871 117.659C109.255 117.659 111.639 117.659 114.023 117.659C114.204 117.659 114.4 117.704 114.581 117.734C114.581 117.765 114.566 117.749 114.566 117.749ZM56.2685 75.8725C57.6566 75.8725 59.0144 75.8725 60.3874 75.8725C60.3874 73.1119 60.3874 70.3966 60.3874 67.6812C58.9843 67.6812 57.6264 67.6812 56.2685 67.6812C56.2685 70.4267 56.2685 73.127 56.2685 75.8725ZM39.6272 75.8876C39.6272 73.0817 39.6272 70.3664 39.6272 67.6661C38.1788 67.6661 36.8511 67.6661 35.5385 67.6661C35.3877 68.9031 35.4329 75.2691 35.614 75.8876C36.8964 75.8876 38.1939 75.8876 39.6272 75.8876ZM43.7762 80.0662C46.5825 80.0662 49.3133 80.0662 52.0592 80.0662C52.0592 78.6784 52.0592 77.3358 52.0592 75.9781C49.268 75.9781 46.5523 75.9781 43.7762 75.9781C43.7762 77.3509 43.7762 78.6784 43.7762 80.0662Z" fill="white"/>
<path d="M114.565 80.1113C115.953 80.1113 117.342 80.1113 118.805 80.1113C118.805 81.5142 118.805 82.8418 118.805 84.2749C120.208 84.2749 121.536 84.2749 122.833 84.2749C123.014 84.9386 123.06 112.258 122.909 113.465C121.596 113.465 120.268 113.465 118.865 113.465C118.865 114.868 118.865 116.195 118.865 117.629C117.387 117.674 115.984 117.704 114.581 117.749L114.596 117.764C114.596 114.974 114.596 112.198 114.596 109.301C116.059 109.301 117.402 109.301 118.775 109.301C118.775 102.317 118.775 95.438 118.775 88.4686C117.372 88.4686 116.014 88.4686 114.596 88.4686C114.596 85.6174 114.596 82.8568 114.596 80.0962L114.565 80.1113Z" fill="white"/>
<path d="M106.388 92.5735C107.715 92.5735 109.058 92.5735 110.431 92.5735C110.431 96.8125 110.431 100.946 110.431 105.125C110.22 105.155 110.024 105.2 109.812 105.2C108.937 105.215 108.062 105.2 107.187 105.215C106.931 105.215 106.659 105.29 106.403 105.336L106.418 105.351C106.387 105.109 106.327 104.868 106.327 104.627C106.327 100.81 106.327 96.9935 106.327 93.192C106.327 92.9808 106.387 92.7696 106.418 92.5584C106.418 92.5433 106.388 92.5735 106.388 92.5735Z" fill="white"/>
<path d="M97.8966 92.5425C97.9268 92.8593 97.9871 93.1912 98.0022 93.508C98.0173 94.5639 98.0022 95.635 98.0022 96.7815C99.3751 96.7815 100.673 96.7815 101.955 96.7815C102.151 97.4452 102.181 99.9494 102.031 100.96C99.345 100.96 96.6443 100.96 93.8984 100.96C93.8984 98.1995 93.8984 95.454 93.8984 92.6481C95.2563 92.6179 96.5991 92.5878 97.9267 92.5576L97.8966 92.5425Z" fill="white"/>
<path d="M97.9077 92.5567C97.9378 91.5762 97.968 90.5956 97.9982 89.6302C98.0133 89.2832 97.9982 88.9362 97.9982 88.5591C100.804 88.5591 103.52 88.5591 106.281 88.5591C106.311 89.9318 106.357 91.2594 106.387 92.5869L106.417 92.5718C106.206 92.5869 105.979 92.6321 105.768 92.6321C103.354 92.6321 100.955 92.6321 98.5413 92.6321C98.3301 92.6321 98.1038 92.5869 97.8926 92.5718C97.8926 92.5416 97.9077 92.5567 97.9077 92.5567Z" fill="white"/>
</svg>
