<svg width="146" height="146" viewBox="0 0 146 146" fill="none" xmlns="http://www.w3.org/2000/svg">
<path d="M138.859 95.4868C137.276 95.4868 135.723 95.4868 134.08 95.4868C134.08 97.1593 134.08 98.7122 134.08 100.37C132.437 100.37 130.869 100.37 129.226 100.37C129.226 101.982 129.226 103.52 129.226 105.133C125.985 105.133 122.834 105.133 119.564 105.133C119.564 106.791 119.564 108.373 119.564 110.001C87.246 110.001 55.0329 110.001 22.7152 110.001C22.7152 108.433 22.7152 106.85 22.7152 105.178C21.0575 105.178 19.5044 105.178 17.8616 105.178C17.8616 103.55 17.8616 102.012 17.8616 100.414C16.2487 100.414 14.7105 100.414 13.2021 100.414C12.9931 99.7873 12.9184 77.5233 13.1126 76.2242C14.6508 76.2242 16.2039 76.2242 17.8467 76.2242C17.8467 72.9839 17.8467 69.8183 17.8467 66.5481C19.4895 66.5481 21.0426 66.5481 22.6705 66.5481C22.6705 63.278 22.6705 60.1123 22.6705 56.872C24.2983 56.872 25.8664 56.872 27.5241 56.872C27.5241 55.2145 27.5241 53.6467 27.5241 51.9742C30.7797 51.9742 33.9458 51.9742 37.1865 51.9742C37.1865 50.3616 37.1865 48.8385 37.1865 47.3303C37.8436 47.1212 74.8656 47.0765 75.9408 47.2706C75.9408 48.7787 75.9408 50.3168 75.9408 51.9444C79.2114 51.9444 82.3924 51.9444 85.6481 51.9444C85.6481 53.6018 85.6481 55.1548 85.6481 56.7974C87.246 56.7974 88.7842 56.7974 90.4121 56.7974C90.4121 58.425 90.4121 59.9779 90.4121 61.6205C92.0698 61.6205 93.6379 61.6205 95.2807 61.6205C95.2807 64.8608 95.2807 68.0264 95.2807 71.2219C96.1319 71.4011 96.9085 71.2966 97.685 71.3115C98.4616 71.3265 99.2532 71.3115 100.134 71.3115C100.134 76.1496 100.134 80.9279 100.134 85.7809C101.792 85.7809 103.36 85.7809 105.018 85.7809C105.018 87.4384 105.018 89.0212 105.018 90.6787C106.646 90.6787 108.184 90.6787 109.782 90.6787C109.782 92.2913 109.782 93.8294 109.782 95.3375C110.454 95.5167 118.533 95.5466 119.504 95.3674C119.504 94.6058 119.504 93.8294 119.504 93.0529C119.504 92.2913 119.504 91.5447 119.504 90.6936C117.891 90.6936 116.338 90.6936 114.725 90.6936C114.725 87.4384 114.725 84.2877 114.725 81.0474C116.293 80.9578 117.846 80.9876 119.489 81.0175C119.489 82.6152 119.489 84.1533 119.489 85.751C121.132 85.751 122.7 85.751 124.358 85.751C124.358 87.3936 124.358 88.9913 124.358 90.6189C125.985 90.6189 127.524 90.6189 129.137 90.6189C129.137 87.4533 129.137 84.2876 129.137 81.0623C130.794 80.9428 132.377 81.0324 134.035 81.0025C134.035 82.6302 134.035 84.1682 134.035 85.7958C135.678 85.7958 137.231 85.7958 138.829 85.7958C138.859 89.066 138.859 92.2167 138.859 95.4868ZM34.5009 85.8107C31.2452 85.8257 24.8624 85.7958 21.6963 85.8257C21.6963 87.4981 21.6963 89.051 21.6963 90.6936C24.9221 90.6936 31.3049 90.7085 34.5009 90.6787C34.5009 89.0212 34.5009 87.4832 34.5009 85.8107ZM60.7813 85.8854C59.6015 85.7212 47.5359 85.7659 46.9983 85.9302C46.9983 87.4981 46.9983 89.051 46.9983 90.604C48.1482 90.7533 60.1989 90.7085 60.7813 90.5443C60.7813 89.0212 60.7813 87.4832 60.7813 85.8854Z" fill="white"/>
<path d="M46.9376 42.2223C46.9376 40.6245 46.9376 39.1015 46.9376 37.4888C45.3097 37.4888 43.7416 37.4888 42.0839 37.4888C42.0839 35.8462 42.0839 34.2634 42.0839 32.591C40.4262 32.591 38.8731 32.591 37.29 32.591C37.29 29.3358 37.29 26.185 37.29 22.9746C40.5158 22.9746 43.6968 22.9746 46.9525 22.9746C46.9525 24.5873 46.9525 26.1552 46.9525 27.7977C48.5654 27.7977 50.1036 27.7977 51.6717 27.7977C51.6717 32.6507 51.6717 37.3992 51.6717 42.2223C50.1335 42.2223 48.5953 42.2223 46.9376 42.2223Z" fill="white"/>
<path d="M61.5291 37.5176C61.4992 37.3832 61.4395 37.2638 61.4395 37.1294C61.4395 35.6511 61.4395 34.1579 61.4395 32.6348C63.0822 32.6348 64.6503 32.6348 66.2782 32.6348C66.2782 34.2325 66.2782 35.7855 66.2782 37.4429C64.6802 37.4579 63.0972 37.4877 61.5141 37.5027L61.5291 37.5176Z" fill="white"/>
<path d="M61.515 37.5039C61.4852 38.2057 61.4553 38.9075 61.4403 39.6094C61.4254 40.4456 61.4403 41.2818 61.4403 42.2225C59.8275 42.342 58.2594 42.2972 56.6465 42.2524C56.6465 40.6397 56.6465 39.1166 56.6465 37.5338C58.3042 37.5338 59.9171 37.5338 61.53 37.5338C61.53 37.5188 61.515 37.5039 61.515 37.5039Z" fill="white"/>
</svg>
