<svg width="146" height="146" viewBox="0 0 146 146" fill="none" xmlns="http://www.w3.org/2000/svg">
<path d="M31.9762 107.045C31.9762 105.307 31.9762 103.704 31.9762 102.026C30.3131 101.861 28.6949 102.041 26.9868 101.921C26.9868 98.6256 26.9868 95.3746 26.9868 92.0338C25.3086 92.0338 23.7204 92.0338 22.1622 92.0338C21.9824 91.3447 21.9374 73.0974 22.1022 72.0038C23.6755 72.0038 25.2787 72.0038 26.9418 72.0038C26.9418 60.2884 26.9418 48.6629 26.9418 36.9176C28.6199 36.8576 30.2381 36.9176 31.9612 36.8877C31.9612 35.2397 31.9612 33.6217 31.9612 31.9288C33.6843 31.9288 35.3025 31.9288 36.9956 31.9288C36.9956 30.2509 36.9956 28.6629 36.9956 27C53.7019 27 70.3333 27 87.0396 27C87.0396 28.618 87.0396 30.2209 87.0396 31.9138C88.7328 31.9138 90.3509 31.9138 92.0441 31.9138C92.0441 33.6217 92.0441 35.2097 92.0441 36.8727C93.7222 36.8727 95.3104 36.8727 97.0035 36.8727C97.0035 38.5955 97.0035 40.2284 97.0035 41.9363C98.7266 41.9363 100.345 41.9363 102.068 41.9363C102.068 51.9738 102.068 61.9363 102.068 71.9738C110.429 71.9738 118.684 71.9738 127 71.9738C127 73.6517 127 75.2697 127 76.9776C125.382 76.9776 123.779 76.9776 122.115 76.9776C122.115 78.6555 122.115 80.2584 122.115 81.9363C120.422 81.9363 118.804 81.9363 117.111 81.9363C117.111 85.3071 117.111 88.5881 117.111 91.9888C115.403 91.9888 113.755 91.9888 112.032 91.9888C112.032 93.6967 112.032 95.2847 112.032 96.9626C110.354 96.9626 108.765 96.9626 107.102 96.9626C107.102 98.6405 107.102 100.229 107.102 101.936C105.409 101.936 103.791 101.936 102.098 101.936C102.098 103.659 102.098 105.292 102.098 107C98.7416 107 95.4602 107 92.089 107C92.089 108.678 92.089 110.266 92.089 111.989C90.7705 111.989 89.5269 112.004 88.2982 112.004C87.0396 112.004 85.796 112.004 84.5374 112.004C83.3088 112.004 82.0952 112.004 80.8666 112.004C79.6229 112.004 78.3793 112.004 77.0308 112.004C77.0308 115.345 77.0308 118.626 77.0308 121.951C73.6896 121.951 70.4382 121.951 67.1269 121.951C67.1269 120.318 67.1269 118.715 67.1269 117.008C68.7451 117.008 70.3483 117.008 71.9815 117.008C71.9815 115.315 71.9815 113.727 71.9815 112.079C67.022 112.079 62.0626 112.079 57.0282 112.079C57.0282 115.36 57.0282 118.611 57.0282 121.847C56.3989 122.041 48.0832 122.086 47.0344 121.921C47.0344 120.333 47.0344 118.745 47.0344 117.038C48.6825 116.993 50.3307 117.052 52.0088 117.008C52.0088 115.33 52.0088 113.742 52.0088 112.049C48.6825 112.049 45.3862 112.049 42 112.049C42 110.371 42 108.768 42 107.09C38.6437 107.045 35.3624 107.045 31.9762 107.045ZM77.0608 87.03C77.0458 88.6629 77.0159 90.2959 77.0758 92.0038C77.4354 92.0038 77.7051 92.0038 77.9748 92.0038C79.0236 92.0038 80.0874 91.9888 81.1362 92.0038C81.391 92.0038 81.6457 92.0937 81.9004 92.1386C81.9304 92.4083 81.9903 92.663 81.9903 92.9327C82.0053 94.0413 81.9903 95.1648 81.9903 96.2735C81.9903 96.4832 82.0203 96.693 82.0502 96.9027C85.4065 96.9027 88.7028 96.9027 92.0141 96.9027C92.0141 95.2548 92.0141 93.6667 92.0141 92.0637C91.8043 92.0337 91.6545 92.0038 91.4897 92.0038C88.523 92.0038 85.5563 92.0038 82.6046 92.0038C82.3649 92.0038 82.1401 92.0937 81.9004 92.1386C81.9304 90.4607 81.9453 88.7978 81.9753 87.1199C81.9753 87.0749 81.9154 87.03 81.8554 86.9551C80.3421 86.9551 78.7989 86.9551 77.2556 86.9551C77.1807 86.9551 77.1058 87.015 77.0308 87.045C77.0308 85.3671 77.0308 83.6892 77.0308 81.9963C75.3228 81.9963 73.7195 81.9963 72.0714 81.9963C72.0714 83.6443 72.0714 85.2322 72.0714 86.8952C72.371 86.9101 72.6407 86.9402 72.9104 86.9402C74.0042 86.9402 75.083 86.9402 76.1768 86.9402C76.4615 86.9402 76.7611 87 77.0608 87.03ZM56.9683 66.8801C56.9683 63.5393 56.9683 60.2884 56.9683 56.9925C53.642 56.9925 50.3756 56.9925 47.0493 56.9925C47.0493 60.3034 47.0493 63.5693 47.0493 66.8801C50.3606 66.8801 53.642 66.8801 56.9683 66.8801ZM66.9921 61.8914C67.1569 60.7828 67.0969 52.4982 66.9471 51.9438C65.3289 51.9438 63.6957 51.9438 62.0925 51.9438C61.9277 53.1423 61.9876 61.3071 62.1525 61.8914C63.7707 61.8914 65.3889 61.8914 66.9921 61.8914ZM37.1005 51.9289C36.9506 53.1873 36.9956 61.3071 37.1604 61.8914C38.7486 61.8914 40.3368 61.8914 41.9101 61.8914C42.0599 60.7229 42 52.5281 41.8502 51.9289C40.2919 51.9289 38.7336 51.9289 37.1005 51.9289Z" fill="white"/>
</svg>
