<svg width="146" height="146" viewBox="0 0 146 146" fill="none" xmlns="http://www.w3.org/2000/svg">
<path d="M33.2337 94.1667C33.2337 92.4103 33.2337 90.7393 33.2337 89.0512C31.5337 89.0512 29.8678 89.0512 28.1678 89.0512C28.1678 87.3119 28.1678 85.5897 28.1678 83.8504C26.4169 83.8504 24.7339 83.8504 23 83.8504C23 76.9615 23 70.1067 23 63.2008C24.7 63.2008 26.3999 63.2008 28.1338 63.2008C28.1338 58.017 28.1338 52.8674 28.1338 47.6837C29.8338 47.6837 31.5167 47.6837 33.2337 47.6837C33.2337 42.4829 33.2337 37.3333 33.2337 32.1496C34.9846 32.1496 36.6676 32.1496 38.4185 32.1496C38.4185 30.4274 38.4185 28.7222 38.4185 27C45.3033 27 52.1541 27 59.0219 27C59.0219 32.1496 59.0219 37.2822 59.0219 42.4318C62.4898 42.4318 65.9237 42.4318 69.3916 42.4318C69.3916 37.2822 69.3916 32.1667 69.3916 27C76.2594 27 83.0933 27 89.9781 27C89.9781 28.7052 89.9781 30.3762 89.9781 32.1155C91.712 32.1155 93.4289 32.1155 95.1629 32.1155C95.1629 37.2992 95.1629 42.4488 95.1629 47.6326C96.8629 47.6326 98.5458 47.6326 100.263 47.6326C100.263 52.8333 100.263 57.9829 100.263 63.1667C102.014 63.1667 103.697 63.1667 105.431 63.1667C105.431 70.0556 105.431 76.9103 105.431 83.8163C103.731 83.8163 102.031 83.8163 100.28 83.8163C100.28 85.5726 100.28 87.2607 100.28 89.0171C98.5798 89.0171 96.8968 89.0171 95.1799 89.0171C95.1799 90.7393 95.1799 92.4274 95.1799 94.1326C93.4289 94.1326 91.746 94.1326 90.0121 94.1326C90.0121 95.8718 90.0121 97.5941 90.0121 99.3333C95.1459 99.3333 100.28 99.3333 105.448 99.3333C105.448 97.6111 105.448 95.923 105.448 94.1667C107.148 94.1667 108.83 94.1667 110.53 94.1667C110.53 90.7052 110.53 87.3119 110.53 83.8674C113.998 83.8674 117.432 83.8674 120.917 83.8674C120.917 85.5726 120.917 87.2778 120.917 89.0171C122.634 89.0171 124.3 89.0171 126 89.0171C126 92.4615 126 95.8889 126 99.3504C124.334 99.3504 122.651 99.3504 120.951 99.3504C120.951 101.107 120.951 102.795 120.951 104.551C119.217 104.551 117.5 104.551 115.749 104.551C115.749 106.273 115.749 107.961 115.749 109.667C113.998 109.667 112.315 109.667 110.564 109.667C110.564 113.111 110.564 116.538 110.564 119.983C101.946 119.983 93.3779 119.983 84.7762 119.983C84.7762 118.295 84.7762 116.624 84.7762 114.936C83.0762 114.936 81.3933 114.936 79.6934 114.936C79.6934 116.607 79.6934 118.278 79.6934 119.983C71.0916 119.983 62.5238 119.983 53.9051 119.983C53.9051 118.312 53.9051 116.641 53.9051 114.936C52.1542 114.936 50.4712 114.936 48.7202 114.936C48.7202 116.607 48.7202 118.278 48.7202 120C41.8354 120 35.0016 120 28.1338 120C28.1338 116.59 28.1338 113.179 28.1338 109.735C29.7998 109.735 31.4828 109.735 33.1997 109.735C33.1997 108.013 33.1997 106.325 33.1997 104.619C34.9507 104.619 36.6336 104.619 38.3846 104.619C38.3846 102.88 38.3846 101.158 38.3846 99.4015C40.1355 99.4015 41.8525 99.4015 43.5694 99.4015C43.5694 97.6452 43.5694 95.9571 43.5694 94.2008C40.1695 94.1667 36.7356 94.1667 33.2337 94.1667ZM48.7372 73.5C48.7372 70.0726 48.7372 66.6282 48.7372 63.2008C47.0203 63.2008 45.3373 63.2008 43.6714 63.2008C43.6714 66.6452 43.6714 70.0555 43.6714 73.4829C45.3883 73.4829 47.0543 73.4829 48.7372 73.5C48.7542 75.1881 48.7543 76.8762 48.7543 78.5644C53.9391 78.5644 59.0729 78.5644 64.2068 78.5644C64.2068 76.8592 64.2068 75.1881 64.2068 73.4829C62.4728 73.4829 60.7729 73.4829 59.0219 73.4829C59.0219 71.7266 59.0219 70.0044 59.0219 68.3163C57.305 68.3163 55.639 68.3163 53.9391 68.3163C53.9391 70.0555 53.9391 71.7607 53.9391 73.5C52.1542 73.5 50.4372 73.5 48.7372 73.5ZM53.8881 42.4147C53.8881 38.9873 53.8881 35.56 53.8881 32.1326C50.4712 32.1326 47.0543 32.1326 43.6204 32.1326C43.6204 33.8718 43.6204 35.56 43.6204 37.3163C41.8864 37.3163 40.1695 37.3163 38.4696 37.3163C38.4696 39.0385 38.4696 40.7266 38.4696 42.4147C43.6204 42.4147 48.7372 42.4147 53.8881 42.4147ZM89.961 42.4147C89.961 40.7266 89.961 39.0385 89.961 37.2992C88.2441 37.2992 86.5272 37.2992 84.7932 37.2992C84.7932 35.5429 84.7932 33.8548 84.7932 32.1326C81.3593 32.1326 77.9424 32.1326 74.5425 32.1326C74.5425 35.577 74.5425 38.9873 74.5425 42.4147C79.6934 42.4147 84.8102 42.4147 89.961 42.4147ZM69.4426 63.2008C69.4426 66.6452 69.4426 70.0556 69.4426 73.4659C71.1426 73.4659 72.8255 73.4659 74.4915 73.4659C74.4915 70.0215 74.4915 66.6282 74.4915 63.2008C72.8085 63.2008 71.1426 63.2008 69.4426 63.2008Z" fill="white"/>
</svg>
