<svg width="100" height="85" viewBox="0 0 100 85" fill="none" xmlns="http://www.w3.org/2000/svg">
<g clip-path="url(#clip0_40000112_2770)">
<path fill-rule="evenodd" clip-rule="evenodd" d="M84.5405 83C84.5405 84.1046 85.436 85 86.5405 85H100.541C101.645 85 102.541 84.1046 102.541 83V70C102.541 68.8954 103.436 68 104.541 68H118C119.105 68 120 67.1046 120 66V53C120 51.8954 120.895 51 122 51H134C135.105 51 136 51.8954 136 53V66C136 67.1046 136.895 68 138 68H152C153.105 68 154 67.1046 154 66V52C154 50.8954 153.105 50 152 50H139C137.895 50 137 49.1046 137 48V36C137 34.8954 137.895 34 139 34H151C152.105 34 153 33.1046 153 32V17V16V-33C153 -34.1046 152.105 -35 151 -35H120H69H68H53C51.8954 -35 51 -34.1046 51 -33V-20C51 -18.8954 50.1046 -18 49 -18H37.4728C36.3683 -18 35.4728 -18.8954 35.4728 -20V-32.6091C35.4728 -33.7136 34.5774 -34.6091 33.4728 -34.6091H19.9321C18.8276 -34.6091 17.9321 -33.7136 17.9321 -32.6091V-19.0684C17.9321 -17.9638 18.8276 -17.0684 19.9321 -17.0684H32C33.1046 -17.0684 34 -16.1729 34 -15.0684V-2C34 -0.895432 34.8954 0 36 0H48.5405C49.6451 0 50.5405 0.895432 50.5405 2V14C50.5405 15.1046 49.6451 16 48.5405 16H35.5405C34.436 16 33.5405 16.8954 33.5405 18V32C33.5405 33.1046 34.436 34 35.5405 34H49.5405C50.6451 34 51.5405 33.1046 51.5405 32V19C51.5405 17.8954 52.436 17 53.5405 17H65.5405C66.6451 17 67.5405 17.8954 67.5405 19V32C67.5405 33.1046 68.436 34 69.5405 34H83C84.1046 34 85 34.8954 85 36V49C85 50.1046 85.8954 51 87 51H100C101.105 51 102 51.8954 102 53V65C102 66.1046 101.105 67 100 67H86.5405C85.436 67 84.5405 67.8954 84.5405 69V83ZM105 50C103.895 50 103 49.1046 103 48V36C103 34.8954 103.895 34 105 34H117C118.105 34 119 34.8954 119 36V48C119 49.1046 118.105 50 117 50H105ZM118 16C119.105 16 120 15.1046 120 14V1C120 -0.104568 119.105 -1 118 -1H105.541C104.436 -1 103.541 -0.104568 103.541 1V14C103.541 15.1046 104.436 16 105.541 16H118ZM52 -3C52 -1.89543 52.8954 -1 54 -1H66C67.1046 -1 68 -1.89543 68 -3V-15C68 -16.1046 67.1046 -17 66 -17H54C52.8954 -17 52 -16.1046 52 -15V-3ZM85.5405 19C85.5405 17.8954 86.436 17 87.5405 17H100C101.105 17 102 17.8954 102 19V31C102 32.1046 101.105 33 100 33H87.5405C86.436 33 85.5405 32.1046 85.5405 31V19ZM18 15C18 16.1046 17.1046 17 16 17H2C0.895431 17 0 16.1046 0 15V2C0 0.895432 0.89543 0 2 0H16C17.1046 0 18 0.895432 18 2V15Z" fill="#856BFF"/>
</g>
<defs>
<clipPath id="clip0_40000112_2770">
<rect width="102" height="87" fill="white" transform="translate(0 -2)"/>
</clipPath>
</defs>
</svg>
