<svg width="119" height="102" viewBox="0 0 119 102" fill="none" xmlns="http://www.w3.org/2000/svg">
<g clip-path="url(#clip0_40000112_2753)">
<path fill-rule="evenodd" clip-rule="evenodd" d="M34.4595 2C34.4595 0.895431 33.564 0 32.4595 0H18.4595C17.3549 0 16.4595 0.89543 16.4595 2V15C16.4595 16.1046 15.564 17 14.4595 17H1C-0.104568 17 -1 17.8954 -1 19V32C-1 33.1046 -1.89543 34 -3 34H-15C-16.1046 34 -17 33.1046 -17 32V19C-17 17.8954 -17.8954 17 -19 17H-33C-34.1046 17 -35 17.8954 -35 19V33C-35 34.1046 -34.1046 35 -33 35H-20C-18.8954 35 -18 35.8954 -18 37V49C-18 50.1046 -18.8954 51 -20 51H-32C-33.1046 51 -34 51.8954 -34 53V68V69V118C-34 119.105 -33.1046 120 -32 120H-1H50H51H66C67.1046 120 68 119.105 68 118V105C68 103.895 68.8954 103 70 103H81.5272C82.6317 103 83.5272 103.895 83.5272 105V117.609C83.5272 118.714 84.4226 119.609 85.5272 119.609H99.0679C100.172 119.609 101.068 118.714 101.068 117.609V104.068C101.068 102.964 100.172 102.068 99.0679 102.068H87C85.8954 102.068 85 101.173 85 100.068V87C85 85.8954 84.1046 85 83 85H70.4595C69.3549 85 68.4595 84.1046 68.4595 83V71C68.4595 69.8954 69.3549 69 70.4595 69H83.4595C84.564 69 85.4595 68.1046 85.4595 67V53C85.4595 51.8954 84.564 51 83.4595 51H69.4595C68.3549 51 67.4595 51.8954 67.4595 53V66C67.4595 67.1046 66.564 68 65.4595 68H53.4595C52.3549 68 51.4595 67.1046 51.4595 66V53C51.4595 51.8954 50.564 51 49.4595 51H36C34.8954 51 34 50.1046 34 49V36C34 34.8954 33.1046 34 32 34H19C17.8954 34 17 33.1046 17 32V20C17 18.8954 17.8954 18 19 18H32.4595C33.564 18 34.4595 17.1046 34.4595 16V2ZM14 35C15.1046 35 16 35.8954 16 37V49C16 50.1046 15.1046 51 14 51H2C0.895432 51 0 50.1046 0 49V37C0 35.8954 0.895432 35 2 35H14ZM1 69C-0.104568 69 -1 69.8954 -1 71V84C-1 85.1046 -0.104568 86 1 86H13.4595C14.564 86 15.4595 85.1046 15.4595 84V71C15.4595 69.8954 14.564 69 13.4595 69H1ZM67 88C67 86.8954 66.1046 86 65 86H53C51.8954 86 51 86.8954 51 88V100C51 101.105 51.8954 102 53 102H65C66.1046 102 67 101.105 67 100V88ZM33.4595 66C33.4595 67.1046 32.564 68 31.4595 68H19C17.8954 68 17 67.1046 17 66V54C17 52.8954 17.8954 52 19 52H31.4595C32.564 52 33.4595 52.8954 33.4595 54V66ZM101 70C101 68.8954 101.895 68 103 68H117C118.105 68 119 68.8954 119 70V83C119 84.1046 118.105 85 117 85H103C101.895 85 101 84.1046 101 83V70Z" fill="#856BFF"/>
</g>
<defs>
<clipPath id="clip0_40000112_2753">
<rect width="121" height="104" fill="white" transform="translate(-2)"/>
</clipPath>
</defs>
</svg>
