<svg width="146" height="146" viewBox="0 0 146 146" fill="none" xmlns="http://www.w3.org/2000/svg">
<path d="M102.325 97.4252C100.658 97.4252 99.1249 97.4252 97.5027 97.4252C97.5027 95.8031 97.5027 94.2258 97.5027 92.574C95.8209 92.3954 94.2136 92.5889 92.5616 92.455C92.5616 90.8776 92.5616 89.33 92.5616 87.6931C94.1689 87.5741 95.7763 87.6633 97.3836 87.6485C99.0058 87.6336 100.613 87.6485 102.31 87.6485C102.31 85.9818 102.31 84.3896 102.31 82.7378C103.962 82.7378 105.539 82.7378 107.236 82.7378C107.31 81.0711 107.221 79.464 107.296 77.7527C108.962 77.7527 110.57 77.7527 112.252 77.7527C112.252 74.4343 112.252 71.2349 112.252 67.9462C115.526 67.9462 118.726 67.9462 122.015 67.9462C122.015 64.6724 122.015 61.4731 122.015 58.1547C123.681 58.0951 125.259 58.1547 126.822 58.11C127.015 57.4999 127.075 44.4048 126.881 43.2887C125.319 43.2887 123.726 43.2887 122.059 43.2887C122.059 41.6369 122.059 40.0596 122.059 38.378C120.407 38.2441 118.83 38.3929 117.178 38.2888C117.178 36.6816 117.178 35.134 117.178 33.4823C115.511 33.4823 113.933 33.4823 112.281 33.4823C112.281 31.8007 112.281 30.2234 112.281 28.5269C110.6 28.4674 108.992 28.5269 107.296 28.4823C107.296 26.8752 107.296 25.2978 107.296 23.6758C100.717 23.6758 94.2433 23.6758 87.6652 23.6758C87.6652 25.2531 87.6652 26.8305 87.6652 28.4972C85.9834 28.4972 84.4058 28.4972 82.7538 28.4972C82.7538 30.1638 82.7538 31.7412 82.7538 33.3037C82.1139 33.4972 64.076 33.5418 63.0342 33.3632C63.0342 31.8007 63.0342 30.2085 63.0342 28.5269C61.3673 28.5269 59.7599 28.5269 58.0782 28.5269C58.0782 26.8603 58.0782 25.3127 58.0782 23.7056C51.4851 23.7056 44.9665 23.7056 38.3585 23.7056C38.3585 25.2829 38.3585 26.8305 38.3585 28.4972C36.7214 28.4972 35.129 28.4972 33.477 28.4972C33.477 30.1787 33.477 31.7561 33.477 33.4376C31.825 33.4376 30.2474 33.4376 28.5805 33.4376C28.5805 35.0745 28.5805 36.637 28.5805 38.3185C27.7025 38.3334 26.9137 38.3483 26.11 38.3483C25.3361 38.3483 24.5473 38.3483 23.699 38.3483C23.699 40.0149 23.699 41.5923 23.699 43.259C22.0172 43.259 20.4099 43.259 18.7579 43.259C18.7579 48.2292 18.7579 53.1101 18.7579 58.11C20.3652 58.11 21.9726 58.11 23.6543 58.11C23.6543 59.7767 23.6543 61.3243 23.6543 62.976C25.2914 62.976 26.8541 62.976 28.5061 62.976C28.5805 64.6427 28.5061 66.2201 28.5508 67.9165C30.1581 67.9165 31.7654 67.9165 33.4323 67.9165C33.4323 71.2349 33.4323 74.4343 33.4323 77.723C35.0545 77.723 36.6172 77.723 38.2841 77.723C38.2841 79.4045 38.2841 81.0116 38.2841 82.6782C39.9807 82.6782 41.5583 82.6782 43.1359 82.6782C43.1359 83.387 43.1359 91.3194 43.1954 92.5294C41.603 92.5294 40.0105 92.5294 38.3139 92.5294C38.3139 94.2258 38.3139 95.8031 38.3139 97.4549C36.6768 97.4549 35.1141 97.4549 33.5067 97.4549C33.5067 104.032 33.5067 110.52 33.5067 117.127C35.0545 117.291 36.6321 117.098 38.2841 117.232C38.2841 120.461 38.2841 123.66 38.2841 126.919C44.8921 126.919 51.4107 126.919 58.0038 126.919C58.0038 125.356 58.0038 123.794 58.0038 122.261C58.7578 122.217 66.7578 122.261 67.8115 122.217C67.8115 123.764 67.8115 125.312 67.8115 126.919C76.0566 126.919 84.2272 126.919 92.4723 126.919C92.4723 125.327 92.4723 123.779 92.4723 122.127C95.7763 122.127 98.9909 122.127 102.31 122.127C102.31 120.461 102.31 118.868 102.31 117.202C103.977 117.202 105.554 117.202 107.191 117.202C107.191 113.883 107.189 110.58 107.189 107.291C106.014 107.291 105.599 107.306 104.81 107.291C104.006 107.276 103.203 107.291 102.325 107.291C102.325 103.943 102.325 100.744 102.325 97.4252ZM58.0931 92.5889C58.0782 90.9818 58.0484 89.3597 58.0335 87.7526C57.7508 87.708 57.4531 87.6336 57.1703 87.6336C54.4914 87.6187 51.8274 87.6336 49.1485 87.6336C48.8658 87.6336 48.5681 87.6336 48.2556 87.6336C48.2556 85.9223 48.2556 84.33 48.2556 82.6782C49.9224 82.6485 51.5149 82.6931 53.1966 82.6485C53.1966 80.9521 53.1966 79.3747 53.1966 77.7825C54.8337 77.7825 56.3816 77.7825 57.9591 77.7825C57.9889 77.9313 58.0335 78.0354 58.0335 78.1247C58.0335 81.339 58.0187 84.5532 58.0187 87.7526C58.2568 87.708 58.48 87.6187 58.7182 87.6187C59.9385 87.6038 61.1441 87.6038 62.3644 87.6187C62.543 87.6187 62.7216 87.6485 62.9151 87.6782C62.9151 89.3449 62.9151 90.9669 62.9151 92.574C64.2397 92.5442 65.5494 92.5145 66.8739 92.4847C67.1567 92.4847 67.4543 92.4847 67.8115 92.4847C67.8562 94.1811 67.7967 95.7883 67.8413 97.4252C68.511 97.4252 69.0766 97.4252 69.6421 97.4252C70.7137 97.44 71.8001 97.4698 72.8717 97.4847C72.8419 97.2466 72.7824 97.0085 72.7824 96.7704C72.7675 95.6097 72.7824 94.449 72.7824 93.2883C72.7824 93.0502 72.8121 92.8121 72.827 92.5889C73.8391 92.4103 82.0395 92.455 82.6199 92.6335C82.6199 94.2109 82.6199 95.7883 82.6199 97.4252C81.8906 97.4252 81.2209 97.4252 80.5512 97.4252C77.9913 97.44 75.4166 97.44 72.8568 97.4549C72.827 97.7525 72.7973 98.0353 72.7973 98.3329C72.7824 101.354 72.7824 104.36 72.7824 107.366C72.9907 107.321 73.1991 107.246 73.4075 107.246C74.6278 107.232 75.8333 107.232 77.0537 107.246C77.2323 107.246 77.4109 107.291 77.6193 107.321C77.6193 108.973 77.6193 110.565 77.6193 112.172C76.6817 112.351 73.4223 112.306 72.8121 112.113C72.8121 110.535 72.8121 108.943 72.8121 107.351C72.5443 107.321 72.2912 107.246 72.0234 107.246C70.922 107.232 69.8058 107.246 68.7045 107.246C68.4366 107.246 68.1836 107.217 67.8562 107.202C67.7966 105.565 67.8711 103.988 67.8115 102.38C66.9186 102.38 66.1298 102.366 65.341 102.38C64.5671 102.395 63.7932 102.291 62.9449 102.485C62.9449 104.062 62.9449 105.624 62.9449 107.246C62.5877 107.246 62.3198 107.246 62.0668 107.246C61.0101 107.246 59.9534 107.232 58.9116 107.246C58.6586 107.246 58.3907 107.321 58.1377 107.366C58.108 108.63 58.0782 109.88 58.0633 111.145C58.0633 111.488 58.0633 111.83 58.0633 112.202C56.3964 112.202 54.8337 112.202 53.2413 112.202C53.2413 110.535 53.2413 108.928 53.2413 107.306C53.3752 107.276 53.4794 107.246 53.5836 107.246C54.923 107.246 56.2774 107.232 57.6168 107.246C57.7954 107.246 57.974 107.336 58.1526 107.38C58.1228 107.068 58.0633 106.741 58.0633 106.428C58.0484 103.958 58.0633 101.488 58.0633 99.0025C58.0633 98.4668 58.0931 97.9311 58.108 97.3954C54.9528 97.3954 51.7977 97.4103 48.6425 97.4103C48.5235 97.4103 48.3895 97.3656 48.2853 97.3359C48.2853 95.699 48.2853 94.1216 48.2853 92.5294C48.5235 92.5145 48.7169 92.4847 48.8955 92.4847C51.753 92.4847 54.6105 92.4847 57.4829 92.4847C57.6764 92.4996 57.8847 92.5591 58.0931 92.5889ZM43.2996 33.5269C46.6333 33.5269 49.8629 33.5269 53.1371 33.5269C53.1371 36.7858 53.1371 39.9852 53.1371 43.2739C49.848 43.2739 46.5887 43.2739 43.2698 43.2739C43.2698 46.6072 43.2698 49.8363 43.2698 53.1547C41.603 53.1547 39.9956 53.1547 38.3288 53.1547C38.2395 54.8511 38.3734 56.4582 38.2543 58.0505C34.9652 58.0505 31.7655 58.0505 28.5508 58.0505C28.5508 56.3987 28.5508 54.8213 28.5508 53.1398C30.1879 53.1398 31.7952 53.1398 33.4621 53.1398C33.4621 49.8065 33.4621 46.5774 33.4621 43.2441C35.0992 43.2441 36.6768 43.2441 38.3436 43.2441C38.3436 41.5625 38.3436 39.9852 38.3436 38.3334C39.2366 38.3334 40.0403 38.3334 40.8439 38.3334C41.6476 38.3334 42.4364 38.3185 43.2847 38.3036C43.2996 36.6519 43.2996 35.1192 43.2996 33.5269ZM102.325 38.3185C103.992 38.3185 105.569 38.3185 107.266 38.3185C107.266 40.0149 107.266 41.6072 107.266 43.2441C108.977 43.2738 110.585 43.2292 112.252 43.2739C112.252 46.622 112.252 49.8512 112.252 53.1547C113.903 53.1547 115.481 53.1547 117.088 53.1547C117.088 54.8362 117.088 56.4285 117.088 58.0505C113.799 58.0505 110.57 58.0505 107.236 58.0505C107.236 56.3987 107.236 54.7916 107.236 53.125C105.554 53.125 103.977 53.125 102.34 53.125C102.295 49.7916 102.369 46.5476 102.295 43.2292C98.9761 43.2292 95.7763 43.2292 92.5169 43.2292C92.5169 39.9703 92.5169 36.7709 92.5169 33.512C95.7763 33.512 99.0058 33.512 102.31 33.512C102.325 35.1191 102.325 36.6816 102.325 38.3185ZM63.049 77.6783C62.9002 76.5771 62.9449 68.5266 63.0937 67.9611C64.7754 67.8123 72.1871 67.8867 72.7526 68.0504C72.7526 71.2498 72.7526 74.4492 72.7526 77.6783C69.4784 77.6783 66.2637 77.6783 63.049 77.6783ZM77.7235 67.8867C77.7235 66.2201 77.7235 64.6427 77.7235 63.0356C82.6497 63.0356 87.5312 63.0356 92.3979 63.0356C92.5616 64.0475 92.5169 67.3212 92.3532 67.8867C87.5014 67.8867 82.6348 67.8867 77.7235 67.8867ZM43.3442 67.8867C43.3442 66.2201 43.3442 64.6427 43.3442 63.0653C44.4605 62.8868 57.4085 62.9463 58.0038 63.1249C58.0038 64.7022 58.0038 66.2796 58.0038 67.8867C53.0925 67.8867 48.2407 67.8867 43.3442 67.8867Z" fill="white"/>
<path d="M82.8135 92.5586C84.4357 92.5586 86.0728 92.5586 87.695 92.5586C87.695 94.1806 87.695 95.8175 87.695 97.4395C86.0877 97.4395 84.4803 97.4395 82.8135 97.4395C82.8135 95.758 82.8135 94.1508 82.8135 92.5586Z" fill="white"/>
</svg>
