<svg width="146" height="146" viewBox="0 0 146 146" fill="none" xmlns="http://www.w3.org/2000/svg">
<path d="M113.652 59.0015C114.217 58.9701 114.782 58.923 115.347 58.923C116.508 58.9074 117.685 58.923 118.83 58.923C119.019 59.5506 119.066 73.8584 118.893 74.9879C117.183 74.9879 115.457 74.9879 113.637 74.9879C113.637 79.5219 113.637 83.946 113.637 88.3858C113.637 92.8256 113.637 97.2654 113.637 101.799C111.879 101.799 110.185 101.799 108.365 101.799C108.365 103.635 108.365 105.376 108.365 107.196C104.725 107.196 101.21 107.196 97.6325 107.196C97.6325 109.047 97.6325 110.82 97.6325 112.671C99.3741 112.671 101.1 112.671 102.873 112.671C102.873 116.295 102.873 119.841 102.873 123.449C101.116 123.449 99.3898 123.449 97.5854 123.449C97.5854 125.222 97.5854 126.916 97.5854 128.674C88.6262 128.674 79.7454 128.674 70.7548 128.674C70.692 126.979 70.7705 125.269 70.7077 123.496C68.9034 123.496 67.146 123.496 65.3259 123.496C65.3259 125.238 65.3259 126.932 65.3259 128.674C56.3667 128.674 47.4859 128.674 38.511 128.674C38.4169 126.979 38.5267 125.253 38.4482 123.449C36.6752 123.449 34.9493 123.449 33.1763 123.449C33.1763 119.825 33.1763 116.28 33.1763 112.671C34.9493 112.671 36.6752 112.671 38.4796 112.671C38.4796 109.047 38.4796 105.502 38.4796 101.831C40.3154 101.831 42.057 101.831 43.8457 101.831C43.8457 98.2224 43.8457 94.7396 43.8457 91.147C42.0727 91.147 40.3311 91.147 38.4953 91.147C38.4953 89.3271 38.4953 87.6014 38.4953 85.7815C36.6909 85.7815 34.965 85.7815 33.1449 85.7815C33.1135 83.8989 33.0821 82.1261 33.1606 80.3377L33.1292 80.3691C34.8865 80.3691 36.6438 80.3691 38.4639 80.3691C38.4639 79.9298 38.4639 79.6003 38.4639 79.2709C38.4639 71.1443 38.4639 63.002 38.4639 54.8755C38.4639 54.4205 38.4482 53.9655 38.4482 53.5106L38.4169 53.5263C40.2213 53.5263 42.0257 53.5106 43.9085 53.5106C43.9085 51.6593 43.9085 49.9336 43.9085 48.2079L43.8928 48.2236C44.1752 48.1922 44.4577 48.1452 44.7244 48.1452C45.964 48.1295 47.2192 48.1452 48.4587 48.1452C48.6941 48.1452 48.9451 48.0981 49.1962 48.0824C49.1962 46.2469 49.1962 44.4898 49.1962 42.7484L49.1648 42.764C54.5309 42.764 59.897 42.764 65.2632 42.764L65.2318 42.7327C65.2632 44.5055 65.2789 46.2782 65.3102 48.1452C67.146 48.1452 68.8877 48.1765 70.6921 48.1295C70.6921 47.6745 70.6921 47.3293 70.6921 46.9999C70.7078 45.5723 70.7234 44.1603 70.7391 42.7327L70.7077 42.764C76.0739 42.764 81.44 42.764 86.8061 42.764L86.7747 42.7484C86.7747 44.5211 86.7747 46.2939 86.7747 48.1608C87.4181 48.1608 87.9829 48.1451 88.5321 48.1608C89.7245 48.1765 90.9013 48.2079 92.0938 48.2393L92.0781 48.2236C92.0938 49.965 92.1252 51.7221 92.1409 53.542C94.008 53.542 95.781 53.542 97.5697 53.542L97.5384 53.5263C97.5384 53.6361 97.5227 53.7459 97.5227 53.8714C97.5227 62.4686 97.5227 71.0659 97.5227 79.6474C97.5227 79.867 97.5384 80.0867 97.5697 80.4161C99.3428 80.4161 101.084 80.4161 102.81 80.4161C102.842 81.8124 102.857 83.193 102.889 84.5892C102.889 84.9501 102.889 85.3109 102.889 85.7815C101.084 85.7815 99.3585 85.7815 97.5227 85.7815C97.5227 87.6171 97.5227 89.3585 97.5227 91.147C95.6555 91.194 93.9139 91.1156 92.1722 91.194C92.1722 94.7867 92.1722 98.2852 92.1722 101.752C93.2549 101.941 102.245 101.893 102.92 101.674C102.92 99.9795 102.92 98.2538 102.92 96.4339C104.756 96.4339 106.498 96.4339 108.255 96.4339C108.255 91.0528 108.255 85.7659 108.255 80.4475C106.403 80.4475 104.583 80.4475 102.779 80.4475C102.81 80.1651 102.873 79.8984 102.873 79.616C102.889 78.3923 102.873 77.1686 102.873 75.9449C102.873 75.6625 102.873 75.3958 102.873 75.0036C104.725 75.0036 106.482 75.0036 108.302 75.0036C108.302 73.1681 108.302 71.4424 108.302 69.6068C110.091 69.6068 111.817 69.6068 113.59 69.6068C113.59 69.2146 113.59 68.9479 113.59 68.6655C113.59 66.8771 113.59 65.0729 113.59 63.2844C113.59 61.8568 113.621 60.4448 113.621 59.0172L113.652 59.0015ZM75.964 112.609C77.6429 112.64 79.3218 112.656 81.0007 112.687C81.1419 112.687 81.2674 112.656 81.4871 112.624C81.4871 110.804 81.4871 109.032 81.4871 107.275C79.918 107.118 76.7015 107.18 76.0739 107.369C76.0739 108.514 76.0896 109.691 76.0739 110.852C76.0739 111.448 76.0268 112.044 75.9954 112.64C74.2695 112.671 72.5435 112.687 70.7705 112.718C70.7705 114.523 70.7705 116.264 70.7705 118.021C72.5592 118.021 74.2852 118.021 76.0582 118.021C76.0582 116.28 76.0582 114.601 76.0582 112.938C76.0582 112.828 75.9954 112.718 75.964 112.609ZM60.0226 112.609C59.9912 112.75 59.9284 112.875 59.9284 113.017C59.9284 114.585 59.9284 116.154 59.9284 117.723C59.9284 117.817 59.9912 117.927 60.0226 118.084C61.7799 118.084 63.4902 118.115 65.2161 118.068C65.2161 116.233 65.2161 114.507 65.2161 112.687C64.8709 112.687 64.5571 112.687 64.259 112.687C62.8312 112.671 61.419 112.656 59.9912 112.64C59.9598 111.197 59.9284 109.738 59.9127 108.294C59.9127 107.965 59.9127 107.635 59.9127 107.275C58.0613 107.275 56.3196 107.275 54.5466 107.275C54.5466 109.079 54.5466 110.836 54.5466 112.687C55.033 112.687 55.488 112.687 55.9274 112.687C57.3081 112.656 58.6732 112.64 60.0226 112.609ZM43.9242 112.703C43.9242 116.327 43.9242 119.857 43.9242 123.387C45.7129 123.387 47.4389 123.387 49.1491 123.387C49.306 122.084 49.2589 113.33 49.0863 112.703C47.3918 112.703 45.6815 112.703 43.9242 112.703ZM86.8375 112.718C86.8375 116.327 86.8375 119.872 86.8375 123.402C88.6262 123.402 90.3365 123.402 92.0781 123.402C92.0781 119.81 92.0781 116.28 92.0781 112.718C90.3051 112.718 88.6105 112.718 86.8375 112.718ZM49.2589 64.2728C49.2589 67.8654 49.2589 71.3796 49.2589 74.9252C51.0163 74.9252 52.7422 74.9252 54.4682 74.9252C54.4682 71.3482 54.4682 67.8341 54.4682 64.2728C52.7265 64.2728 51.0319 64.2728 49.2589 64.2728ZM86.7277 74.9409C86.7277 71.3482 86.7277 67.834 86.7277 64.3355C85.8804 64.163 82.1931 64.1787 81.5185 64.3512C81.5185 67.8654 81.5185 71.3639 81.5185 74.9409C83.2601 74.9409 84.9546 74.9409 86.7277 74.9409ZM65.3102 69.6382C65.2789 71.4267 65.2789 73.1681 65.2946 74.9879C67.1617 74.9879 68.9033 75.0193 70.6607 74.9566C70.6607 73.121 70.6607 71.3953 70.6607 69.6382C68.8877 69.6382 67.1617 69.6382 65.3102 69.6382Z" fill="white"/>
<path d="M33.1301 53.5261C33.1144 52.7888 33.083 52.0514 33.083 51.3141C33.083 48.8039 33.083 46.3095 33.083 43.7994C33.083 43.4856 33.083 43.1875 33.083 42.7953C34.856 42.7953 36.582 42.7953 38.4334 42.7953C38.4334 40.9754 38.4334 39.234 38.4334 37.3671C40.3006 37.3671 42.0422 37.3671 43.8623 37.3671C43.8623 35.5787 43.8623 33.9 43.8623 32.1115C45.651 32.0331 47.4084 32.1272 49.2285 32.0645C49.2285 30.2603 49.2285 28.5346 49.2285 26.7461C61.7651 26.7461 74.2233 26.7461 86.7913 26.7461C86.7913 28.5032 86.7913 30.2446 86.7913 32.0958C88.6271 32.0958 90.3374 32.0958 92.1574 32.0958C92.1574 33.8843 92.1574 35.5786 92.1574 37.3985C93.9932 37.3985 95.7349 37.3985 97.602 37.3985C97.602 41.1009 97.602 44.6779 97.602 48.2548L97.6177 48.2235C95.7819 48.2235 93.9618 48.2235 92.1261 48.2235L92.1418 48.2391C92.1418 46.435 92.1418 44.6308 92.1418 42.7482C90.3217 42.7482 88.5643 42.7482 86.8227 42.7482L86.8541 42.7639C86.8384 41.0068 86.807 39.2497 86.7913 37.4456C81.4252 37.4456 76.1218 37.4456 70.7714 37.4456C70.7714 39.2497 70.7714 41.0068 70.7714 42.7639L70.8028 42.7325C68.967 42.7325 67.1312 42.7325 65.2954 42.7325L65.3268 42.7639C65.3268 41.8854 65.3425 41.0068 65.3425 40.1126C65.3425 39.2184 65.3739 38.3084 65.3111 37.4299C59.9136 37.4299 54.6416 37.4299 49.2598 37.4299C49.2598 37.7907 49.2598 38.1045 49.2598 38.4026C49.2441 39.8459 49.2285 41.3049 49.2128 42.7482L49.2441 42.7325C47.4711 42.7482 45.7138 42.7639 43.9251 42.7639C43.9251 44.6622 43.9251 46.4507 43.9251 48.2235L43.9408 48.2078C42.1521 48.0823 40.3477 48.1607 38.4805 48.1607C38.4805 48.5843 38.4805 48.8981 38.4805 49.1961C38.4648 50.6395 38.4491 52.0828 38.4334 53.5261L38.4648 53.5104C36.6918 53.5104 34.9188 53.5104 33.1458 53.5104C33.0987 53.5104 33.1301 53.5261 33.1301 53.5261Z" fill="white"/>
<path d="M102.858 53.5423C104.647 53.5423 106.435 53.5423 108.271 53.5423C108.271 42.78 108.271 32.112 108.271 21.3811C106.482 21.3811 104.741 21.3811 102.905 21.3811C102.905 23.1539 102.905 24.8796 102.905 26.6524C101.085 26.6524 99.3746 26.6524 97.6016 26.6524C97.6016 23.1068 97.6016 19.5769 97.6016 16C102.905 16 108.193 16 113.59 16C113.606 16.3138 113.621 16.6275 113.621 16.957C113.621 22.7146 113.621 28.4723 113.621 34.2299C113.621 42.1211 113.621 50.0124 113.621 57.9036C113.621 58.2801 113.637 58.641 113.637 59.0175L113.653 59.0018C113.308 58.9861 112.978 58.9391 112.633 58.9391C109.699 58.9391 106.78 58.9391 103.846 58.9391C103.548 58.9391 103.234 58.9077 102.874 58.892C102.874 57.0408 102.874 55.2837 102.874 53.5266L102.858 53.5423Z" fill="white"/>
<path d="M33.1298 80.3541C29.521 80.3541 25.9122 80.3541 22.2092 80.3541C22.2092 78.5814 22.2092 76.8556 22.2092 75.0201C20.4362 75.0201 18.7573 75.0201 17 75.0201C17 69.6233 17 64.352 17 59.018C17.1412 58.9866 17.2667 58.9238 17.3923 58.9238C18.8672 58.9238 20.3578 58.9238 21.8327 58.9238C21.9425 58.9238 22.0523 58.9709 22.1622 59.0023L22.1465 58.9866C22.1622 59.3004 22.1778 59.6141 22.1778 59.9279C22.1778 62.8302 22.1778 65.7326 22.1778 68.6506C22.1778 68.9487 22.1778 69.2468 22.1778 69.6233C24.0607 69.6233 25.818 69.6233 27.6381 69.6233C27.6381 71.4275 27.6381 73.1532 27.6381 74.9887C29.4582 74.9887 31.2155 74.9887 33.0827 74.9887C33.0827 76.8556 33.0827 78.6284 33.0827 80.3855L33.1298 80.3541Z" fill="white"/>
<path d="M22.1778 59.0008C22.1778 58.0908 22.1935 57.1809 22.1935 56.271C22.1935 55.3924 22.1935 54.5139 22.1935 53.5098C25.8807 53.5098 29.5052 53.5098 33.1297 53.5098L33.0983 53.4941C33.0826 55.2669 33.067 57.0397 33.067 58.9066C32.659 58.9066 32.3452 58.9066 32.0471 58.9066C29.0973 58.9066 26.1318 58.9066 23.182 58.9066C22.8368 58.9066 22.5073 58.9537 22.1621 58.9694C22.1621 58.9851 22.1778 59.0008 22.1778 59.0008Z" fill="white"/>
<path d="M97.5713 48.2397C98.0263 48.2083 98.4656 48.1613 98.9207 48.1613C100.207 48.1456 101.478 48.1613 102.749 48.1613C102.937 48.8045 103 51.9579 102.859 53.5424L102.89 53.511C101.117 53.511 99.3443 53.511 97.5713 53.511L97.6027 53.5267C97.6027 51.7539 97.6027 49.9811 97.6027 48.2083L97.5713 48.2397Z" fill="white"/>
</svg>
