<svg width="146" height="146" viewBox="0 0 146 146" fill="none" xmlns="http://www.w3.org/2000/svg">
<path d="M101.757 24.3115C101.804 24.2801 101.851 24.2175 101.898 24.2175C103.512 24.2175 105.126 24.2175 106.834 24.2175C106.834 25.8939 106.834 27.539 106.834 29.2625C108.558 29.2625 110.203 29.2625 111.801 29.2625C112.021 29.9205 112.068 33.4458 111.895 34.5896C110.266 34.5896 108.636 34.5896 106.912 34.5896C106.912 36.3444 106.912 38.0052 106.912 39.76C105.157 39.76 103.496 39.76 101.867 39.76C101.663 40.4337 101.616 43.5203 101.773 44.8991C103.418 44.8991 105.095 44.8991 106.865 44.8991C106.865 48.4244 106.865 51.887 106.865 55.4123C108.605 55.4123 110.25 55.4123 111.942 55.4123C111.942 62.3688 111.942 69.247 111.942 76.2349C111.112 76.2976 110.266 76.2505 109.435 76.2662C108.62 76.2818 107.806 76.2662 106.897 76.2662C106.897 78.0366 106.897 79.6975 106.897 81.4523C105.142 81.4523 103.481 81.4523 101.757 81.4523C101.757 83.1914 101.757 84.8522 101.757 86.5914C103.449 86.5914 105.11 86.5914 106.865 86.5914C106.865 88.3619 106.865 90.0539 106.865 91.8557C108.605 91.8557 110.25 91.8557 111.958 91.8557C111.958 100.567 111.958 109.184 111.958 117.911C110.297 117.959 108.636 117.896 106.897 117.943C106.897 119.698 106.897 121.358 106.897 123.113C105.142 123.113 103.481 123.113 101.726 123.113C101.726 124.852 101.726 126.513 101.726 128.158C100.973 128.346 81.6837 128.378 80.7748 128.19C80.7748 126.545 80.7748 124.884 80.7748 123.145C79.0511 123.145 77.4058 123.145 75.6821 123.145C75.6821 121.405 75.6821 119.745 75.6821 118.099C74.9926 117.896 71.3415 117.849 70.37 118.037C70.37 119.682 70.37 121.343 70.37 123.098C68.6149 123.098 66.9539 123.098 65.1989 123.098C65.1989 124.837 65.1989 126.497 65.1989 128.127C64.4781 128.331 45.4234 128.362 44.4049 128.174C44.4049 126.529 44.4049 124.868 44.4049 123.129C42.6185 123.129 40.9261 123.129 39.1084 123.129C39.1084 121.374 39.1084 119.682 39.1084 117.911C37.3534 117.911 35.7237 117.911 34.0313 117.911C34.0313 109.216 34.0313 100.614 34.0313 91.9028C34.8618 91.8244 35.708 91.8714 36.5385 91.8714C37.3534 91.8558 38.1839 91.8714 39.0771 91.8714C39.0771 90.1009 39.0771 88.4088 39.0771 86.607C40.8634 86.607 42.5871 86.607 44.3422 86.607C44.3422 84.8679 44.3422 83.2228 44.3422 81.4836C42.6341 81.4836 40.9104 81.4836 39.1084 81.4836C39.1084 79.7132 39.1084 78.0523 39.1084 76.2662C37.369 76.2662 35.708 76.2662 34.0157 76.2662C34.0157 69.2783 34.0157 62.4001 34.0157 55.4436C35.708 55.4436 37.3377 55.4436 39.0614 55.4436C39.0614 51.9183 39.0614 48.487 39.0614 44.9774C40.0016 44.8678 40.8791 44.946 41.741 44.9304C42.5871 44.9147 43.4333 44.9304 44.3265 44.9304C44.3265 43.2226 44.3265 41.5774 44.3265 39.8383C42.6185 39.8383 40.8948 39.8383 39.0927 39.8383C39.0927 38.0678 39.0927 36.4071 39.0927 34.6209C37.3534 34.6209 35.6924 34.6209 34 34.6209C34 32.8035 34 31.1113 34 29.3252C35.6924 29.3252 37.322 29.3252 39.0614 29.3252C39.0614 27.6017 39.0614 25.9566 39.0614 24.3585C39.2181 24.2801 39.2965 24.2175 39.3748 24.2175C40.9105 24.2018 42.4461 24.2018 43.9818 24.2018C44.0758 24.2018 44.1855 24.2801 44.2795 24.3271C44.3108 24.6404 44.3578 24.9382 44.3578 25.2516C44.3578 28.0404 44.3578 30.8293 44.3578 33.6182C44.3578 33.9159 44.3578 34.2292 44.3578 34.5583C46.1129 34.5583 47.7426 34.5583 49.4819 34.5583C49.4819 32.8191 49.4819 31.127 49.4819 29.3095C51.2526 29.3095 52.945 29.3095 54.6687 29.3095C54.6687 27.5547 54.6687 25.9252 54.6687 24.2487C54.4336 24.2174 54.2299 24.1861 54.0419 24.1861C51.0176 24.1861 48.0089 24.1861 44.9846 24.1861C44.7339 24.1861 44.4989 24.2801 44.2482 24.3271C44.2795 23.9667 44.3422 23.5907 44.3422 23.2303C44.3578 21.8359 44.3422 20.4571 44.3422 19.0157C49.5759 19.0157 54.747 19.0157 59.9808 19.0157C59.9808 20.7235 59.9808 22.3843 59.9808 24.1704C61.7202 24.1704 63.3812 24.1704 65.1205 24.1704C65.1205 25.9252 65.1205 27.5704 65.1205 29.2469C70.3543 29.2469 75.494 29.2469 80.7121 29.2469C80.7121 27.5704 80.7121 25.9252 80.7121 24.1704C82.4829 24.1704 84.1752 24.1704 85.9459 24.1704C85.9459 22.3843 85.9459 20.7235 85.9459 19C91.1954 19 96.3508 19 101.6 19C101.616 19.2037 101.663 19.423 101.663 19.6424C101.663 20.8958 101.663 22.1493 101.679 23.4027C101.679 23.7161 101.741 24.0295 101.757 24.3115C101.475 24.2801 101.161 24.1861 100.864 24.1861C97.9334 24.1704 95.0032 24.1861 92.0729 24.1861C91.8221 24.1861 91.5714 24.2175 91.2894 24.2331C91.2894 25.9253 91.2894 27.5547 91.2894 29.3095C92.9817 29.3095 94.6427 29.3095 96.3821 29.3095C96.3821 31.127 96.3821 32.8035 96.3821 34.5583C98.1842 34.5896 99.9079 34.6053 101.663 34.5426C101.663 34.1039 101.663 33.8062 101.663 33.4928C101.663 30.7353 101.663 27.9777 101.663 25.2202C101.679 24.9382 101.726 24.6248 101.757 24.3115ZM70.3073 55.5376C70.464 55.5062 70.6364 55.4279 70.7931 55.4279C72.2034 55.4122 73.6293 55.4122 75.0396 55.4279C75.1963 55.4279 75.353 55.5063 75.5097 55.5533C75.5411 56.885 75.5724 58.2168 75.5881 59.5329C75.5881 59.8619 75.5881 60.1909 75.5881 60.5513C77.3431 60.5513 78.9885 60.5513 80.6651 60.5513C80.6651 58.8278 80.6651 57.1671 80.6651 55.4906C80.5241 55.4593 80.4144 55.4279 80.3047 55.4279C78.8788 55.4279 77.4685 55.4122 76.0425 55.4279C75.8545 55.4279 75.6664 55.5219 75.4784 55.5689C75.5097 55.3966 75.5724 55.2399 75.5724 55.0675C75.5724 53.5321 75.5724 51.9966 75.5567 50.4612C75.5567 50.3829 75.494 50.3202 75.4627 50.2419C73.7547 50.2419 72.0623 50.2419 70.3073 50.2419C70.3073 52.0437 70.3073 53.7985 70.3073 55.5533C70.1193 55.5063 69.9312 55.4279 69.7432 55.4279C68.3485 55.4122 66.9539 55.4279 65.5593 55.4279C65.4339 55.4279 65.2929 55.4749 65.1519 55.5062C65.1519 57.214 65.1519 58.8905 65.1519 60.5356C66.2958 60.6923 69.6648 60.661 70.276 60.473C70.3073 58.8435 70.3073 57.1984 70.3073 55.5376ZM65.1989 97.2299C65.4653 97.1829 65.7473 97.1045 66.0137 97.1045C67.1733 97.0888 68.3485 97.1045 69.5081 97.0889C69.7588 97.0889 69.9939 97.0575 70.3073 97.0261C70.3073 93.5322 70.3073 90.101 70.3073 86.6384C72.0937 86.6384 73.8017 86.6384 75.5881 86.6384C75.5881 90.1166 75.5881 93.5479 75.5881 97.0418C75.9328 97.0575 76.1992 97.0889 76.4813 97.0889C77.5938 97.0889 78.6907 97.0888 79.8033 97.1045C80.0697 97.1045 80.3517 97.1829 80.6181 97.2299C80.6495 98.5303 80.6808 99.8307 80.6965 101.131C80.6965 101.46 80.6965 101.789 80.6965 102.15C82.4985 102.15 84.1752 102.15 85.8832 102.15C85.8832 100.457 85.8832 98.8123 85.8832 97.1672C85.7265 97.1359 85.6168 97.0889 85.5071 97.0889C84.0655 97.0889 82.6082 97.0732 81.1666 97.0889C80.9785 97.0889 80.7905 97.1829 80.6025 97.2299C80.6338 96.8852 80.6965 96.5562 80.6965 96.2115C80.6965 93.3129 80.6965 90.4143 80.6965 87.5001C80.6965 87.2024 80.7121 86.9047 80.7278 86.5286C84.2536 86.5286 87.6853 86.5286 91.164 86.5286C91.164 84.8052 91.164 83.1444 91.164 81.421C89.3776 81.421 87.6383 81.421 85.9146 81.421C84.1909 81.421 82.4672 81.4366 80.6808 81.4053C80.6808 77.88 80.6808 74.48 80.6808 71.0958C79.5056 70.9234 70.9498 70.9705 70.2603 71.1585C70.2603 72.8036 70.2603 74.4644 70.2603 76.2349C68.5209 76.2349 66.8599 76.2349 65.1049 76.2349C65.1049 77.9897 65.1049 79.6662 65.1049 81.421C61.5948 81.421 58.1787 81.421 54.7627 81.421C54.606 82.7214 54.653 85.9176 54.841 86.5757C58.2258 86.5757 61.6261 86.5757 65.0892 86.5757C65.0892 86.9517 65.0892 87.2651 65.0892 87.5784C65.0892 90.4457 65.0892 93.3286 65.0892 96.1958C65.1205 96.5718 65.1832 96.9165 65.1989 97.2299C64.9168 97.1985 64.6034 97.1045 64.3057 97.1045C63.3185 97.0888 62.3156 97.1045 61.3284 97.1045C60.9053 97.1045 60.4979 97.1045 60.0435 97.1045C60.0435 98.8593 60.0435 100.504 60.0435 102.15C61.3441 102.322 64.4937 102.275 65.1049 102.056C65.1049 101.084 65.0892 100.097 65.1049 99.0943C65.1362 98.4676 65.1832 97.8409 65.1989 97.2299ZM59.9651 39.8854C58.7899 39.7287 55.3111 39.7757 54.747 39.9323C54.747 43.3323 54.747 46.7479 54.747 50.1321C55.9693 50.2888 59.354 50.2418 59.9651 50.0695C59.9651 46.6852 59.9651 43.3166 59.9651 39.8854ZM85.9929 50.1635C87.7793 50.1635 89.4717 50.1635 91.1797 50.1635C91.1797 46.6852 91.1797 43.2696 91.1797 39.854C89.4247 39.854 87.7323 39.854 85.9929 39.854C85.9929 43.2853 85.9929 46.6852 85.9929 50.1635Z" fill="white"/>
</svg>
