<svg width="146" height="146" viewBox="0 0 146 146" fill="none" xmlns="http://www.w3.org/2000/svg">
<path d="M117.034 94.0077C117.034 95.6813 117.034 97.3066 117.034 99.0124C118.692 99.0124 120.269 99.0124 121.814 99.0124C122.023 99.6883 122.072 107.944 121.878 109.006C120.317 109.006 118.756 109.006 117.066 109.006C117.066 110.696 117.066 112.305 117.066 113.995C113.686 113.995 110.419 113.995 107.071 113.995C107.071 117.326 107.071 120.593 107.071 123.747C106.959 123.859 106.942 123.892 106.926 123.908C106.91 123.924 106.878 123.956 106.862 123.956C92.1031 123.972 77.3443 123.988 62.5854 124.004C62.4084 124.004 62.2474 123.988 61.9738 123.972C61.9738 122.347 61.9738 120.754 61.9738 119.193C61.2335 118.999 53.5885 118.935 51.9951 119.096C51.9951 120.673 51.9951 122.266 51.9951 123.827C51.2869 124.036 33.2448 124.101 32.0055 123.908C32.0055 122.331 32.0055 120.737 32.0055 119.048C33.631 119.048 35.2244 119.048 36.8983 119.048C36.8983 114.027 36.8983 109.103 36.8983 104.049C38.0732 104.017 39.1676 104.033 40.2621 104.033C41.3404 104.033 42.4188 104.033 43.5132 104.033C44.6237 104.033 45.7182 104.033 46.877 104.033C46.877 102.36 46.877 100.783 46.877 99.0447C43.5776 99.0286 40.2942 99.0446 36.9304 99.0285C36.9304 97.3066 36.9304 95.6813 36.9304 93.9594C35.2566 93.9594 33.6632 93.9594 31.9894 93.9594C31.9894 92.2697 31.9894 90.6765 31.9894 88.9546C30.2994 88.9385 28.6739 88.9546 27 88.9385C27 82.2762 27 75.6943 27 68.9997C28.5934 68.8549 30.219 69.0158 31.9572 68.9032C31.9572 63.9467 31.9572 58.9901 31.9572 53.9531C33.6632 53.9531 35.2566 53.9531 36.9304 53.9531C36.9304 48.9322 36.9304 43.9918 36.9304 38.9709C38.6204 38.9709 40.246 38.9709 41.952 38.9709C41.952 33.95 41.952 29.0257 41.952 23.9887C43.6259 23.9887 45.2192 23.9887 46.9253 23.9887C46.9253 22.2668 46.9253 20.6575 46.9253 19C51.9629 19 56.904 19 61.9417 19C61.9738 21.4783 61.9577 23.9565 61.9577 26.4187C61.9577 28.9292 61.9577 31.4396 61.9577 33.9661C61.9577 36.4444 61.9577 38.9388 61.9577 41.417C61.9577 43.8953 61.9577 46.3735 61.9577 48.9001C65.3054 48.9001 68.5566 48.9001 71.9526 48.9001C71.9687 45.585 71.9526 42.2699 71.9526 38.9388C71.9526 35.6398 71.9526 32.3408 71.9526 29.0257C71.9526 25.6945 71.9526 22.3794 71.9526 19C76.958 19 81.883 19 86.8885 19C86.8885 20.6093 86.8885 22.2024 86.8885 23.9244C88.5784 24.0048 90.204 23.9243 91.91 23.9887C91.91 28.9774 91.91 33.9017 91.91 38.9065C93.5839 38.9065 95.1772 38.9065 96.8994 38.9065C96.8994 40.2261 96.9155 41.4653 96.9155 42.7044C96.9155 43.9275 96.9155 45.1666 96.9155 46.3896C96.9155 47.6448 96.9155 48.9001 96.9155 50.1553C96.9155 51.3783 96.9155 52.6014 96.9155 53.9049C98.6054 53.9049 100.247 53.9049 101.985 53.9049C101.985 55.2406 102.001 56.4797 102.001 57.7188C102.001 58.9419 102.001 60.181 102.001 61.404C102.001 62.6592 102.001 63.9145 102.001 65.1697C102.001 66.3928 102.001 67.6158 102.001 68.8871C103.691 68.8871 105.301 68.8871 106.878 68.8871C107.071 69.5791 107.12 87.6672 106.926 88.9063C105.333 88.9063 103.707 88.9063 102.018 88.9063C102.018 90.596 102.018 92.2053 102.018 93.895C100.311 93.895 98.6859 93.895 96.9477 93.895C96.8672 95.633 96.9637 97.2745 96.8833 98.9803C95.2416 98.9803 93.6643 98.9803 92.1192 98.9803C91.91 99.6401 91.8617 102.698 92.0227 103.937C95.306 103.937 98.5893 103.937 101.969 103.937C101.969 102.328 101.969 100.75 101.969 99.0768C103.675 98.8998 105.301 99.109 107.007 98.9481C107.007 97.2906 107.007 95.6813 107.007 93.9916C110.387 94.0077 113.67 94.0077 117.034 94.0077ZM91.8134 48.9001C91.9905 48.2725 92.0227 44.893 91.8134 43.9435C90.22 43.9435 88.5945 43.9435 86.9045 43.9435C86.9045 38.8905 86.9045 33.9661 86.9045 29.0096C83.5407 29.0096 80.2574 29.0096 76.9741 29.0096C76.9741 35.6719 76.9741 42.2538 76.9741 48.9001C81.9474 48.9001 86.8884 48.9001 91.8134 48.9001ZM56.8557 48.9162C57.0327 47.4196 56.9684 29.605 56.7913 29.0096C53.5241 29.0096 50.273 29.0096 46.9253 29.0096C46.9253 33.9983 46.9253 38.9227 46.9253 43.9114C45.2353 44.0079 43.6098 43.8953 42.0164 43.9918C42.0164 45.6976 42.0164 47.2908 42.0164 48.9162C46.9896 48.9162 51.8985 48.9162 56.8557 48.9162ZM46.9736 68.9837C46.9736 72.347 46.9736 75.5977 46.9736 78.8967C48.6313 78.8967 50.2569 78.8967 51.8985 78.8967C51.8985 75.5655 51.8985 72.2826 51.8985 68.9837C50.2408 68.9837 48.6474 68.9837 46.9736 68.9837ZM76.8614 78.9128C77.0224 77.4323 76.9741 69.6112 76.7971 68.9997C75.2037 68.9997 73.6103 68.9997 71.9526 68.9997C71.9687 72.3309 71.9365 75.6138 71.9687 78.9128C73.6586 78.9128 75.2359 78.9128 76.8614 78.9128ZM56.9845 78.9771C56.9845 80.6669 56.9845 82.26 56.9845 83.8854C58.6422 83.8854 60.2678 83.8854 61.8934 83.8854C61.8934 82.2118 61.8934 80.6025 61.8934 78.9771C60.2356 78.9771 58.6422 78.9771 56.9845 78.9771Z" fill="white"/>
</svg>
