<svg width="146" height="146" viewBox="0 0 146 146" fill="none" xmlns="http://www.w3.org/2000/svg">
<path d="M111.665 86.8705C111.698 87.1015 111.765 87.3325 111.765 87.5635C111.765 93.8008 111.765 100.038 111.765 106.259C111.765 106.44 111.749 106.622 111.732 106.902C110.079 106.902 108.426 106.902 106.706 106.902C106.706 108.618 106.706 110.219 106.706 111.935C104.987 111.935 103.334 111.935 101.614 111.935C101.614 113.651 101.614 115.252 101.614 116.968C99.8942 116.968 98.2413 116.968 96.5215 116.968C96.5215 118.684 96.5215 120.284 96.5215 121.984C93.0988 121.984 89.7429 121.984 86.2701 121.984C86.2701 123.7 86.2701 125.317 86.2701 127C74.2822 127 62.4279 127 50.4734 127C50.4734 125.366 50.4734 123.749 50.4734 122.066C47.0507 122.066 43.6947 122.066 40.2219 122.066C40.2219 120.35 40.2219 118.733 40.2219 117.017C38.4855 117.017 36.866 117.017 35.1128 117.017C35.0795 115.846 35.0961 114.757 35.0961 113.651C35.0961 112.545 35.0961 111.44 35.0961 110.318C35.0961 109.212 35.0961 108.107 35.0961 106.935C33.3931 106.935 31.7569 106.935 30.1707 106.935C29.9704 106.209 29.937 82.7288 30.1207 81.6563C31.7235 81.6563 33.343 81.6563 35.046 81.6563C35.046 79.9237 35.046 78.2902 35.046 76.5411C35.9643 76.5246 36.7991 76.5246 37.634 76.5081C38.4521 76.5081 39.2535 76.5081 40.1551 76.5081C40.1551 74.825 40.1551 73.2245 40.1551 71.4919C41.9082 71.4919 43.5778 71.4919 45.2975 71.4919C45.2975 69.7758 45.2975 68.1588 45.2975 66.4757C43.6279 66.4757 41.975 66.4757 40.2219 66.4757C40.2219 64.7597 40.2219 63.1426 40.2219 61.4265C38.4855 61.4265 36.8659 61.4265 35.2631 61.4265C35.0627 60.684 35.0294 42.2363 35.2297 41.1803C36.8326 41.1803 38.4521 41.1803 40.1551 41.1803C40.1551 37.7646 40.1551 34.4645 40.1551 31.0324C41.9082 31.0324 43.5945 31.0324 45.3476 31.0324C45.3476 29.3163 45.3476 27.6993 45.3476 25.9832C47.0673 25.9832 48.7202 25.9832 50.44 25.9832C50.44 24.2671 50.44 22.6666 50.44 21C62.3945 21 74.2488 21 86.2033 21C86.2033 22.6171 86.2033 24.2341 86.2033 25.9502C87.9564 25.9502 89.626 25.9502 91.3791 25.9502C91.3791 27.6663 91.3791 29.2833 91.3791 30.9994C93.0989 30.9994 94.7518 30.9994 96.4715 30.9994C96.4715 34.4315 96.4715 37.7316 96.4715 41.1473C98.1745 41.1473 99.8107 41.1473 101.397 41.1473C101.597 41.8733 101.647 60.189 101.464 61.3935C99.8608 61.3935 98.2246 61.3935 96.5383 61.3935C96.5383 63.0931 96.5383 64.7266 96.5383 66.4262C99.8942 66.4262 103.217 66.4262 106.656 66.4262C106.656 68.1258 106.656 69.7593 106.656 71.4589C108.393 71.4589 110.012 71.4589 111.732 71.4589C111.732 73.142 111.732 74.7425 111.732 76.4421C113.485 76.5906 115.171 76.4256 116.958 76.5411C116.958 78.2077 116.958 79.8742 116.958 81.6398C118.694 81.6398 120.314 81.6398 122 81.6398C122 83.3394 122 84.9564 122 86.6395C121.633 86.656 121.315 86.689 120.998 86.689C118.243 86.689 115.472 86.689 112.717 86.7055C112.366 86.722 112.016 86.821 111.665 86.8705C111.682 85.2039 111.715 83.5374 111.732 81.8543C111.732 81.8048 111.665 81.7718 111.582 81.6728C110.079 81.6728 108.526 81.6728 106.99 81.6728C106.857 81.6728 106.706 81.7718 106.573 81.8213C106.606 81.6233 106.673 81.4088 106.673 81.2108C106.673 79.7752 106.673 78.3397 106.673 76.9041C106.673 76.7886 106.623 76.6896 106.589 76.5906C104.853 76.5906 103.167 76.5906 101.48 76.5906C101.514 76.3926 101.581 76.1781 101.581 75.9801C101.597 74.693 101.581 73.406 101.581 72.1189C101.581 71.9209 101.53 71.7229 101.497 71.5414C99.8107 71.5414 98.1912 71.5414 96.555 71.5414C96.555 73.2245 96.555 74.8415 96.555 76.5576C98.2413 76.5576 99.8775 76.5576 101.514 76.5576C101.547 77.5311 101.581 78.5212 101.597 79.4947C101.614 80.1712 101.597 80.8478 101.597 81.6068C101.981 81.6233 102.265 81.6563 102.566 81.6563C103.617 81.6563 104.686 81.6563 105.738 81.6728C106.022 81.6728 106.322 81.7553 106.606 81.8048C106.639 82.8443 106.673 83.8839 106.69 84.9069C106.706 85.4679 106.69 86.0289 106.69 86.6395C107.074 86.656 107.374 86.689 107.658 86.689C108.71 86.689 109.762 86.6725 110.814 86.7055C111.114 86.7385 111.381 86.821 111.665 86.8705ZM86.1866 66.5252C74.2822 66.5252 62.4112 66.5252 50.5068 66.5252C50.5068 68.1918 50.5068 69.8253 50.5068 71.4424C62.4279 71.4424 74.2989 71.4424 86.1866 71.4424C86.1866 69.7758 86.1866 68.1753 86.1866 66.5252ZM50.5068 41.2793C50.5068 44.6124 50.5068 47.8795 50.5068 51.2291C52.1764 51.2291 53.8126 51.2291 55.4822 51.2291C55.4822 47.896 55.4822 44.5959 55.4822 41.2793C53.7959 41.2793 52.1764 41.2793 50.5068 41.2793ZM76.0019 51.2291C76.0019 47.8795 76.0019 44.6124 76.0019 41.2463C74.3156 41.2133 72.6794 41.2298 71.0097 41.2463C71.0097 44.6454 71.0097 47.9125 71.0097 51.2291C72.6961 51.2291 74.3323 51.2291 76.0019 51.2291ZM60.6747 106.869C62.4445 106.869 64.1309 106.869 65.7838 106.869C65.7838 105.17 65.7838 103.536 65.7838 101.837C64.0474 101.853 62.3611 101.754 60.6747 101.903C60.6747 103.602 60.6747 105.203 60.6747 106.869ZM60.6915 86.656C62.4446 86.656 64.1142 86.656 65.8005 86.656C65.8005 84.9894 65.8005 83.3889 65.8005 81.7058C64.0641 81.7058 62.3945 81.6398 60.6915 81.7553C60.6915 83.4054 60.6915 84.9894 60.6915 86.656ZM65.8339 91.7712C64.0641 91.7877 62.3945 91.6887 60.7248 91.8207C60.7248 93.5202 60.7248 95.1043 60.7248 96.6884C61.8435 96.8699 65.1828 96.8204 65.8339 96.6389C65.8339 95.0548 65.8339 93.4872 65.8339 91.7712Z" fill="white"/>
</svg>
